<svg version="1.1" xmlns="http://www.w3.org/2000/svg" xmlns:xlink="http://www.w3.org/1999/xlink" width="158.99216" height="210.21322" viewBox="0,0,158.99216,210.21322"><g transform="translate(-158.62582,-74.89339)"><g data-paper-data="{&quot;isPaintingLayer&quot;:true}" fill-rule="nonzero" stroke-linejoin="miter" stroke-miterlimit="10" stroke-dasharray="" stroke-dashoffset="0" style="mix-blend-mode: normal"><g stroke="#5b5a5a" stroke-width="5"><path d="M265.04461,97.31714c0,11.00359 -3.40485,11.1573 -7.60494,11.1573c-4.20009,0 -7.60494,-0.15372 -7.60494,-11.1573c0,-11.00358 3.40485,-19.92375 7.60494,-19.92375c4.20009,0 7.60494,8.92017 7.60494,19.92376z" fill="#000000" stroke-linecap="butt"/><path d="M250.70395,98.11409h11.90338" fill="none" stroke-linecap="round"/><path d="M262.82777,90.61937h-12.56469" fill="none" stroke-linecap="round"/></g><g stroke="#5b5a5a" stroke-width="5"><path d="M222.06017,101.28494c0,11.00359 -3.40485,11.15729 -7.60494,11.15729c-4.20009,0 -7.60494,-0.15371 -7.60494,-11.15729c0,-11.00358 3.40485,-19.92376 7.60494,-19.92376c4.20009,0 7.60494,8.92018 7.60494,19.92376z" fill="#000000" stroke-linecap="butt"/><path d="M219.62289,102.08189h-11.90338" fill="none" stroke-linecap="round"/><path d="M207.27864,94.58716h12.56468" fill="none" stroke-linecap="round"/></g><path d="M203.29572,117.88126c1.09877,5.9252 -3.39603,11.72723 -10.03944,12.95918c-6.64341,1.23196 -12.91969,-2.57266 -14.01846,-8.49786c-1.09877,-5.9252 5.0841,-2.62424 11.72751,-3.8562c6.64341,-1.23196 11.23162,-6.53033 12.33039,-0.60513z" fill="#898685" stroke="#5b5a5a" stroke-width="5" stroke-linecap="butt"/><path d="M282.20403,118.4864c6.64341,1.23197 12.82628,-2.069 11.72751,3.8562c-1.09878,5.9252 -7.37505,9.72981 -14.01846,8.49786c-6.6434,-1.23196 -11.13822,-7.03399 -10.03944,-12.95919c1.09877,-5.9252 5.68699,-0.62683 12.33039,0.60514z" data-paper-data="{&quot;index&quot;:null}" fill="#898685" stroke="#5b5a5a" stroke-width="5" stroke-linecap="butt"/><g stroke-width="5" stroke-linecap="butt"><path d="M253.21236,273.44675v-23.7476h8.95401v23.7476z" fill="#898685" stroke="#5b5a5a"/><path d="M277.94654,278.28042c0,4.94517 -6.48971,3.50374 -14.01497,3.50374c-7.52524,0 -13.23636,1.44142 -13.23636,-3.50374c0,-4.94517 6.10042,-8.95401 13.62566,-8.95401c7.52526,0 13.62567,4.00884 13.62567,8.95401z" fill="#c2d4e4" stroke="#98a6b3"/></g><g stroke-width="5" stroke-linecap="butt"><path d="M220.70801,273.25469v-23.74759h8.95401v23.74759z" fill="#898685" stroke="#5b5a5a"/><path d="M244.06629,278.90738c0,4.94516 -6.48972,3.50374 -14.01497,3.50374c-7.52525,0 -13.23637,1.44142 -13.23637,-3.50374c0,-4.94516 6.10042,-8.95401 13.62568,-8.95401c7.52525,0 13.62567,4.00885 13.62567,8.95401z" fill="#c2d4e4" stroke="#98a6b3"/></g><g fill="#404463" stroke-linecap="butt"><path d="M276.57403,209.35839c0,19.7192 -17.38561,40.15271 -38.22728,40.15271c-20.84167,0 -39.4525,-24.88143 -39.4525,-44.60064c0,-19.7192 20.23046,-1.01098 41.07213,-1.01098c20.84167,0 36.60765,-14.26031 36.60765,5.4589z" stroke="#595e89" stroke-width="5"/><path d="M250.10901,251.02576v-12.49738h13.72261v12.49738z" stroke="#595e89" stroke-width="5"/><path d="M262.36132,238.52839c0,4.06007 -4.60786,7.3514 -10.29195,7.3514c-5.68409,0 -10.29196,-3.29134 -10.29196,-7.3514c0,-4.06007 4.60787,-7.35139 10.29196,-7.35139c5.68409,0 10.29195,3.29133 10.29195,7.35139z" stroke="none" stroke-width="0"/><path d="M217.39366,252.12684v-12.49738h13.72261v12.49738z" stroke="#595e89" stroke-width="5"/><path d="M251.57928,237.67072c0,4.93974 -7.67977,8.9442 -17.15326,8.9442c-9.47349,0 -17.15327,-4.00446 -17.15327,-8.9442c0,-4.93974 7.67978,-8.9442 17.15327,-8.9442c9.47349,0 17.15326,4.00446 17.15326,8.9442z" stroke="none" stroke-width="0"/></g><path d="M276.30255,198.2088c0,23.81472 -14.78035,27.37517 -36.03566,27.37517c-21.2553,0 -40.93659,-3.56046 -40.93659,-27.37517c0,-23.81472 17.23082,-43.12034 38.48612,-43.12034c21.25531,0 38.48611,19.30563 38.48611,43.12034z" fill="#f3617a" stroke="#9e3b45" stroke-width="5" stroke-linecap="butt"/><g stroke-width="5" stroke-linecap="butt"><path d="M302.60942,186.54088l-18.85642,6.94242l-2.87857,-7.81851l18.85642,-6.94242z" data-paper-data="{&quot;index&quot;:null}" fill="#898685" stroke="#5b5a5a"/><path d="M284.49738,196.39151c-5.62329,2.27758 -11.41744,1.07332 -12.9416,-2.6898c-1.52416,-3.76311 1.79883,-8.66007 7.42211,-10.93765c5.62329,-2.27758 5.46317,1.07394 6.98732,4.83706c1.52416,3.76311 4.15544,6.51281 -1.46785,8.79039z" data-paper-data="{&quot;index&quot;:null}" fill="#f3617a" stroke="#9e3b45"/><path d="M297.32384,179.14542c1.73028,-4.11727 6.36952,-6.09482 10.36203,-4.41697c3.9925,1.67785 5.82639,6.37572 4.09611,10.49299c-1.73028,4.11727 -6.36952,6.09482 -10.36202,4.41697c-3.9925,-1.67785 -5.8264,-6.37572 -4.09612,-10.49299z" fill="#898685" stroke="#5b5a5a"/></g><g stroke-width="5" stroke-linecap="butt"><path d="M301.3017,217.481l-19.53029,-4.72541l1.95932,-8.09792l19.53028,4.72541z" fill="#898685" stroke="#5b5a5a"/><path d="M286.69411,201.26389c5.64775,2.21622 3.04656,4.9944 1.56346,8.77389c-1.4831,3.77949 -1.28649,7.12907 -6.93424,4.91285c-5.64775,-2.21622 -9.02385,-7.0767 -7.54076,-10.85619c1.4831,-3.77949 7.26379,-5.04677 12.91154,-2.83055z" fill="#f3617a" stroke="#9e3b45"/><path d="M314.43089,211.72531c1.77501,4.09819 -0.00763,8.81574 -3.98163,10.53696c-3.974,1.72122 -8.63449,-0.20569 -10.4095,-4.30388c-1.77501,-4.09819 0.00764,-8.81576 3.98163,-10.53698c3.974,-1.72122 8.63449,0.2057 10.4095,4.30389z" fill="#898685" stroke="#5b5a5a"/></g><path d="M278.89161,130.83478c0,5.32804 14.98257,16.92881 13.73723,21.70122c-0.72397,2.77444 -1.0707,5.98092 -1.61589,9.28012c-1.1481,6.94769 -3.17635,14.30658 -11.46138,18.90791c-13.88752,7.71285 -41.86382,8.87776 -50.17645,8.87776c-19.67747,0 -35.6292,-20.98157 -35.6292,-46.86364c0,-25.88207 15.95174,-46.86363 35.6292,-46.86363c19.67747,0 49.51648,9.07818 49.51648,34.96025z" fill="#898685" stroke="#5b5a5a" stroke-width="5" stroke-linecap="butt"/><g stroke-linecap="butt"><g fill="#ffffff" stroke="#5b5a5a" stroke-width="5"><path d="M258.31318,122.274c0,4.02504 -3.30703,7.28798 -7.38647,7.28798c-4.07943,0 -7.38647,-3.26293 -7.38647,-7.28798c0,-1.98991 2.55829,-1.29356 3.8686,-2.60874c1.34008,-1.34507 1.45524,-4.67923 3.51787,-4.67923c4.07943,0 7.38647,3.26293 7.38647,7.28798z"/></g><path d="M258.31318,124.38461c0,1.75571 -1.507,3.17899 -3.36598,3.17899c-1.85898,0 -3.36599,-1.42328 -3.36599,-3.17899c0,-1.75571 1.50701,-3.17898 3.36599,-3.17898c1.85899,0 3.36598,1.42328 3.36598,3.17898z" fill="#000000" stroke="none" stroke-width="0"/></g><g stroke-linecap="butt"><g fill="#ffffff" stroke="#5b5a5a" stroke-width="5"><path d="M231.43547,123.74088c0,4.02504 -3.30703,7.28797 -7.38646,7.28797c-4.07943,0 -7.38647,-3.26293 -7.38647,-7.28797c0,-4.02504 3.30703,-7.28798 7.38647,-7.28798c1.53603,0 1.71257,2.46261 2.89428,3.25432c1.9567,1.31093 4.49219,1.52417 4.49219,4.03366z"/></g><path d="M231.43547,125.85148c0,1.75571 -1.507,3.17898 -3.36598,3.17898c-1.85898,0 -3.36598,-1.42327 -3.36598,-3.17898c0,-1.75571 1.507,-3.17898 3.36598,-3.17898c1.85898,0 3.36598,1.42329 3.36598,3.17898z" fill="#000000" stroke="none" stroke-width="0"/></g><path d="M218.75367,145.83784c0,5.29577 -5.3196,0.99195 -10.25014,0.99195c-4.93054,0 -7.60494,4.30382 -7.60494,-0.99195c0,-5.29577 3.99699,-9.58884 8.92754,-9.58884c4.93054,0 8.92754,4.29307 8.92754,9.58884z" fill="#da9292" stroke="none" stroke-width="0" stroke-linecap="butt"/><path d="M278.27059,151.78953c0,8.21758 -8.88222,14.87923 -19.83898,14.87923c-10.95676,0 -19.83897,-6.66165 -19.83897,-14.87923c0,-8.21758 8.88221,-14.87922 19.83897,-14.87922c10.95676,0 19.83898,6.66165 19.83898,14.87922z" fill="#445f58" stroke="none" stroke-width="0" stroke-linecap="butt"/><path d="M254.7546,146.98578c2.19185,3.82167 1.76741,8.18224 -0.94799,9.7396c-2.7154,1.55736 -6.69351,-0.27823 -8.88535,-4.0999c-2.19185,-3.82167 -1.76741,-8.18225 0.94799,-9.73961c2.7154,-1.55736 6.69351,0.27823 8.88536,4.09991z" fill="#211406" stroke="none" stroke-width="0" stroke-linecap="butt"/><path d="M270.7942,140.26522c2.83553,1.62626 3.27873,6.17973 0.98992,10.17047c-2.28881,3.99074 -6.4429,5.90753 -9.27843,4.28127c-2.83553,-1.62626 -3.27873,-6.17973 -0.98992,-10.17047c2.28881,-3.99074 6.4429,-5.90753 9.27843,-4.28127z" data-paper-data="{&quot;index&quot;:null}" fill="#211406" stroke="none" stroke-width="0" stroke-linecap="butt"/><path d="M242.45653,181.33551c-1.12843,0.56421 -1.69264,-0.56421 -1.69264,-0.56421l-0.48231,-0.98639c-1.53008,-2.2976 -2.88332,-5.28408 -5.47339,-6.66518c-1.19657,-0.63804 -3.32383,-0.25099 -4.55768,-0.03017c-3.3478,0.59914 -7.51946,1.59366 -10.07371,4.06295c-0.78406,0.75798 -1.13352,1.86346 -1.71151,2.78824c0,0 -0.66865,1.06986 -1.73851,0.4012c-1.06985,-0.66866 -0.4012,-1.73851 -0.4012,-1.73851c0.14948,-0.23918 1.92582,-3.0958 2.02847,-3.19573c2.95107,-2.87275 7.56243,-4.11475 11.46948,-4.805c1.82111,-0.32172 4.32883,-0.63796 6.06295,0.23581c3.09615,1.56007 4.6852,4.83581 6.49455,7.54676l0.63969,1.2576c0,0 0.56422,1.12843 -0.56421,1.69264z" data-paper-data="{&quot;index&quot;:null}" fill="#ff6d7c" stroke="none" stroke-width="0.5" stroke-linecap="butt"/><path d="M207.125,222.79762c0,0 -16.15978,19.91671 -36.25,5.75" fill="none" stroke="#5b5a5a" stroke-width="5" stroke-linecap="round"/><path d="M169.6236,221.52796c4.64227,3.23965 4.84266,6.60294 3.0648,9.15052c-1.77786,2.54758 -4.86073,3.31476 -9.503,0.0751c-8.1275,-5.67186 -3.68456,-18.06739 0.24161,-15.5692c0.72626,0.46212 1.33912,3.61479 2.63463,4.43555c1.55751,0.98676 1.70633,0.61305 3.56197,1.90803z" fill="#000000" stroke="#000000" stroke-width="0" stroke-linecap="butt"/></g></g></svg>