<svg version="1.1" xmlns="http://www.w3.org/2000/svg" xmlns:xlink="http://www.w3.org/1999/xlink" width="149.8538" height="210.21322" viewBox="0,0,149.8538,210.21322"><g transform="translate(-158.62582,-74.89339)"><g data-paper-data="{&quot;isPaintingLayer&quot;:true}" fill-rule="nonzero" stroke-linejoin="miter" stroke-miterlimit="10" stroke-dasharray="" stroke-dashoffset="0" style="mix-blend-mode: normal"><path d="M207.125,222.79762c0,0 -16.15978,19.91671 -36.25,5.75" fill="none" stroke="#5b5a5a" stroke-width="5" stroke-linecap="round"/><path d="" fill="#a4b9bd" stroke="#5b5a5a" stroke-width="5" stroke-linecap="butt"/><path d="" fill="#9966ff" stroke="none" stroke-width="0.5" stroke-linecap="butt"/><g stroke="#5b5a5a" stroke-width="5"><path d="M265.04459,97.31714c0,11.00359 -3.40485,11.1573 -7.60494,11.1573c-4.20009,0 -7.60494,-0.15372 -7.60494,-11.1573c0,-11.00359 3.40485,-19.92375 7.60494,-19.92375c4.20009,0 7.60494,8.92017 7.60494,19.92376z" fill="#000000" stroke-linecap="butt"/><path d="M250.70394,98.11409h11.90338" fill="none" stroke-linecap="round"/><path d="M250.26308,90.61937h12.56468" fill="none" stroke-linecap="round"/></g><g stroke="#5b5a5a" stroke-width="5"><path d="M222.06015,101.28493c0,11.00359 -3.40485,11.1573 -7.60494,11.1573c-4.20009,0 -7.60494,-0.15372 -7.60494,-11.1573c0,-11.00359 3.40485,-19.92376 7.60494,-19.92376c4.20009,0 7.60494,8.92017 7.60494,19.92376z" fill="#000000" stroke-linecap="butt"/><path d="M207.7195,102.08188h11.90338" fill="none" stroke-linecap="round"/><path d="M207.27863,94.58716h12.56468" fill="none" stroke-linecap="round"/></g><path d="M203.29571,117.88126c1.09877,5.9252 -3.39604,11.72723 -10.03944,12.95919c-6.6434,1.23196 -12.91969,-2.57266 -14.01846,-8.49786c-1.09877,-5.9252 5.08411,-2.62424 11.72751,-3.8562c6.6434,-1.23196 11.23162,-6.53033 12.33039,-0.60513z" fill="#898685" stroke="#5b5a5a" stroke-width="5" stroke-linecap="butt"/><path d="M282.20402,118.48639c6.64341,1.23197 12.82629,-2.069 11.72751,3.8562c-1.09878,5.9252 -7.37506,9.72982 -14.01847,8.49786c-6.6434,-1.23196 -11.13821,-7.03399 -10.03944,-12.95919c1.09877,-5.9252 5.68699,-0.62683 12.33039,0.60513z" data-paper-data="{&quot;index&quot;:null}" fill="#898685" stroke="#5b5a5a" stroke-width="5" stroke-linecap="butt"/><g stroke-width="5" stroke-linecap="butt"><path d="M253.21235,273.44675v-23.74759h8.95401v23.74759z" fill="#898685" stroke="#5b5a5a"/><path d="M277.94653,278.28041c0,4.94517 -6.48972,3.50374 -14.01497,3.50374c-7.52525,0 -13.23636,1.44142 -13.23636,-3.50374c0,-4.94517 6.10042,-8.95401 13.62566,-8.95401c7.52525,0 13.62566,4.00884 13.62566,8.95401z" fill="#c2d4e4" stroke="#98a6b3"/></g><g stroke-width="5" stroke-linecap="butt"><path d="M220.70799,273.25469v-23.74759h8.95401v23.74759z" fill="#898685" stroke="#5b5a5a"/><path d="M244.06628,278.90738c0,4.94516 -6.48972,3.50374 -14.01497,3.50374c-7.52525,0 -13.23636,1.44142 -13.23636,-3.50374c0,-4.94516 6.10042,-8.95401 13.62567,-8.95401c7.52525,0 13.62567,4.00885 13.62567,8.95401z" fill="#c2d4e4" stroke="#98a6b3"/></g><g fill="#404463" stroke-linecap="butt"><path d="M276.57402,209.35838c0,19.7192 -17.38561,40.15271 -38.22727,40.15271c-20.84167,0 -39.4525,-24.88142 -39.4525,-44.60063c0,-19.7192 20.23045,-1.01098 41.07212,-1.01098c20.84167,0 36.60765,-14.26031 36.60765,5.4589z" stroke="#595e89" stroke-width="5"/><path d="M250.10899,251.02576v-12.49738h13.72261v12.49738z" stroke="#595e89" stroke-width="5"/><path d="M262.36132,238.52839c0,4.06007 -4.60787,7.3514 -10.29196,7.3514c-5.68409,0 -10.29196,-3.29133 -10.29196,-7.3514c0,-4.06007 4.60787,-7.3514 10.29196,-7.3514c5.68409,0 10.29196,3.29133 10.29196,7.3514z" stroke="none" stroke-width="0"/><path d="M217.39364,252.12684v-12.49738h13.72261v12.49738z" stroke="#595e89" stroke-width="5"/><path d="M251.57927,237.67072c0,4.93975 -7.67978,8.9442 -17.15326,8.9442c-9.47349,0 -17.15326,-4.00446 -17.15326,-8.9442c0,-4.93975 7.67978,-8.9442 17.15326,-8.9442c9.47349,0 17.15326,4.00446 17.15326,8.9442z" stroke="none" stroke-width="0"/></g><path d="M276.30254,198.2088c0,23.81472 -14.78035,27.37517 -36.03565,27.37517c-21.2553,0 -40.93659,-3.56046 -40.93659,-27.37517c0,-23.81472 17.23082,-43.12034 38.48612,-43.12034c21.2553,0 38.48611,19.30563 38.48611,43.12034z" fill="#f3617a" stroke="#9e3b45" stroke-width="5" stroke-linecap="butt"/><g stroke-width="5" stroke-linecap="butt"><path d="M181.96538,198.34742l14.69404,-13.70573l5.68286,6.09265l-14.69403,13.70573z" data-paper-data="{&quot;index&quot;:null}" fill="#898685" stroke="#5b5a5a"/><path d="M194.84645,182.24901c4.3017,-4.27832 10.1099,-5.41292 12.97296,-2.53421c2.86306,2.87871 1.69681,8.68063 -2.60489,12.95896c-4.3017,4.27832 -5.45256,1.12652 -8.31562,-1.7522c-2.86306,-2.87871 -6.35415,-4.39423 -2.05244,-8.67255z" data-paper-data="{&quot;index&quot;:null}" fill="#f3617a" stroke="#9e3b45"/><path d="M189.70336,203.11751c0,4.46607 -3.51075,8.08654 -7.84149,8.08654c-4.33074,0 -7.84149,-3.62047 -7.84149,-8.08654c0,-4.46607 3.51076,-8.08654 7.84149,-8.08654c4.33074,0 7.84149,3.62047 7.84149,8.08654z" fill="#898685" stroke="#5b5a5a"/></g><g stroke-width="5" stroke-linecap="butt"><path d="M291.64436,209.43131l-16.04344,-12.09833l5.01638,-6.65216l16.04344,12.09833z" fill="#898685" stroke="#5b5a5a"/><path d="M284.68542,188.74437c4.3017,4.27832 0.81062,5.79383 -2.05245,8.67255c-2.86306,2.87871 -4.01392,6.03052 -8.31562,1.7522c-4.3017,-4.27832 -5.46795,-10.08024 -2.60489,-12.95896c2.86306,-2.87871 8.67126,-1.74411 12.97296,2.53421z" fill="#f3617a" stroke="#9e3b45"/><path d="M305.97962,209.36783c0,4.46607 -3.51075,8.08654 -7.84149,8.08654c-4.33074,0 -7.84149,-3.62047 -7.84149,-8.08654c0,-4.46607 3.51076,-8.08654 7.84149,-8.08654c4.33074,0 7.84149,3.62047 7.84149,8.08654z" fill="#898685" stroke="#5b5a5a"/></g><path d="M278.89159,130.83478c0,5.32804 14.98257,16.92881 13.73724,21.70122c-0.72398,2.77444 -1.0707,5.98092 -1.61589,9.28012c-1.1481,6.94769 -3.17635,14.30658 -11.46138,18.90791c-13.88752,7.71285 -41.86382,8.87776 -50.17645,8.87776c-19.67747,0 -35.6292,-20.98156 -35.6292,-46.86363c0,-25.88207 15.95174,-46.86363 35.6292,-46.86363c19.67747,0 49.51648,9.07818 49.51648,34.96025z" fill="#898685" stroke="#5b5a5a" stroke-width="5" stroke-linecap="butt"/><g stroke-linecap="butt"><g fill="#ffffff" stroke="#5b5a5a" stroke-width="5"><path d="M258.31318,122.274c0,4.02504 -3.30703,7.28798 -7.38647,7.28798c-4.07943,0 -7.38647,-3.26294 -7.38647,-7.28798c0,-4.02504 3.30703,-7.28798 7.38647,-7.28798c4.07943,0 7.38647,3.26294 7.38647,7.28798z"/></g><path d="M258.31318,124.38461c0,1.75571 -1.507,3.17898 -3.36599,3.17898c-1.85898,0 -3.36599,-1.42328 -3.36599,-3.17898c0,-1.75571 1.50701,-3.17898 3.36599,-3.17898c1.85898,0 3.36599,1.42328 3.36599,3.17898z" fill="#000000" stroke="none" stroke-width="0"/></g><g stroke-linecap="butt"><g fill="#ffffff" stroke="#5b5a5a" stroke-width="5"><path d="M231.43546,123.74088c0,4.02504 -3.30703,7.28798 -7.38647,7.28798c-4.07943,0 -7.38647,-3.26294 -7.38647,-7.28798c0,-4.02504 3.30703,-7.28798 7.38647,-7.28798c4.07943,0 7.38647,3.26294 7.38647,7.28798z"/></g><path d="M231.43546,125.85147c0,1.75571 -1.507,3.17898 -3.36599,3.17898c-1.85898,0 -3.36599,-1.42328 -3.36599,-3.17898c0,-1.75571 1.507,-3.17898 3.36599,-3.17898c1.85898,0 3.36599,1.42329 3.36599,3.17898z" fill="#000000" stroke="none" stroke-width="0"/></g><path d="M218.75366,145.83784c0,5.29577 -5.3196,0.99195 -10.25014,0.99195c-4.93054,0 -7.60494,4.30382 -7.60494,-0.99195c0,-5.29577 3.997,-9.58884 8.92754,-9.58884c4.93054,0 8.92754,4.29307 8.92754,9.58884z" fill="#da9292" stroke="none" stroke-width="0" stroke-linecap="butt"/><path d="M278.27057,151.78953c0,8.21757 -8.88221,14.87923 -19.83897,14.87923c-10.95676,0 -19.83897,-6.66166 -19.83897,-14.87923c0,-8.21757 8.88221,-14.87923 19.83897,-14.87923c10.95676,0 19.83897,6.66166 19.83897,14.87923z" fill="#445f58" stroke="none" stroke-width="0" stroke-linecap="butt"/><path d="M254.75459,146.98578c2.19184,3.82167 1.76741,8.18225 -0.94799,9.73961c-2.7154,1.55736 -6.69351,-0.27823 -8.88535,-4.0999c-2.19184,-3.82167 -1.76741,-8.18225 0.94799,-9.73961c2.7154,-1.55736 6.69351,0.27823 8.88535,4.0999z" fill="#211406" stroke="none" stroke-width="0" stroke-linecap="butt"/><path d="M270.79418,140.26521c2.83552,1.62626 3.27873,6.17973 0.98993,10.17048c-2.28881,3.99074 -6.4429,5.90754 -9.27843,4.28128c-2.83552,-1.62626 -3.27873,-6.17973 -0.98992,-10.17048c2.28881,-3.99074 6.4429,-5.90753 9.27842,-4.28127z" data-paper-data="{&quot;index&quot;:null}" fill="#211406" stroke="none" stroke-width="0" stroke-linecap="butt"/><path d="M242.4565,170.42977c1.12843,0.56421 0.56421,1.69264 0.56421,1.69264l-0.63969,1.25761c-1.80935,2.71095 -3.3984,5.98669 -6.49455,7.54676c-1.73412,0.87377 -4.24184,0.55753 -6.06296,0.23581c-3.90705,-0.69024 -8.51842,-1.93226 -11.46949,-4.805c-0.10265,-0.09993 -1.87898,-2.95655 -2.02847,-3.19573c0,0 -0.66866,-1.06986 0.4012,-1.73851c1.06986,-0.66866 1.73851,0.4012 1.73851,0.4012c0.57799,0.92478 0.92745,2.03026 1.71151,2.78824c2.55425,2.46928 6.72591,3.46381 10.07371,4.06295c1.23385,0.22082 3.36111,0.60787 4.55767,-0.03018c2.59007,-1.3811 3.94331,-4.36758 5.47339,-6.66517l0.48231,-0.98639c0,0 0.56421,-1.12843 1.69264,-0.56421z" fill="#ff6d7c" stroke="none" stroke-width="0.5" stroke-linecap="butt"/><path d="M169.6236,221.52796c4.64227,3.23965 4.84266,6.60294 3.0648,9.15052c-1.77786,2.54758 -4.86073,3.31476 -9.503,0.0751c-8.1275,-5.67186 -3.68456,-18.06739 0.24161,-15.5692c0.72626,0.46212 1.33912,3.61479 2.63463,4.43555c1.55751,0.98676 1.70633,0.61305 3.56197,1.90803z" fill="#000000" stroke="#000000" stroke-width="0" stroke-linecap="butt"/></g></g></svg>