<svg version="1.1" xmlns="http://www.w3.org/2000/svg" xmlns:xlink="http://www.w3.org/1999/xlink" width="66.88368" height="101.04152" viewBox="0,0,66.88368,101.04152"><g transform="translate(-210.89629,-124.98065)"><g data-paper-data="{&quot;isPaintingLayer&quot;:true}" fill-rule="nonzero" stroke-linejoin="miter" stroke-miterlimit="10" stroke-dasharray="" stroke-dashoffset="0" style="mix-blend-mode: normal"><path d="M276.52998,190.53899c-0.00243,0.36618 0.34133,2.8987 -0.67755,4.01309c-1.33794,1.46337 -4.79051,1.93479 -4.79051,1.93479l-10.18304,-1.41539c0,0 -2.30949,-0.11737 -3.22111,-1.10634c-0.79333,-0.86062 -0.20552,-2.57798 -0.20299,-2.96014c0.00566,-0.85385 3.45743,-0.96272 3.45743,-0.96272l11.15037,-0.11132c0,0 4.47289,-0.22096 4.4674,0.60802z" data-paper-data="{&quot;index&quot;:null}" fill="#f77d83" stroke="#b53a4d" stroke-width="2.5" stroke-linecap="butt"/><path d="M229.39174,204.40188c1.10783,3.21512 -1.57017,7.05368 -5.98147,8.57366c-4.4113,1.51999 -8.88543,0.1458 -9.99325,-3.06931c-1.10783,-3.21512 3.59468,-2.08808 8.00599,-3.60807c4.4113,-1.51999 6.86092,-5.1114 7.96874,-1.89628z" fill="#f77d83" stroke="#b53a4d" stroke-width="2.5" stroke-linecap="butt"/><path d="M218.795,212.75647c-0.38714,0.06113 -1.0889,-0.05557 -1.46107,-0.09159c-1.33345,-0.12905 -2.66968,-1.34448 -2.98435,-2.34226c-0.16311,-0.51721 -0.77069,-0.90598 -0.49308,-1.35405c0.40742,-0.6576 1.92157,-1.29745 2.9768,-1.46406c1.3282,-0.20971 0.07171,0.62229 -0.0239,1.52816c-0.03211,0.30418 1.64019,0.36601 1.74137,0.68685c0.14139,0.44833 -1.18748,1.06753 -0.90242,1.38164c0.5264,0.58006 2.29764,1.47361 1.14667,1.65533z" fill="#fdfad2" stroke="none" stroke-width="2.5" stroke-linecap="butt"/><path d="M257.83714,194.48392c0,4.18674 1.05236,8.75187 -0.76309,10.5948c-2.80813,2.85066 -9.59145,1.66216 -15.37152,1.66216c-6.61829,0 -13.78402,1.89384 -16.99395,-2.16194c-1.40582,-1.77628 -1.335,-6.84744 -1.335,-10.09501c0,-10.6628 7.71492,-19.30671 17.23178,-19.30671c9.51685,0 17.23178,8.64391 17.23178,19.30671z" fill="#f77d83" stroke="#b53a4d" stroke-width="2.5" stroke-linecap="butt"/><path d="M251.80543,202.0667c0,4.74226 -4.70603,8.58661 -10.5112,8.58661c-5.80517,0 -10.51119,-3.84435 -10.51119,-8.58661c0,-4.74226 4.70602,-8.58662 10.51119,-8.58662c5.80517,0 10.5112,3.84436 10.5112,8.58662z" fill="#fdfad2" stroke="none" stroke-width="2.5" stroke-linecap="butt"/><path d="M258.57236,213.94864c3.16092,4.17026 6.14804,7.22904 2.5968,9.92077c-3.55124,2.69172 -5.57101,-1.10028 -8.73194,-5.27053c-3.16092,-4.17026 -6.26602,-7.13961 -2.71479,-9.83133c3.55124,-2.69172 5.689,1.01084 8.84992,5.18111z" fill="#f77d83" stroke="#b53a4d" stroke-width="2.5" stroke-linecap="butt"/><path d="M234.54942,208.32339c3.55124,2.69172 0.44615,5.66108 -2.71477,9.83134c-3.16092,4.17026 -5.18069,7.96226 -8.73193,5.27054c-3.55124,-2.69172 -0.56413,-5.75049 2.5968,-9.92077c3.16092,-4.17026 5.29868,-7.87283 8.84992,-5.18111z" data-paper-data="{&quot;index&quot;:null}" fill="#f77d83" stroke="#b53a4d" stroke-width="2.5" stroke-linecap="butt"/><path d="M223.52882,201.73156l34.34645,0.29609l0.2961,5.18158l-1.03632,3.10894l-2.81286,2.66481l-4.14527,1.33241l-10.65925,0.2961l-5.62571,-1.18437l-3.40504,-1.77654l-3.99722,-3.25699l-2.51677,-4.29331z" fill="#ffffff" stroke="#b5b5b5" stroke-width="2.5" stroke-linecap="round"/><path d="M237.71722,196.46396l-11.15078,-0.05987c0,0 -3.45224,-0.09295 -3.46182,-0.94675c-0.0043,-0.38214 -0.60003,-2.09677 0.18933,-2.96104c0.90705,-0.99315 3.21597,-1.12119 3.21597,-1.12119l10.1764,-1.46236c0,0 3.45471,0.45549 4.79939,1.91267c1.02401,1.10969 0.69194,3.64375 0.69606,4.00992c0.00932,0.82894 -4.46455,0.62863 -4.46455,0.62863z" data-paper-data="{&quot;index&quot;:null}" fill="#f77d83" stroke="#b53a4d" stroke-width="2.5" stroke-linecap="butt"/><path d="M237.20386,134.52146c0,0 0.6078,-0.71466 1.73296,-2.07263c0.93001,-1.12244 2.81195,-6.11318 3.51796,-6.21818c1.1109,-0.16521 3.22881,7.02975 3.22881,7.02975l-3.06835,8.07114z" data-paper-data="{&quot;index&quot;:null}" fill="#f77d83" stroke="#b53a4d" stroke-width="2.5" stroke-linecap="round"/><path d="M218.53408,144.81281l-3.06834,-8.07115c0,0 2.1179,-7.19496 3.2288,-7.02976c0.706,0.105 2.58795,5.09574 3.51796,6.21819c1.12516,1.35798 1.73296,2.07263 1.73296,2.07263z" fill="#f77d83" stroke="#b53a4d" stroke-width="2.5" stroke-linecap="round"/><path d="M255.63122,158.64053c0,3.2514 17.61763,3.06673 16.85767,5.97906c-1.37218,5.2585 -0.52359,13.06023 -7.98031,17.20155c-8.47476,4.70671 -25.5471,5.41759 -30.61982,5.41759c-12.00804,0 -21.74247,-12.80386 -21.74247,-28.59821c0,-15.79435 9.73444,-28.5982 21.74247,-28.5982c12.00804,0 21.74248,12.80385 21.74248,28.5982z" fill="#f77d83" stroke="#b53a4d" stroke-width="2.5" stroke-linecap="butt"/><path d="M255.3231,159.00294c0,3.17233 17.18921,2.99215 16.44772,5.83366c-1.33882,5.13063 -0.51085,12.74263 -7.78625,16.78324c-8.26867,4.59225 -24.92585,5.28585 -29.87521,5.28585c-8.83568,0 -16.40969,-7.10507 -19.59975,-17.20838c-1.03993,-3.29359 -1.61398,-6.9058 -1.61398,-10.69437c0,-3.74536 8.52227,-1.4693 9.53982,-4.73249c3.16916,-10.1632 0.93694,-20.81439 9.80546,-20.81439c1.03912,0 1.48316,4.24283 1.97602,6.68926c0.37795,1.87602 2.24687,4.25323 2.97258,4.5006c0.4581,0.15615 3.97079,-1.26548 4.61259,-1.97089c1.67581,-1.84187 1.84901,-8.85889 2.89677,-8.0979c6.43297,4.67231 10.62422,13.81948 10.62422,24.42579z" fill="#fdfad2" stroke="#799794" stroke-width="0" stroke-linecap="butt"/><path d="M272.34497,163.37325c-0.06149,0.42508 0.15386,1.14342 0.37935,1.58292c0.59668,1.16302 0.58262,3.05258 0.51842,4.28791c-0.06886,1.32513 0.0808,3.11694 -0.71033,4.5015c-0.36217,0.63384 -2.00777,0.83837 -2.03576,1.48355c-1.36813,0.14468 -2.5916,0.26941 -3.77959,0.22724c0.00513,-0.09924 0.01027,-0.19615 0.01583,-0.29014c0.247,-4.17905 -0.14157,-8.2039 -0.0632,-12.39322c0.00827,-0.44199 0.0385,-0.88387 0.06934,-1.32498c2.87144,0.57354 5.81458,0.48305 5.60593,1.92524z" fill="#3b3324" stroke="#0e0c09" stroke-width="2.5" stroke-linecap="butt"/><path d="M251.54801,146.15241c0,2.45624 -2.01809,4.44743 -4.50754,4.44743c-2.48944,0 -4.50753,-1.99118 -4.50753,-4.44743c0,-2.45624 2.01809,-4.44744 4.50753,-4.44744c2.48944,0 4.50754,1.99119 4.50754,4.44744z" fill="#ffffff" stroke="#b53a4d" stroke-width="2.5" stroke-linecap="butt"/><path d="M235.14606,147.04757c0,2.45624 -2.0181,4.44744 -4.50754,4.44744c-2.48944,0 -4.50753,-1.99119 -4.50753,-4.44744c0,-2.45624 2.0181,-4.44743 4.50754,-4.44743c2.48944,0 4.50753,1.99119 4.50753,4.44744z" fill="#ffffff" stroke="#b53a4d" stroke-width="2.5" stroke-linecap="butt"/><path d="M248.6604,165.47699c0.68862,0.3443 0.34431,1.03293 0.34431,1.03293l-0.39037,0.76744c-1.10414,1.65434 -2.07385,3.65334 -3.96325,4.60536c-1.05823,0.53322 -2.58856,0.34023 -3.69988,0.1439c-2.38425,-0.42122 -5.1983,-1.17914 -6.99917,-2.93221c-0.06265,-0.06098 -1.14664,-1.80421 -1.23786,-1.95016c0,0 -0.40804,-0.65288 0.24483,-1.06092c0.65287,-0.40805 1.06091,0.24482 1.06091,0.24482c0.35271,0.56434 0.56597,1.23895 1.04444,1.7015c1.55872,1.50687 4.10444,2.11377 6.14741,2.47939c0.75295,0.13476 2.0511,0.37094 2.78128,-0.01841c1.58057,-0.8428 2.40637,-2.66528 3.34009,-4.06737l0.29433,-0.60194c0,0 0.34431,-0.68861 1.03293,-0.3443z" fill="#b54865" stroke="none" stroke-width="2.5" stroke-linecap="butt"/><path d="M231.03906,166.3836c0,4.01178 -3.16184,7.26396 -7.06218,7.26396c-3.90034,0 -7.06217,-3.25218 -7.06217,-7.26396c0,-4.01176 3.16184,-7.26396 7.06217,-7.26396c3.90034,0 7.06219,3.25218 7.06219,7.26396z" fill="#ffbab2" stroke="#e29384" stroke-width="0" stroke-linecap="butt"/><path d="M233.19145,145.95319c0,1.33201 -1.11156,2.41181 -2.48274,2.41181c-1.37118,0 -2.48274,-1.0798 -2.48274,-2.41181c0,-1.33201 1.11156,-2.41181 2.48274,-2.41181c1.37118,0 2.48274,1.07981 2.48274,2.41181z" fill="#000000" stroke="none" stroke-width="0" stroke-linecap="butt"/><path d="M249.75821,144.92922c0,1.33201 -1.11156,2.41181 -2.48275,2.41181c-1.37119,0 -2.48275,-1.0798 -2.48275,-2.41181c0,-1.33201 1.11156,-2.41181 2.48275,-2.41181c1.37119,0 2.48275,1.07981 2.48275,2.41181z" fill="#000000" stroke="none" stroke-width="0" stroke-linecap="butt"/></g></g></svg>