<svg version="1.1" xmlns="http://www.w3.org/2000/svg" xmlns:xlink="http://www.w3.org/1999/xlink" width="63.81567" height="101.20323" viewBox="0,0,63.81567,101.20323"><g transform="translate(-210.67538,-124.98064)"><g data-paper-data="{&quot;isPaintingLayer&quot;:true}" fill-rule="nonzero" stroke-linejoin="miter" stroke-miterlimit="10" stroke-dasharray="" stroke-dashoffset="0" style="mix-blend-mode: normal"><path d="M268.11333,201.74144c-0.3155,0.19055 -2.3078,1.81781 -3.80007,1.52977c-1.95956,-0.37825 -4.18039,-3.0929 -4.18039,-3.0929l-4.14246,-9.48265c0,0 -1.11423,-2.04351 -0.74519,-3.34604c0.32116,-1.13351 2.10405,-1.53256 2.4333,-1.73143c0.73566,-0.44433 2.64496,2.46035 2.64496,2.46035l5.96142,9.50956c0,0 2.54266,3.72194 1.82843,4.15333z" data-paper-data="{&quot;index&quot;:null}" fill="#f77d83" stroke="#b53a4d" stroke-width="2.5" stroke-linecap="butt"/><g stroke-width="2.5" stroke-linecap="butt"><path d="M228.00428,204.43075c1.11504,3.23609 -1.58041,7.09968 -6.02048,8.62957c-4.44007,1.5299 -8.94338,0.14675 -10.05843,-3.08934c-1.11504,-3.23609 3.61813,-2.1017 8.0582,-3.6316c4.44007,-1.5299 6.90567,-5.14473 8.02071,-1.90865z" fill="#f77d83" stroke="#b53a4d"/><path d="M217.33844,212.83982c-0.38967,0.06152 -1.096,-0.05593 -1.4706,-0.09219c-1.34214,-0.12989 -2.68709,-1.35324 -3.00381,-2.35754c-0.16417,-0.52058 -0.77571,-0.91189 -0.49629,-1.36289c0.41008,-0.66189 1.9341,-1.30591 2.99621,-1.4736c1.33687,-0.21108 0.07217,0.62635 -0.02407,1.53812c-0.03232,0.30616 1.65088,0.3684 1.75272,0.69133c0.14231,0.45126 -1.19522,1.07449 -0.90831,1.39065c0.52983,0.58385 2.31262,1.48321 1.15415,1.66612z" fill="#fdfad2" stroke="none"/></g><path d="M256.63519,194.44811c0,4.21404 1.05922,8.80895 -0.76806,10.66389c-2.82646,2.86924 -9.654,1.673 -15.47176,1.673c-6.66145,0 -13.87391,1.90619 -17.10478,-2.17604c-1.415,-1.78787 -1.34371,-6.89209 -1.34371,-10.16085c0,-10.73234 7.76524,-19.43261 17.34416,-19.43261c9.57891,0 17.34415,8.70028 17.34415,19.43261z" fill="#f77d83" stroke="#b53a4d" stroke-width="2.5" stroke-linecap="butt"/><path d="M214.80626,196.69405l5.96142,-9.50957c0,0 1.9093,-2.90468 2.64496,-2.46035c0.32926,0.19887 2.11216,0.59792 2.4333,1.73143c0.36905,1.30253 -0.74519,3.34604 -0.74519,3.34604l-4.14246,9.48265c0,0 -2.22082,2.71465 -4.18039,3.0929c-1.49227,0.28805 -3.48458,-1.33921 -3.80007,-1.52977c-0.71423,-0.43138 1.82843,-4.15333 1.82843,-4.15333z" data-paper-data="{&quot;index&quot;:null}" fill="#f77d83" stroke="#b53a4d" stroke-width="2.5" stroke-linecap="butt"/><path d="M250.56414,202.08033c0,4.77318 -4.73671,8.64261 -10.57975,8.64261c-5.84304,0 -10.57975,-3.86943 -10.57975,-8.64261c0,-4.77318 4.73671,-8.64261 10.57975,-8.64261c5.84304,0 10.57975,3.86943 10.57975,8.64261z" fill="#fdfad2" stroke="none" stroke-width="2.5" stroke-linecap="butt"/><path d="M257.37519,214.03976c3.18154,4.19746 6.18813,7.27618 2.61373,9.98546c-3.5744,2.70927 -5.60734,-1.10744 -8.78888,-5.3049c-3.18154,-4.19746 -6.30688,-7.18618 -2.73248,-9.89545c3.5744,-2.70927 5.72609,1.01744 8.90763,5.2149z" fill="#f77d83" stroke="#b53a4d" stroke-width="2.5" stroke-linecap="butt"/><path d="M233.19561,208.37784c3.5744,2.70927 0.44906,5.69799 -2.73248,9.89545c-3.18154,4.19746 -5.21447,8.01419 -8.78888,5.3049c-3.5744,-2.70927 -0.5678,-5.788 2.61372,-9.98546c3.18154,-4.19746 5.33323,-7.92417 8.90763,-5.2149z" data-paper-data="{&quot;index&quot;:null}" fill="#f77d83" stroke="#b53a4d" stroke-width="2.5" stroke-linecap="butt"/><path d="M222.10314,201.74302l34.57044,0.29802l0.29802,5.21537l-1.04308,3.12922l-2.8312,2.68219l-4.1723,1.3411l-10.72876,0.29802l-5.6624,-1.19208l-3.42724,-1.78813l-4.02329,-3.27823l-2.53318,-4.32131z" fill="#ffffff" stroke="#b5b5b5" stroke-width="2.5" stroke-linecap="round"/><path d="" fill="#9966ff" stroke="none" stroke-width="0.5" stroke-linecap="butt"/><g><path d="M237.20383,134.52146c0,0 0.6078,-0.71466 1.73296,-2.07264c0.93002,-1.12245 2.81195,-6.11318 3.51796,-6.21818c1.1109,-0.1652 3.22881,7.02975 3.22881,7.02975l-3.06835,8.07114z" data-paper-data="{&quot;index&quot;:null}" fill="#f77d83" stroke="#b53a4d" stroke-width="2.5" stroke-linecap="round"/><path d="M218.53406,144.81281l-3.06835,-8.07114c0,0 2.1179,-7.19496 3.2288,-7.02975c0.706,0.105 2.58794,5.09574 3.51796,6.21819c1.12516,1.35797 1.73297,2.07263 1.73297,2.07263z" fill="#f77d83" stroke="#b53a4d" stroke-width="2.5" stroke-linecap="round"/><path d="M255.6312,158.64053c0,3.2514 17.61763,3.06673 16.85767,5.97906c-1.37218,5.2585 -0.52359,13.06023 -7.98031,17.20155c-8.47476,4.70671 -25.5471,5.41759 -30.61983,5.41759c-12.00804,0 -21.74247,-12.80386 -21.74247,-28.59821c0,-15.79435 9.73444,-28.5982 21.74247,-28.5982c12.00804,0 21.74247,12.80385 21.74247,28.5982z" fill="#f77d83" stroke="#b53a4d" stroke-width="2.5" stroke-linecap="butt"/><path d="M255.32308,159.00293c0,3.17233 17.1892,2.99215 16.44772,5.83366c-1.33882,5.13063 -0.51085,12.74263 -7.78625,16.78324c-8.26867,4.59225 -24.92585,5.28585 -29.87521,5.28585c-8.83568,0 -16.40969,-7.10507 -19.59975,-17.20838c-1.03993,-3.29359 -1.61398,-6.90581 -1.61398,-10.69437c0,-3.74536 8.52227,-1.4693 9.53982,-4.73249c3.16916,-10.1632 0.93694,-20.81439 9.80546,-20.81439c1.03912,0 1.48316,4.24282 1.97602,6.68926c0.37794,1.87602 2.24686,4.25323 2.97257,4.5006c0.4581,0.15615 3.97079,-1.26548 4.6126,-1.97089c1.67581,-1.84187 1.84901,-8.85889 2.89677,-8.0979c6.43297,4.67231 10.62422,13.81949 10.62422,24.42579z" fill="#fdfad2" stroke="#799794" stroke-width="0" stroke-linecap="butt"/></g><path d="M272.34497,163.37324c-0.06149,0.42509 0.15386,1.14342 0.37934,1.58293c0.59668,1.16302 0.58261,3.05258 0.51842,4.28791c-0.06886,1.32513 0.08079,3.11694 -0.71033,4.5015c-0.36216,0.63384 -2.00776,0.83837 -2.03575,1.48355c-1.36813,0.14467 -2.5916,0.26942 -3.77959,0.22724c0.00512,-0.09925 0.01028,-0.19615 0.01583,-0.29015c0.247,-4.17904 -0.14156,-8.2039 -0.06319,-12.39322c0.00827,-0.44199 0.0385,-0.88387 0.06934,-1.32498c2.87144,0.57355 5.81459,0.48305 5.60594,1.92523z" fill="#3b3324" stroke="#0e0c09" stroke-width="2.5" stroke-linecap="butt"/><path d="M251.54799,146.15241c0,2.45625 -2.01809,4.44744 -4.50754,4.44744c-2.48944,0 -4.50754,-1.99118 -4.50754,-4.44744c0,-2.45625 2.01809,-4.44744 4.50754,-4.44744c2.48944,0 4.50754,1.99119 4.50754,4.44744z" fill="#ffffff" stroke="#b53a4d" stroke-width="2.5" stroke-linecap="butt"/><path d="M235.14604,147.04757c0,2.45625 -2.0181,4.44744 -4.50754,4.44744c-2.48944,0 -4.50754,-1.99118 -4.50754,-4.44744c0,-2.45625 2.0181,-4.44744 4.50754,-4.44744c2.48944,0 4.50754,1.99119 4.50754,4.44744z" fill="#ffffff" stroke="#b53a4d" stroke-width="2.5" stroke-linecap="butt"/><path d="M248.66037,165.47699c0.68862,0.34431 0.34431,1.03293 0.34431,1.03293l-0.39037,0.76744c-1.10415,1.65434 -2.07385,3.65334 -3.96325,4.60536c-1.05823,0.53321 -2.58856,0.34023 -3.69988,0.1439c-2.38425,-0.42122 -5.19831,-1.17914 -6.99918,-2.93221c-0.06264,-0.06098 -1.14664,-1.80421 -1.23786,-1.95017c0,0 -0.40804,-0.65288 0.24483,-1.06092c0.65287,-0.40805 1.06091,0.24483 1.06091,0.24483c0.35271,0.56434 0.56597,1.23895 1.04444,1.7015c1.55872,1.50686 4.10444,2.11377 6.14741,2.47939c0.75295,0.13475 2.0511,0.37094 2.78129,-0.01842c1.58057,-0.8428 2.40638,-2.66528 3.3401,-4.06737l0.29433,-0.60194c0,0 0.34431,-0.68861 1.03293,-0.34431z" fill="#b54865" stroke="none" stroke-width="2.5" stroke-linecap="butt"/><path d="M231.03904,166.3836c0,4.01177 -3.16185,7.26395 -7.06218,7.26395c-3.90034,0 -7.06218,-3.25218 -7.06218,-7.26395c0,-4.01177 3.16185,-7.26396 7.06218,-7.26396c3.90034,0 7.06218,3.25219 7.06218,7.26396z" fill="#ffbab2" stroke="#e29384" stroke-width="0" stroke-linecap="butt"/><path d="M232.26334,146.26255c0,1.33201 -1.11156,2.41181 -2.48274,2.41181c-1.37118,0 -2.48274,-1.07981 -2.48274,-2.41181c0,-1.33201 1.11156,-2.41181 2.48274,-2.41181c1.37118,0 2.48274,1.07981 2.48274,2.41181z" fill="#000000" stroke="none" stroke-width="0" stroke-linecap="butt"/><path d="M248.52073,145.54794c0,1.33201 -1.11156,2.41181 -2.48275,2.41181c-1.37119,0 -2.48275,-1.07981 -2.48275,-2.41181c0,-1.33201 1.11156,-2.41181 2.48275,-2.41181c1.37119,0 2.48275,1.07981 2.48275,2.41181z" fill="#000000" stroke="none" stroke-width="0" stroke-linecap="butt"/></g></g></svg>