<svg version="1.1" xmlns="http://www.w3.org/2000/svg" xmlns:xlink="http://www.w3.org/1999/xlink" width="76.12758" height="102.04152" viewBox="0,0,76.12758,102.04152"><g transform="translate(-198.56347,-124.98065)"><g data-paper-data="{&quot;isPaintingLayer&quot;:true}" fill-rule="nonzero" stroke-linejoin="miter" stroke-miterlimit="10" stroke-dasharray="" stroke-dashoffset="0" style="mix-blend-mode: normal"><path d="M206.64859,188.93024c0.00966,-0.38083 -0.29848,-3.02172 0.78304,-4.16097c1.4202,-1.49601 5.02056,-1.919 5.02056,-1.919l10.56421,1.67085c0,0 2.39991,0.16714 3.32884,1.21359c0.80839,0.91064 0.16348,2.68548 0.15339,3.08293c-0.02254,0.88802 -3.615,0.93392 -3.615,0.93392l-11.60016,-0.10173c0,0 -4.65676,0.14257 -4.63488,-0.71958z" data-paper-data="{&quot;index&quot;:null}" fill="#f77d83" stroke="#b53a4d" stroke-width="2.5" stroke-linecap="butt"/><path d="M225.16579,204.58042c1.1525,3.34478 -1.63349,7.33813 -6.22269,8.91941c-4.58919,1.58128 -9.24375,0.15168 -10.39624,-3.19309c-1.1525,-3.34478 3.73965,-2.17229 8.32884,-3.75357c4.58919,-1.58128 7.1376,-5.31752 8.2901,-1.97275z" fill="#f77d83" stroke="#b53a4d" stroke-width="2.5" stroke-linecap="butt"/><path d="M214.14172,213.27192c-0.40275,0.06359 -1.13282,-0.05781 -1.51999,-0.09528c-1.38722,-0.13426 -2.77734,-1.39869 -3.1047,-2.43672c-0.16969,-0.53806 -0.80177,-0.94252 -0.51297,-1.40865c0.42385,-0.68412 1.99906,-1.34977 3.09684,-1.5231c1.38176,-0.21817 0.0746,0.64739 -0.02487,1.58979c-0.03341,0.31645 1.70633,0.38077 1.81159,0.71454c0.14709,0.46641 -1.23536,1.11058 -0.93882,1.43735c0.54763,0.60345 2.39029,1.53303 1.19291,1.72208z" fill="#fdfad2" stroke="none" stroke-width="2.5" stroke-linecap="butt"/><path d="M254.7583,194.2625c0,4.35557 1.0948,9.10481 -0.79387,11.02205c-2.92138,2.96562 -9.97824,1.72919 -15.9914,1.72919c-6.88519,0 -14.33989,1.97021 -17.67926,-2.24913c-1.46251,-1.84791 -1.38883,-7.12357 -1.38883,-10.50211c0,-11.0928 8.02604,-20.08529 17.92668,-20.08529c9.90064,0 17.92668,8.99249 17.92668,20.08529z" fill="#f77d83" stroke="#b53a4d" stroke-width="2.5" stroke-linecap="butt"/><path d="M204.4951,187.97708l11.49896,1.53237c0,0 3.55022,0.5512 3.44752,1.43354c-0.04596,0.39491 0.34267,2.24285 -0.58588,3.03063c-1.067,0.90525 -3.46653,0.73286 -3.46653,0.73286l-10.69423,0.16698c0,0 -3.50496,-0.92565 -4.7004,-2.6067c-0.91037,-1.28018 -0.23349,-3.85136 -0.18945,-4.22977c0.09971,-0.85664 4.69002,-0.05991 4.69002,-0.05991z" data-paper-data="{&quot;index&quot;:null}" fill="#f77d83" stroke="#b53a4d" stroke-width="2.5" stroke-linecap="butt"/><path d="M248.48335,202.15106c0,4.93349 -4.89581,8.93288 -10.93508,8.93288c-6.03927,0 -10.93508,-3.99938 -10.93508,-8.93288c0,-4.93349 4.8958,-8.93289 10.93508,-8.93289c6.03927,0 10.93508,3.99939 10.93508,8.93289z" fill="#fdfad2" stroke="none" stroke-width="2.5" stroke-linecap="butt"/><path d="M255.52316,214.51217c3.28839,4.33844 6.39597,7.52056 2.70152,10.32084c-3.69445,2.80027 -5.79568,-1.14465 -9.08407,-5.48308c-3.28839,-4.33844 -6.51871,-7.42753 -2.82426,-10.2278c3.69445,-2.80027 5.91841,1.05161 9.20681,5.39004z" fill="#f77d83" stroke="#b53a4d" stroke-width="2.5" stroke-linecap="butt"/><path d="M230.53147,208.66007c3.69445,2.80027 0.46414,5.88937 -2.82425,10.22781c-3.28839,4.33844 -5.38961,8.28335 -9.08406,5.48308c-3.69445,-2.80027 -0.58688,-5.98239 2.70152,-10.32084c3.28839,-4.33844 5.51236,-8.19032 9.20681,-5.39004z" data-paper-data="{&quot;index&quot;:null}" fill="#f77d83" stroke="#b53a4d" stroke-width="2.5" stroke-linecap="butt"/><path d="M219.06644,201.80241l35.73153,0.30803l0.30804,5.39053l-1.07811,3.23431l-2.92629,2.77228l-4.31243,1.38614l-11.0891,0.30804l-5.85258,-1.23213l-3.54235,-1.84818l-4.15841,-3.38833l-2.61827,-4.46644z" fill="#ffffff" stroke="#b5b5b5" stroke-width="2.5" stroke-linecap="round"/><path d="M237.20385,134.52146c0,0 0.6078,-0.71466 1.73296,-2.07263c0.93001,-1.12244 2.81195,-6.11318 3.51796,-6.21818c1.1109,-0.16521 3.22881,7.02975 3.22881,7.02975l-3.06835,8.07114z" data-paper-data="{&quot;index&quot;:null}" fill="#f77d83" stroke="#b53a4d" stroke-width="2.5" stroke-linecap="round"/><path d="M218.53407,144.81281l-3.06834,-8.07115c0,0 2.1179,-7.19496 3.2288,-7.02976c0.706,0.105 2.58795,5.09574 3.51796,6.21819c1.12516,1.35798 1.73296,2.07263 1.73296,2.07263z" fill="#f77d83" stroke="#b53a4d" stroke-width="2.5" stroke-linecap="round"/><path d="M255.63121,158.64053c0,3.2514 17.61763,3.06673 16.85767,5.97906c-1.37218,5.2585 -0.52359,13.06023 -7.98031,17.20155c-8.47476,4.70671 -25.5471,5.41759 -30.61982,5.41759c-12.00804,0 -21.74247,-12.80386 -21.74247,-28.59821c0,-15.79435 9.73444,-28.5982 21.74247,-28.5982c12.00804,0 21.74248,12.80385 21.74248,28.5982z" fill="#f77d83" stroke="#b53a4d" stroke-width="2.5" stroke-linecap="butt"/><path d="M255.32309,159.00294c0,3.17233 17.18921,2.99215 16.44772,5.83366c-1.33882,5.13063 -0.51085,12.74263 -7.78625,16.78324c-8.26867,4.59225 -24.92585,5.28585 -29.87521,5.28585c-8.83568,0 -16.40969,-7.10507 -19.59975,-17.20838c-1.03993,-3.29359 -1.61398,-6.9058 -1.61398,-10.69437c0,-3.74536 8.52227,-1.4693 9.53982,-4.73249c3.16916,-10.1632 0.93694,-20.81439 9.80546,-20.81439c1.03912,0 1.48316,4.24283 1.97602,6.68926c0.37795,1.87602 2.24687,4.25323 2.97258,4.5006c0.4581,0.15615 3.97079,-1.26548 4.61259,-1.97089c1.67581,-1.84187 1.84901,-8.85889 2.89677,-8.0979c6.43297,4.67231 10.62422,13.81948 10.62422,24.42579z" fill="#fdfad2" stroke="#799794" stroke-width="0" stroke-linecap="butt"/><path d="M272.34497,163.37325c-0.06149,0.42508 0.15386,1.14342 0.37935,1.58292c0.59668,1.16302 0.58262,3.05258 0.51842,4.28791c-0.06886,1.32513 0.0808,3.11694 -0.71033,4.5015c-0.36217,0.63384 -2.00777,0.83837 -2.03576,1.48355c-1.36813,0.14468 -2.5916,0.26941 -3.77959,0.22724c0.00513,-0.09924 0.01027,-0.19615 0.01583,-0.29014c0.247,-4.17905 -0.14157,-8.2039 -0.0632,-12.39322c0.00827,-0.44199 0.0385,-0.88387 0.06934,-1.32498c2.87144,0.57354 5.81458,0.48305 5.60593,1.92524z" fill="#3b3324" stroke="#0e0c09" stroke-width="2.5" stroke-linecap="butt"/><path d="M251.548,146.15241c0,2.45624 -2.01809,4.44743 -4.50754,4.44743c-2.48944,0 -4.50753,-1.99118 -4.50753,-4.44743c0,-2.45624 2.01809,-4.44744 4.50753,-4.44744c2.48944,0 4.50754,1.99119 4.50754,4.44744z" fill="#ffffff" stroke="#b53a4d" stroke-width="2.5" stroke-linecap="butt"/><path d="M235.14605,147.04757c0,2.45624 -2.0181,4.44744 -4.50754,4.44744c-2.48944,0 -4.50753,-1.99119 -4.50753,-4.44744c0,-2.45624 2.0181,-4.44743 4.50754,-4.44743c2.48944,0 4.50753,1.99119 4.50753,4.44744z" fill="#ffffff" stroke="#b53a4d" stroke-width="2.5" stroke-linecap="butt"/><path d="M248.66039,165.47699c0.68862,0.3443 0.34431,1.03293 0.34431,1.03293l-0.39037,0.76744c-1.10414,1.65434 -2.07385,3.65334 -3.96325,4.60536c-1.05823,0.53322 -2.58856,0.34023 -3.69988,0.1439c-2.38425,-0.42122 -5.1983,-1.17914 -6.99917,-2.93221c-0.06265,-0.06098 -1.14664,-1.80421 -1.23786,-1.95016c0,0 -0.40804,-0.65288 0.24483,-1.06092c0.65287,-0.40805 1.06091,0.24482 1.06091,0.24482c0.35271,0.56434 0.56597,1.23895 1.04444,1.7015c1.55872,1.50687 4.10444,2.11377 6.14741,2.47939c0.75295,0.13476 2.0511,0.37094 2.78128,-0.01841c1.58057,-0.8428 2.40637,-2.66528 3.34009,-4.06737l0.29433,-0.60194c0,0 0.34431,-0.68861 1.03293,-0.3443z" fill="#b54865" stroke="none" stroke-width="2.5" stroke-linecap="butt"/><path d="M231.03905,166.3836c0,4.01178 -3.16184,7.26396 -7.06218,7.26396c-3.90034,0 -7.06217,-3.25218 -7.06217,-7.26396c0,-4.01176 3.16184,-7.26396 7.06217,-7.26396c3.90034,0 7.06219,3.25218 7.06219,7.26396z" fill="#ffbab2" stroke="#e29384" stroke-width="0" stroke-linecap="butt"/><path d="M234.11954,146.88128c0,1.33201 -1.11156,2.41181 -2.48274,2.41181c-1.37118,0 -2.48274,-1.0798 -2.48274,-2.41181c0,-1.33201 1.11156,-2.41181 2.48274,-2.41181c1.37118,0 2.48274,1.07981 2.48274,2.41181z" fill="#000000" stroke="none" stroke-width="0" stroke-linecap="butt"/><path d="M250.68629,146.16667c0,1.33201 -1.11156,2.41181 -2.48275,2.41181c-1.37119,0 -2.48275,-1.0798 -2.48275,-2.41181c0,-1.33201 1.11156,-2.41181 2.48275,-2.41181c1.37119,0 2.48275,1.07981 2.48275,2.41181z" fill="#000000" stroke="none" stroke-width="0" stroke-linecap="butt"/></g></g></svg>