<svg version="1.1" xmlns="http://www.w3.org/2000/svg" xmlns:xlink="http://www.w3.org/1999/xlink" width="64.58365" height="101.70819" viewBox="0,0,64.58365,101.70819"><g transform="translate(-210.10741,-124.98065)"><g data-paper-data="{&quot;isPaintingLayer&quot;:true}" fill-rule="nonzero" stroke-linejoin="miter" stroke-miterlimit="10" stroke-dasharray="" stroke-dashoffset="0" style="mix-blend-mode: normal"><path d="M268.6821,201.77719c-0.32187,0.19441 -2.35449,1.85459 -3.87695,1.56071c-1.99921,-0.3859 -4.26496,-3.15547 -4.26496,-3.15547l-4.22627,-9.6745c0,0 -1.13678,-2.08486 -0.76027,-3.41374c0.32765,-1.15644 2.14661,-1.56356 2.48253,-1.76645c0.75055,-0.45333 2.69847,2.51013 2.69847,2.51013l6.08202,9.70195c0,0 2.5941,3.79724 1.86542,4.23736z" data-paper-data="{&quot;index&quot;:null}" fill="#f77d83" stroke="#b53a4d" stroke-width="2.5" stroke-linecap="butt"/><path d="M227.7616,204.52091c1.13761,3.30156 -1.61238,7.24331 -6.14228,8.80416c-4.5299,1.56085 -9.12431,0.14972 -10.26191,-3.15183c-1.13761,-3.30156 3.69133,-2.14422 8.22122,-3.70507c4.5299,-1.56085 7.04538,-5.24882 8.18298,-1.94726z" fill="#f77d83" stroke="#b53a4d" stroke-width="2.5" stroke-linecap="butt"/><path d="M216.87998,213.1001c-0.39755,0.06277 -1.11818,-0.05707 -1.50035,-0.09405c-1.3693,-0.13252 -2.74145,-1.38062 -3.06458,-2.40523c-0.1675,-0.53111 -0.79141,-0.93034 -0.50634,-1.39045c0.41837,-0.67528 1.97323,-1.33233 3.05683,-1.50342c1.36391,-0.21535 0.07363,0.63902 -0.02455,1.56924c-0.03298,0.31236 1.68428,0.37585 1.78818,0.70531c0.14519,0.46039 -1.2194,1.09623 -0.92669,1.41878c0.54055,0.59566 2.35941,1.51323 1.1775,1.69983z" fill="#fdfad2" stroke="none" stroke-width="2.5" stroke-linecap="butt"/><path d="M256.97175,194.33631c0,4.29929 1.08065,8.98716 -0.78361,10.87964c-2.88363,2.9273 -9.84931,1.70685 -15.78477,1.70685c-6.79622,0 -14.1546,1.94475 -17.45083,-2.22007c-1.44362,-1.82403 -1.37089,-7.03153 -1.37089,-10.36641c0,-10.94946 7.92234,-19.82576 17.69504,-19.82576c9.77271,0 17.69505,8.8763 17.69505,19.82576z" fill="#f77d83" stroke="#b53a4d" stroke-width="2.5" stroke-linecap="butt"/><path d="M214.29656,196.62768l6.08202,-9.70196c0,0 1.94793,-2.96345 2.69847,-2.51013c0.33592,0.20288 2.15489,0.61001 2.48253,1.76645c0.37651,1.32888 -0.76027,3.41374 -0.76027,3.41374l-4.22626,9.6745c0,0 -2.26575,2.76957 -4.26497,3.15547c-1.52246,0.29388 -3.55507,-1.36631 -3.87695,-1.56071c-0.72868,-0.44012 1.86542,-4.23736 1.86542,-4.23736z" data-paper-data="{&quot;index&quot;:null}" fill="#f77d83" stroke="#b53a4d" stroke-width="2.5" stroke-linecap="butt"/><path d="M250.77787,202.12294c0,4.86975 -4.83255,8.81746 -10.79379,8.81746c-5.96124,0 -10.79378,-3.9477 -10.79378,-8.81745c0,-4.86975 4.83254,-8.81747 10.79378,-8.81747c5.96124,0 10.79379,3.94771 10.79379,8.81747z" fill="#fdfad2" stroke="none" stroke-width="2.5" stroke-linecap="butt"/><path d="M257.72672,214.32432c3.2459,4.28238 6.31333,7.42339 2.66661,10.18748c-3.64671,2.76409 -5.72079,-1.12986 -8.96669,-5.41223c-3.2459,-4.28238 -6.43448,-7.33155 -2.78777,-10.09564c3.64671,-2.76409 5.84194,1.03802 9.08784,5.3204z" fill="#f77d83" stroke="#b53a4d" stroke-width="2.5" stroke-linecap="butt"/><path d="M233.05795,208.54784c3.64671,2.76409 0.45814,5.81327 -2.78776,10.09565c-3.2459,4.28238 -5.31997,8.17632 -8.96668,5.41224c-3.64671,-2.76409 -0.57929,-5.90509 2.66661,-10.18748c3.2459,-4.28238 5.44113,-8.08449 9.08784,-5.3204z" data-paper-data="{&quot;index&quot;:null}" fill="#f77d83" stroke="#b53a4d" stroke-width="2.5" stroke-linecap="butt"/><path d="M221.74106,201.77879l35.26984,0.30405l0.30406,5.32088l-1.06418,3.19252l-2.88848,2.73645l-4.25671,1.36823l-10.94582,0.30406l-5.77696,-1.21621l-3.49658,-1.8243l-4.10468,-3.34455l-2.58443,-4.40873z" fill="#ffffff" stroke="#b5b5b5" stroke-width="2.5" stroke-linecap="round"/><path d="M237.20385,134.52146c0,0 0.6078,-0.71466 1.73296,-2.07263c0.93001,-1.12244 2.81195,-6.11318 3.51796,-6.21818c1.1109,-0.16521 3.22881,7.02975 3.22881,7.02975l-3.06835,8.07114z" data-paper-data="{&quot;index&quot;:null}" fill="#f77d83" stroke="#b53a4d" stroke-width="2.5" stroke-linecap="round"/><path d="M218.53407,144.81281l-3.06834,-8.07115c0,0 2.1179,-7.19496 3.2288,-7.02976c0.706,0.105 2.58795,5.09574 3.51796,6.21819c1.12516,1.35798 1.73296,2.07263 1.73296,2.07263z" fill="#f77d83" stroke="#b53a4d" stroke-width="2.5" stroke-linecap="round"/><path d="M255.63121,158.64053c0,3.2514 17.61763,3.06673 16.85767,5.97906c-1.37218,5.2585 -0.52359,13.06023 -7.98031,17.20155c-8.47476,4.70671 -25.5471,5.41759 -30.61982,5.41759c-12.00804,0 -21.74247,-12.80386 -21.74247,-28.59821c0,-15.79435 9.73444,-28.5982 21.74247,-28.5982c12.00804,0 21.74248,12.80385 21.74248,28.5982z" fill="#f77d83" stroke="#b53a4d" stroke-width="2.5" stroke-linecap="butt"/><path d="M255.32309,159.00294c0,3.17233 17.18921,2.99215 16.44772,5.83366c-1.33882,5.13063 -0.51085,12.74263 -7.78625,16.78324c-8.26867,4.59225 -24.92585,5.28585 -29.87521,5.28585c-8.83568,0 -16.40969,-7.10507 -19.59975,-17.20838c-1.03993,-3.29359 -1.61398,-6.9058 -1.61398,-10.69437c0,-3.74536 8.52227,-1.4693 9.53982,-4.73249c3.16916,-10.1632 0.93694,-20.81439 9.80546,-20.81439c1.03912,0 1.48316,4.24283 1.97602,6.68926c0.37795,1.87602 2.24687,4.25323 2.97258,4.5006c0.4581,0.15615 3.97079,-1.26548 4.61259,-1.97089c1.67581,-1.84187 1.84901,-8.85889 2.89677,-8.0979c6.43297,4.67231 10.62422,13.81948 10.62422,24.42579z" fill="#fdfad2" stroke="#799794" stroke-width="0" stroke-linecap="butt"/><path d="M272.34497,163.37325c-0.06149,0.42508 0.15386,1.14342 0.37935,1.58292c0.59668,1.16302 0.58262,3.05258 0.51842,4.28791c-0.06886,1.32513 0.0808,3.11694 -0.71033,4.5015c-0.36217,0.63384 -2.00777,0.83837 -2.03576,1.48355c-1.36813,0.14468 -2.5916,0.26941 -3.77959,0.22724c0.00513,-0.09924 0.01027,-0.19615 0.01583,-0.29014c0.247,-4.17905 -0.14157,-8.2039 -0.0632,-12.39322c0.00827,-0.44199 0.0385,-0.88387 0.06934,-1.32498c2.87144,0.57354 5.81458,0.48305 5.60593,1.92524z" fill="#3b3324" stroke="#0e0c09" stroke-width="2.5" stroke-linecap="butt"/><path d="M251.548,146.15241c0,2.45624 -2.01809,4.44743 -4.50754,4.44743c-2.48944,0 -4.50753,-1.99118 -4.50753,-4.44743c0,-2.45624 2.01809,-4.44744 4.50753,-4.44744c2.48944,0 4.50754,1.99119 4.50754,4.44744z" fill="#ffffff" stroke="#b53a4d" stroke-width="2.5" stroke-linecap="butt"/><path d="M235.14605,147.04757c0,2.45624 -2.0181,4.44744 -4.50754,4.44744c-2.48944,0 -4.50753,-1.99119 -4.50753,-4.44744c0,-2.45624 2.0181,-4.44743 4.50754,-4.44743c2.48944,0 4.50753,1.99119 4.50753,4.44744z" fill="#ffffff" stroke="#b53a4d" stroke-width="2.5" stroke-linecap="butt"/><path d="M248.66039,165.47699c0.68862,0.3443 0.34431,1.03293 0.34431,1.03293l-0.39037,0.76744c-1.10414,1.65434 -2.07385,3.65334 -3.96325,4.60536c-1.05823,0.53322 -2.58856,0.34023 -3.69988,0.1439c-2.38425,-0.42122 -5.1983,-1.17914 -6.99917,-2.93221c-0.06265,-0.06098 -1.14664,-1.80421 -1.23786,-1.95016c0,0 -0.40804,-0.65288 0.24483,-1.06092c0.65287,-0.40805 1.06091,0.24482 1.06091,0.24482c0.35271,0.56434 0.56597,1.23895 1.04444,1.7015c1.55872,1.50687 4.10444,2.11377 6.14741,2.47939c0.75295,0.13476 2.0511,0.37094 2.78128,-0.01841c1.58057,-0.8428 2.40637,-2.66528 3.34009,-4.06737l0.29433,-0.60194c0,0 0.34431,-0.68861 1.03293,-0.3443z" fill="#b54865" stroke="none" stroke-width="2.5" stroke-linecap="butt"/><path d="M231.03905,166.3836c0,4.01178 -3.16184,7.26396 -7.06218,7.26396c-3.90034,0 -7.06217,-3.25218 -7.06217,-7.26396c0,-4.01176 3.16184,-7.26396 7.06217,-7.26396c3.90034,0 7.06219,3.25218 7.06219,7.26396z" fill="#ffbab2" stroke="#e29384" stroke-width="0" stroke-linecap="butt"/><path d="M234.11953,146.26255c0,1.33201 -1.11156,2.41181 -2.48274,2.41181c-1.37118,0 -2.48274,-1.0798 -2.48274,-2.41181c0,-1.33201 1.11156,-2.41182 2.48274,-2.41182c1.37118,0 2.48274,1.07981 2.48274,2.41182z" fill="#000000" stroke="none" stroke-width="0" stroke-linecap="butt"/><path d="M250.99565,145.54794c0,1.33201 -1.11156,2.41181 -2.48275,2.41181c-1.37119,0 -2.48275,-1.0798 -2.48275,-2.41181c0,-1.33201 1.11156,-2.41181 2.48275,-2.41181c1.37119,0 2.48275,1.07981 2.48275,2.41181z" fill="#000000" stroke="none" stroke-width="0" stroke-linecap="butt"/></g></g></svg>