<svg version="1.1" xmlns="http://www.w3.org/2000/svg" xmlns:xlink="http://www.w3.org/1999/xlink" width="63.79479" height="100.94551" viewBox="0,0,63.79479,100.94551"><g transform="translate(-208.65656,-125.50005)"><g data-paper-data="{&quot;isPaintingLayer&quot;:true}" fill-rule="nonzero" stroke-linejoin="miter" stroke-miterlimit="10" stroke-dasharray="" stroke-dashoffset="0" style="mix-blend-mode: normal"><path d="M263.56468,177.26866c0.28753,0.22555 2.4963,1.50088 2.75362,2.98563c0.33789,1.94969 -1.39858,4.9626 -1.39858,4.9626l-7.33608,7.17274c0,0 -1.50307,1.75112 -2.84038,1.86667c-1.16377,0.10056 -2.16024,-1.41221 -2.4603,-1.64759c-0.67046,-0.52593 1.35167,-3.31679 1.35167,-3.31679l6.72186,-8.86861c0,0 2.55728,-3.66525 3.2082,-3.15464z" data-paper-data="{&quot;index&quot;:null}" fill="#f77d83" stroke="#b53a4d" stroke-width="2.5" stroke-linecap="butt"/><path d="M225.9597,204.86688c1.10557,3.20855 -1.56697,7.03927 -5.96925,8.55616c-4.40229,1.51688 -8.86728,0.14551 -9.97284,-3.06304c-1.10557,-3.20855 3.58734,-2.08382 7.98963,-3.6007c4.40229,-1.51688 6.84692,-5.10096 7.95247,-1.8924z" fill="#f77d83" stroke="#b53a4d" stroke-width="2.5" stroke-linecap="butt"/><path d="M215.38461,213.2044c-0.38635,0.061 -1.08668,-0.05546 -1.45808,-0.0914c-1.33072,-0.12879 -2.66422,-1.34173 -2.97826,-2.33747c-0.16277,-0.51615 -0.76912,-0.90413 -0.49207,-1.35128c0.40659,-0.65626 1.91765,-1.2948 2.97072,-1.46108c1.32549,-0.20928 0.07156,0.62102 -0.02386,1.52504c-0.03205,0.30356 1.63684,0.36526 1.73782,0.68544c0.14111,0.44741 -1.18505,1.06536 -0.90058,1.37881c0.52532,0.57887 2.29295,1.4706 1.14433,1.65195z" fill="#fdfad2" stroke="none" stroke-width="2.5" stroke-linecap="butt"/><path d="M254.34702,194.96916c0,4.17819 1.05021,8.73401 -0.76153,10.57316c-2.8024,2.84484 -9.57186,1.65877 -15.34013,1.65877c-6.60478,0 -13.75588,1.88997 -16.95924,-2.15753c-1.40295,-1.77265 -1.33227,-6.83346 -1.33227,-10.0744c0,-10.64103 7.69917,-19.26728 17.19659,-19.26728c9.49741,0 17.1966,8.62625 17.1966,19.26728z" fill="#f77d83" stroke="#b53a4d" stroke-width="2.5" stroke-linecap="butt"/><path d="M216.57574,179.07448l5.34781,9.75894c0,0 1.59073,3.05736 0.85037,3.47922c-0.33137,0.18881 -1.53901,1.53899 -2.67544,1.26875c-1.30588,-0.31051 -2.53574,-2.26322 -2.53574,-2.26322l-6.20422,-8.17154c0,0 -1.27559,-3.23509 -0.65528,-5.11411c0.47239,-1.43093 2.84438,-2.36837 3.1619,-2.54928c0.71881,-0.40957 2.7106,3.59124 2.7106,3.59124z" data-paper-data="{&quot;index&quot;:null}" fill="#f77d83" stroke="#b53a4d" stroke-width="2.5" stroke-linecap="butt"/><path d="M248.32762,202.53645c0,4.73257 -4.69643,8.56908 -10.48974,8.56908c-5.79331,0 -10.48973,-3.8365 -10.48973,-8.56908c0,-4.73257 4.69641,-8.56909 10.48973,-8.56909c5.79331,0 10.48974,3.8365 10.48974,8.56909z" fill="#fdfad2" stroke="none" stroke-width="2.5" stroke-linecap="butt"/><path d="M255.08073,214.39413c3.15447,4.16175 6.13549,7.21427 2.59149,9.90051c-3.54399,2.68623 -5.55964,-1.09803 -8.71411,-5.25977c-3.15447,-4.16175 -6.25323,-7.12503 -2.70924,-9.81125c3.54399,-2.68623 5.67738,1.00877 8.83185,5.17052z" fill="#f77d83" stroke="#b53a4d" stroke-width="2.5" stroke-linecap="butt"/><path d="M231.10685,208.78038c3.54399,2.68623 0.44523,5.64952 -2.70922,9.81127c-3.15447,4.16175 -5.17011,7.946 -8.7141,5.25978c-3.54399,-2.68623 -0.56297,-5.73875 2.59149,-9.90051c3.15447,-4.16175 5.28786,-7.85675 8.83185,-5.17052z" data-paper-data="{&quot;index&quot;:null}" fill="#f77d83" stroke="#b53a4d" stroke-width="2.5" stroke-linecap="butt"/><path d="M220.10876,202.20201l34.27632,0.29548l0.29548,5.17099l-1.03419,3.10259l-2.80712,2.65937l-4.1368,1.32969l-10.63749,0.29549l-5.61422,-1.18195l-3.39809,-1.77292l-3.98905,-3.25034l-2.51163,-4.28454z" fill="#ffffff" stroke="#b5b5b5" stroke-width="2.5" stroke-linecap="round"/><path d="M234.96413,135.04086c0,0 0.6078,-0.71466 1.73296,-2.07263c0.93001,-1.12244 2.81195,-6.11318 3.51796,-6.21818c1.1109,-0.16521 3.22881,7.02975 3.22881,7.02975l-3.06835,8.07114z" data-paper-data="{&quot;index&quot;:null}" fill="#f77d83" stroke="#b53a4d" stroke-width="2.5" stroke-linecap="round"/><path d="M216.29435,145.33222l-3.06834,-8.07115c0,0 2.1179,-7.19496 3.2288,-7.02976c0.706,0.105 2.58795,5.09574 3.51796,6.21819c1.12516,1.35798 1.73296,2.07263 1.73296,2.07263z" fill="#f77d83" stroke="#b53a4d" stroke-width="2.5" stroke-linecap="round"/><path d="M253.39149,159.15993c0,3.2514 17.61763,3.06673 16.85767,5.97906c-1.37218,5.2585 -0.52359,13.06023 -7.98031,17.20155c-8.47476,4.70671 -25.5471,5.41759 -30.61982,5.41759c-12.00804,0 -21.74247,-12.80386 -21.74247,-28.59821c0,-15.79435 9.73444,-28.5982 21.74247,-28.5982c12.00804,0 21.74248,12.80385 21.74248,28.5982z" fill="#f77d83" stroke="#b53a4d" stroke-width="2.5" stroke-linecap="butt"/><path d="M253.08337,159.52234c0,3.17233 17.1892,2.99215 16.44772,5.83366c-1.33881,5.13063 -0.51085,12.74263 -7.78625,16.78324c-8.26867,4.59225 -24.92585,5.28585 -29.87521,5.28585c-8.83568,0 -16.40969,-7.10507 -19.59975,-17.20838c-1.03993,-3.29359 -1.61398,-6.9058 -1.61398,-10.69437c0,-3.74536 8.52227,-1.4693 9.53982,-4.73249c3.16916,-10.1632 0.93694,-20.81439 9.80546,-20.81439c1.03912,0 1.48316,4.24283 1.97602,6.68926c0.37795,1.87602 2.24687,4.25323 2.97258,4.5006c0.4581,0.15615 3.97079,-1.26548 4.61259,-1.97089c1.67581,-1.84187 1.84901,-8.85889 2.89677,-8.0979c6.43297,4.67231 10.62422,13.81948 10.62422,24.42579z" fill="#fdfad2" stroke="#799794" stroke-width="0" stroke-linecap="butt"/><path d="M270.10527,163.89265c-0.06149,0.42508 0.15386,1.14342 0.37935,1.58292c0.59668,1.16302 0.58262,3.05258 0.51842,4.28791c-0.06886,1.32513 0.0808,3.11694 -0.71033,4.5015c-0.36217,0.63384 -2.00777,0.83837 -2.03576,1.48355c-1.36813,0.14468 -2.5916,0.26941 -3.77959,0.22724c0.00513,-0.09924 0.01027,-0.19615 0.01583,-0.29014c0.247,-4.17905 -0.14157,-8.2039 -0.0632,-12.39322c0.00827,-0.44199 0.0385,-0.88387 0.06934,-1.32498c2.87144,0.57354 5.81458,0.48305 5.60593,1.92524z" fill="#3b3324" stroke="#0e0c09" stroke-width="2.5" stroke-linecap="butt"/><path d="M249.30828,146.67182c0,2.45624 -2.01809,4.44743 -4.50754,4.44743c-2.48944,0 -4.50753,-1.99118 -4.50753,-4.44743c0,-2.45624 2.01809,-4.44744 4.50753,-4.44744c2.48944,0 4.50754,1.99119 4.50754,4.44744z" fill="#ffffff" stroke="#b53a4d" stroke-width="2.5" stroke-linecap="butt"/><path d="M232.90633,147.56697c0,2.45624 -2.0181,4.44744 -4.50754,4.44744c-2.48944,0 -4.50753,-1.99118 -4.50753,-4.44744c0,-2.45624 2.0181,-4.44743 4.50754,-4.44743c2.48944,0 4.50753,1.99119 4.50753,4.44744z" fill="#ffffff" stroke="#b53a4d" stroke-width="2.5" stroke-linecap="butt"/><path d="M246.42067,165.9964c0.68862,0.3443 0.34431,1.03293 0.34431,1.03293l-0.39037,0.76744c-1.10414,1.65434 -2.07385,3.65334 -3.96325,4.60536c-1.05823,0.53322 -2.58856,0.34023 -3.69988,0.1439c-2.38425,-0.42122 -5.1983,-1.17914 -6.99917,-2.93221c-0.06265,-0.06098 -1.14664,-1.80421 -1.23786,-1.95016c0,0 -0.40804,-0.65288 0.24483,-1.06092c0.65287,-0.40805 1.06091,0.24482 1.06091,0.24482c0.35271,0.56434 0.56597,1.23895 1.04444,1.7015c1.55872,1.50687 4.10444,2.11377 6.14741,2.47939c0.75295,0.13476 2.0511,0.37094 2.78128,-0.01841c1.58057,-0.8428 2.40637,-2.66528 3.34009,-4.06737l0.29433,-0.60194c0,0 0.34431,-0.68861 1.03293,-0.3443z" fill="#b54865" stroke="none" stroke-width="2.5" stroke-linecap="butt"/><path d="M228.79933,166.90301c0,4.01178 -3.16184,7.26396 -7.06218,7.26396c-3.90034,0 -7.06217,-3.25218 -7.06217,-7.26396c0,-4.01176 3.16184,-7.26396 7.06217,-7.26396c3.90034,0 7.06219,3.25218 7.06219,7.26396z" fill="#ffbab2" stroke="#e29384" stroke-width="0" stroke-linecap="butt"/><path d="M230.64236,149.25688c0,1.33201 -1.11156,2.41181 -2.48274,2.41181c-1.37118,0 -2.48274,-1.0798 -2.48274,-2.41181c0,-1.33201 1.11156,-2.41181 2.48274,-2.41181c1.37118,0 2.48274,1.07981 2.48274,2.41181z" fill="#000000" stroke="none" stroke-width="0" stroke-linecap="butt"/><path d="M247.20911,144.8299c0,1.33201 -1.11156,2.41181 -2.48275,2.41181c-1.37119,0 -2.48275,-1.0798 -2.48275,-2.41181c0,-1.33201 1.11156,-2.41181 2.48275,-2.41181c1.37119,0 2.48275,1.07981 2.48275,2.41181z" fill="#000000" stroke="none" stroke-width="0" stroke-linecap="butt"/></g></g></svg>