<svg version="1.1" xmlns="http://www.w3.org/2000/svg" xmlns:xlink="http://www.w3.org/1999/xlink" width="126.63623" height="174.82085" viewBox="0,0,126.63623,174.82085"><g transform="translate(-179.0524,-99.63216)"><g data-paper-data="{&quot;isPaintingLayer&quot;:true}" fill-rule="nonzero" stroke-linejoin="miter" stroke-miterlimit="10" stroke-dasharray="" stroke-dashoffset="0" style="mix-blend-mode: normal"><g stroke="#c79070" stroke-linecap="butt"><path d="M231.71017,216.92134c0,2.86156 -13.71124,11.8733 -27.76655,11.8733c-14.05532,0 -23.13223,-9.01174 -23.13223,-11.8733c0,-2.86156 10.81911,8.50339 24.87443,8.50339c14.05532,0 26.02436,-11.36495 26.02436,-8.50339z" fill="#f0a77d" stroke-width="2.5"/><path d="M181.403,217.51297c0,-2.12577 5.97056,3.59942 14.80306,6.68422c-0.01477,1.36894 0.03388,2.74027 0.06787,4.10979c-9.24781,-2.47946 -14.87092,-8.54173 -14.87092,-10.79401z" fill="#fff0cb" stroke-width="0"/></g><path d="M254.35078,111.51539l17.22894,-7.85683l-0.81068,18.96017l-17.39562,-9.55774z" fill="#f0a77d" stroke="#c79070" stroke-width="5" stroke-linecap="round"/><path d="M207.89009,122.43593l-1.21914,-18.89655l17.43359,7.49766l-15.11724,12.86185z" fill="#f0a77d" stroke="#c79070" stroke-width="5" stroke-linecap="round"/><g stroke-linecap="butt"><g stroke-width="5"><path d="M214.42349,254.41559l11.8696,-18.39232l6.93481,4.47542l-11.8696,18.39232z" fill="#f0a77d" stroke="#c79070"/><path d="M229.68896,270.4686c-2.47171,3.82999 -6.7775,-0.53009 -12.60574,-4.29139c-5.82825,-3.7613 -10.97191,-5.49948 -8.50021,-9.32947c2.47171,-3.82999 9.20015,-3.88568 15.0284,-0.12438c5.82825,3.7613 8.54926,9.91525 6.07755,13.74524z" fill="#cb0087" stroke="#73214d"/></g><path d="M225.6742,262.708c-0.50041,0.77541 -1.56534,0.97855 -2.37858,0.45372c-0.81323,-0.52483 -1.06683,-1.57888 -0.56641,-2.35429c0.50041,-0.77541 1.56534,-0.97855 2.37858,-0.45372c0.81323,0.52483 1.06682,1.57888 0.56641,2.35429z" fill="#fff49e" stroke="#ca909b" stroke-width="0"/><path d="M226.58239,266.92151c-0.50041,0.77541 -1.56534,0.97855 -2.37858,0.45372c-0.81323,-0.52483 -1.06682,-1.57888 -0.56641,-2.35428c0.50041,-0.77541 1.56534,-0.97855 2.37857,-0.45372c0.81323,0.52483 1.06683,1.57888 0.56641,2.35429z" fill="#fff49e" stroke="#ca909b" stroke-width="0"/><path d="M222.70388,264.78124c-0.50041,0.77541 -1.56534,0.97855 -2.37858,0.45372c-0.81323,-0.52483 -1.06683,-1.57888 -0.56641,-2.35429c0.50041,-0.77541 1.56534,-0.97855 2.37858,-0.45372c0.81323,0.52483 1.06682,1.57888 0.56641,2.35429z" fill="#fff49e" stroke="#ca909b" stroke-width="0"/></g><g stroke-linecap="butt"><g stroke-width="5"><path d="M254.14734,257.44372l0.1965,-21.88895l8.25322,0.07409l-0.1965,21.88895z" fill="#f0a77d" stroke="#c79070"/><path d="M276.90571,262.10376c-0.04093,4.55813 -6.01078,3.17582 -12.94706,3.11355c-6.93628,-0.06226 -12.21233,1.21908 -12.17141,-3.33904c0.04093,-4.55813 5.69705,-8.20273 12.63333,-8.14047c6.93628,0.06227 12.52607,3.80783 12.48515,8.36596z" fill="#cb0087" stroke="#73214d"/></g><path d="M269.37567,257.50827c-0.00829,0.92282 -0.79959,1.66388 -1.76743,1.6552c-0.96784,-0.00868 -1.74572,-0.76384 -1.73744,-1.68666c0.00829,-0.92282 0.79959,-1.66388 1.76744,-1.65519c0.96784,0.00868 1.74572,0.76383 1.73744,1.68666z" fill="#fff49e" stroke="#ca909b" stroke-width="0"/><path d="M272.39601,260.58334c-0.00829,0.92282 -0.79959,1.66388 -1.76743,1.6552c-0.96784,-0.00868 -1.74571,-0.76384 -1.73743,-1.68666c0.00829,-0.92282 0.79959,-1.66388 1.76743,-1.65519c0.96784,0.00868 1.74572,0.76383 1.73744,1.68666z" fill="#fff49e" stroke="#ca909b" stroke-width="0"/><path d="M267.9741,260.84844c-0.00829,0.92282 -0.79959,1.66388 -1.76744,1.65519c-0.96784,-0.00868 -1.74571,-0.76383 -1.73743,-1.68666c0.00829,-0.92282 0.79959,-1.66388 1.76743,-1.65519c0.96784,0.00868 1.74572,0.76383 1.73744,1.68666z" fill="#c79070" stroke="#ca909b" stroke-width="0"/></g><g fill="#aa297d" stroke="none" stroke-width="0" stroke-linecap="butt"><path d="M276.0834,204.94255c0,18.17659 -16.02555,37.0116 -35.23679,37.0116c-19.21124,0 -36.36617,-22.93498 -36.36617,-41.11157c0,-18.17659 18.64785,-0.93189 37.85909,-0.93189c19.21125,0 33.74388,-13.14473 33.74388,5.03186z"/><path d="M251.68871,243.35032v-11.51972h12.6491v11.51972z"/><path d="M262.98251,231.83062c0,3.74245 -4.24739,6.7763 -9.48682,6.7763c-5.23943,0 -9.48683,-3.03385 -9.48683,-6.7763c0,-3.74245 4.2474,-6.77631 9.48683,-6.77631c5.23943,0 9.48682,3.03386 9.48682,6.77631z"/><path d="M221.53265,244.36527v-11.51971h12.6491v11.51971z"/><path d="M253.04393,231.04005c0,4.55331 -7.079,8.24451 -15.81138,8.24451c-8.73238,0 -15.81138,-3.69119 -15.81138,-8.24451c0,-4.55331 7.079,-8.24451 15.81138,-8.24451c8.73238,0 15.81138,3.69119 15.81138,8.24451z"/></g><path d="M276.34648,211.12288c0,2.64614 -3.78631,3.46883 -5.35352,5.79243c-1.02722,1.52299 0.56783,4.66432 -1.02345,5.98533c-1.38771,1.15201 -5.28981,0.26705 -7.04492,1.22969c-3.16149,1.73402 -4.55614,5.08442 -8.64904,6.05265c-1.91536,0.4531 -4.64584,-3.57718 -6.71129,-3.32307c-2.38059,0.29288 -4.11797,4.83583 -6.64881,4.83583c-4.1753,0 -5.49982,-3.83292 -9.21965,-4.60304c-2.37151,-0.49098 -7.30856,2.28904 -9.41633,1.53069c-2.8368,-1.02065 -3.57832,-5.68091 -5.80734,-7.11036c-3.16065,-2.02688 -7.54021,0.53261 -9.61766,-1.16941c-1.66376,-1.36309 -1.37007,-6.85848 -1.37007,-9.22075c0,-11.36208 15.86301,-20.57287 35.43104,-20.57287c19.56803,0 35.43104,9.21079 35.43104,20.57287z" fill="#fcfe6d" stroke="#e7e658" stroke-width="5" stroke-linecap="butt"/><path d="M275.83313,194.66521c0,21.95172 -13.6241,25.23364 -33.21662,25.23364c-19.59252,0 -37.73416,-3.28193 -37.73416,-25.23364c0,-21.95172 15.88287,-39.74708 35.47538,-39.74708c19.59252,0 35.47539,17.79537 35.47539,39.74708z" fill="#fcfe6d" stroke="#e7e658" stroke-width="5" stroke-linecap="butt"/><g stroke-width="5" stroke-linecap="butt"><path d="M188.87586,194.79299l13.54454,-12.63354l5.23829,5.61603l-13.54453,12.63354z" data-paper-data="{&quot;index&quot;:null}" fill="#f0a77d" stroke="#c79070"/><path d="M200.74932,179.95392c3.96518,-3.94363 9.31902,-4.98948 11.9581,-2.33596c2.63908,2.65351 1.56408,8.00156 -2.40111,11.94519c-3.96518,3.94363 -5.02602,1.03839 -7.6651,-1.61513c-2.63908,-2.65351 -5.85707,-4.05047 -1.89188,-7.9941z" data-paper-data="{&quot;index&quot;:null}" fill="#fcfe6d" stroke="#e7e658"/><path d="M196.00853,199.18992c0,4.11669 -3.23611,7.45393 -7.22806,7.45393c-3.99194,0 -7.22806,-3.33724 -7.22806,-7.45393c0,-4.11669 3.23612,-7.45394 7.22806,-7.45394c3.99194,0 7.22806,3.33725 7.22806,7.45394z" fill="#f0a77d" stroke="#c79070"/></g><g stroke-width="5" stroke-linecap="butt"><path d="M289.97477,205.00981l-14.78838,-11.15189l4.62396,-6.13177l14.78838,11.15189z" fill="#f0a77d" stroke="#c79070"/><path d="M283.56023,185.94118c3.96519,3.94363 0.74721,5.34059 -1.89189,7.9941c-2.63909,2.65351 -3.69991,5.55876 -7.6651,1.61513c-3.96519,-3.94363 -5.0402,-9.29168 -2.40112,-11.94519c2.63909,-2.65351 7.99291,-1.60766 11.9581,2.33597z" fill="#fcfe6d" stroke="#e7e658"/><path d="M303.18863,204.95128c0,4.11669 -3.23611,7.45394 -7.22806,7.45394c-3.99194,0 -7.22806,-3.33724 -7.22806,-7.45394c0,-4.11669 3.23612,-7.45394 7.22806,-7.45394c3.99194,0 7.22806,3.33724 7.22806,7.45394z" fill="#f0a77d" stroke="#c79070"/></g><path d="M279.72743,139.01252c0,19.06947 -17.5346,34.52832 -39.16464,34.52832c-21.63003,0 -39.16464,-15.45886 -39.16464,-34.52832c0,-19.06947 17.5346,-34.52832 39.16464,-34.52832c21.63003,0 39.16464,15.45885 39.16464,34.52832z" fill="#f0a77d" stroke="#c79070" stroke-width="5" stroke-linecap="butt"/><g stroke-linecap="butt"><g fill="#ffffff" stroke="#c79070" stroke-width="5"><path d="M234.476,126.02282c0,3.71016 -3.04833,6.71785 -6.80863,6.71785c-3.7603,0 -6.80863,-3.00768 -6.80863,-6.71785c0,-3.71016 3.04832,-6.71784 6.80863,-6.71784c3.7603,0 6.80863,3.00767 6.80863,6.71784z"/></g><path d="M234.476,127.9683c0,1.61836 -1.38911,2.9303 -3.10267,2.9303c-1.71356,0 -3.10267,-1.31194 -3.10267,-2.9303c0,-1.61836 1.38911,-2.9303 3.10267,-2.9303c1.71356,0 3.10267,1.31194 3.10267,2.9303z" fill="#000000" stroke="none" stroke-width="0"/></g><g stroke-linecap="butt"><g fill="#ffffff" stroke="#c79070" stroke-width="5"><path d="M264.64948,126.93717c0,3.71016 -3.04832,6.71785 -6.80863,6.71785c-3.7603,0 -6.80863,-3.00768 -6.80863,-6.71785c0,-3.71016 3.04833,-6.71784 6.80864,-6.71784c3.7603,0 6.80863,3.00767 6.80863,6.71784z"/></g><path d="M264.64948,128.88265c0,1.61836 -1.38911,2.9303 -3.10267,2.9303c-1.71356,0 -3.10267,-1.31194 -3.10267,-2.9303c0,-1.61836 1.38911,-2.9303 3.10267,-2.9303c1.71356,0 3.10267,1.31194 3.10267,2.9303z" fill="#000000" stroke="none" stroke-width="0"/></g><path d="M222.61265,146.39416c0,2.40317 -3.0205,1.67359 -6.4712,1.67359c-3.4507,0 -6.02491,0.72958 -6.02491,-1.67359c0,-2.40317 2.79735,-4.35132 6.24805,-4.35132c3.4507,0 6.24805,1.94815 6.24805,4.35132z" fill="#c79070" stroke="none" stroke-width="0" stroke-linecap="butt"/><path d="M256.22871,180.06945c0,2.36911 -1.84216,4.28966 -4.11458,4.28966c-2.27241,0 -4.11457,-1.92055 -4.11457,-4.28966c0,-2.36911 1.84215,-4.28965 4.11457,-4.28965c2.27241,0 4.11458,1.92054 4.11458,4.28965z" fill="#ffffff" stroke="#e7e658" stroke-width="0" stroke-linecap="butt"/><path d="M238.24655,200.16244c0,2.86156 -2.11507,5.18131 -4.72414,5.18131c-2.60907,0 -4.72414,-2.31975 -4.72414,-5.18131c0,-2.86156 2.11507,-5.18132 4.72414,-5.18132c2.60907,0 4.72414,2.31976 4.72414,5.18132z" fill="#ffffff" stroke="none" stroke-width="0" stroke-linecap="butt"/><path d="M260.19088,199.85766c0,2.52491 -1.63747,4.57175 -3.6574,4.57175c-2.01993,0 -3.6574,-2.04684 -3.6574,-4.57175c0,-2.52491 1.63747,-4.57174 3.6574,-4.57174c2.01992,0 3.6574,2.04683 3.6574,4.57174z" fill="#ffffff" stroke="none" stroke-width="0" stroke-linecap="butt"/><path d="M216.60696,207.47724c0,2.69323 -1.91039,4.87653 -4.26696,4.87653c-2.35657,0 -4.26696,-2.1833 -4.26696,-4.87653c0,-2.69323 1.91039,-4.87653 4.26696,-4.87653c2.35657,0 4.26696,2.1833 4.26696,4.87653z" fill="#ffffff" stroke="none" stroke-width="0" stroke-linecap="butt"/><path d="M230.62697,190.86656c0,2.44074 -1.91038,4.41935 -4.26696,4.41935c-2.35657,0 -4.26697,-1.97861 -4.26697,-4.41935c0,-2.44074 1.91039,-4.41936 4.26697,-4.41936c2.35657,0 4.26696,1.97862 4.26696,4.41936z" fill="#ffffff" stroke="none" stroke-width="0" stroke-linecap="butt"/><path d="M252.57132,208.69637c0,3.87152 -3.13849,7.01002 -7.01001,7.01002c-3.87152,0 -7.01002,-3.1385 -7.01002,-7.01002c0,-3.87152 3.1385,-7.01001 7.01002,-7.01001c3.87152,0 7.01001,3.13849 7.01001,7.01001z" fill="#ffffff" stroke="none" stroke-width="0" stroke-linecap="butt"/><path d="M244.64699,185.53285c0,3.02989 -2.04683,5.4861 -4.57174,5.4861c-2.52491,0 -4.57175,-2.45621 -4.57175,-5.4861c0,-3.02989 2.04684,-5.4861 4.57175,-5.4861c2.52491,0 4.57174,2.45621 4.57174,5.4861z" fill="#ffffff" stroke="none" stroke-width="0" stroke-linecap="butt"/><path d="M271.37791,147.6133c0,2.40317 -3.02049,1.67359 -6.4712,1.67359c-3.45071,0 -6.02491,0.72959 -6.02491,-1.67359c0,-2.40317 2.79735,-4.35133 6.24806,-4.35133c3.45071,0 6.24805,1.94816 6.24805,4.35133z" fill="#c79070" stroke="none" stroke-width="0" stroke-linecap="butt"/><path d="M243.2046,136.37254c0,0 4.76819,11.00274 4.85883,15.71617c0.10008,5.20399 -4.28387,14.18205 -4.28387,14.18205" fill="none" stroke="#c79070" stroke-width="2.5" stroke-linecap="round"/><path d="M252.94732,137.6928c0,4.6734 -4.79487,8.46193 -10.70964,8.46193c-5.91477,0 -10.70964,-3.78853 -10.70964,-8.46193c0,-4.6734 4.79487,-2.37992 10.70964,-2.37992c5.91477,0 10.70964,-2.29348 10.70964,2.37992z" fill="#bb6066" stroke="none" stroke-width="0" stroke-linecap="butt"/><path d="M267.63772,127.04411c0,5.2359 -4.41207,9.48042 -9.85465,9.48042c-5.44258,0 -9.85466,-4.24453 -9.85466,-9.48042c0,-5.23589 4.41208,-9.48043 9.85466,-9.48043c5.44257,0 9.85465,4.24453 9.85465,9.48043z" fill="none" stroke="#b35d88" stroke-width="2" stroke-linecap="butt"/><path d="M237.15942,125.62179c0,5.2359 -4.41208,9.48042 -9.85466,9.48042c-5.44258,0 -9.85465,-4.24453 -9.85465,-9.48042c0,-5.2359 4.41207,-9.48043 9.85465,-9.48043c5.44258,0 9.85466,4.24453 9.85466,9.48044z" fill="none" stroke="#b35d88" stroke-width="2" stroke-linecap="butt"/><path d="M237.36259,126.09762l10.56582,0.20318" fill="none" stroke="#b35d88" stroke-width="2" stroke-linecap="round"/><path d="M253.11466,144.0197l7.24907,-2.51498" fill="none" stroke="#fff0cb" stroke-width="2.5" stroke-linecap="round"/><path d="M258.88433,146.97851l-3.84644,0.88764" fill="none" stroke="#fff0cb" stroke-width="2.5" stroke-linecap="round"/><path d="M255.18583,150.08525" fill="none" stroke="#fff0cb" stroke-width="2.5" stroke-linecap="round"/><path d="M253.41055,151.7126l6.36142,3.40262" fill="none" stroke="#fff0cb" stroke-width="2.5" stroke-linecap="round"/><path d="M227.37307,143.57589l6.06554,2.36704" fill="none" stroke="#fff0cb" stroke-width="2.5" stroke-linecap="round"/><path d="M233.58655,149.34555l-6.06555,1.33147" fill="none" stroke="#fff0cb" stroke-width="2.5" stroke-linecap="round"/><path d="M235.36184,152.4523l-7.24907,3.99438" fill="none" stroke="#fff0cb" stroke-width="2.5" stroke-linecap="round"/><path d="M255.32157,157.17494c1.04015,0.52007 0.52007,1.56023 0.52007,1.56023l-0.58965,1.15922c-1.6678,2.49887 -3.13255,5.51837 -5.98648,6.95639c-1.59846,0.80542 -3.91001,0.51392 -5.58866,0.21737c-3.6014,-0.63625 -7.85203,-1.7811 -10.57224,-4.42911c-0.09463,-0.09211 -1.73199,-2.72526 -1.86978,-2.94573c0,0 -0.61635,-0.98616 0.36981,-1.60251c0.98616,-0.61635 1.60251,0.36981 1.60251,0.36981c0.53277,0.85244 0.8549,1.87143 1.57762,2.57012c2.35443,2.27612 6.19975,3.19284 9.28566,3.74511c1.13733,0.20354 3.09817,0.56032 4.20113,-0.02782c2.38745,-1.27305 3.63483,-4.0259 5.04521,-6.14377l0.44458,-0.90922c0,0 0.52007,-1.04015 1.56023,-0.52008z" fill="#b54865" stroke="none" stroke-width="0.5" stroke-linecap="butt"/></g></g></svg>