<svg version="1.1" xmlns="http://www.w3.org/2000/svg" xmlns:xlink="http://www.w3.org/1999/xlink" width="126.63622" height="177.81997" viewBox="0,0,126.63622,177.81997"><g transform="translate(-177.58094,-102.62916)"><g data-paper-data="{&quot;isPaintingLayer&quot;:true}" fill-rule="nonzero" stroke-linejoin="miter" stroke-miterlimit="10" stroke-dasharray="" stroke-dashoffset="0" style="mix-blend-mode: normal"><path d="" fill="#9966ff" stroke="none" stroke-width="0.5" stroke-linecap="butt"/><path d="" fill="#fff0cb" stroke="#c79070" stroke-width="0" stroke-linecap="butt"/><g stroke="#c79070" stroke-linecap="butt"><path d="M230.2387,219.91834c0,2.86156 -13.71124,11.8733 -27.76656,11.8733c-14.05531,0 -23.13223,-9.01174 -23.13223,-11.8733c0,-2.86156 10.81911,8.50338 24.87443,8.50338c14.05531,0 26.02436,-11.36495 26.02436,-8.50338z" fill="#f0a77d" stroke-width="2.5"/><path d="M179.93154,220.50996c0,-2.12576 5.97057,3.59943 14.80306,6.68422c-0.01478,1.36894 0.03387,2.74027 0.06786,4.10979c-9.24781,-2.47945 -14.87092,-8.54174 -14.87092,-10.79401z" fill="#fff0cb" stroke-width="0"/></g><path d="M252.87932,114.51239l17.22894,-7.85682l-0.81068,18.96017l-17.39563,-9.55774z" fill="#f0a77d" stroke="#c79070" stroke-width="5" stroke-linecap="round"/><path d="M206.41862,125.43293l-1.21913,-18.89656l17.4336,7.49767l-15.11724,12.86185z" fill="#f0a77d" stroke="#c79070" stroke-width="5" stroke-linecap="round"/><g stroke-linecap="butt"><g stroke-width="5"><path d="M209.45239,260.41837l11.86005,-18.39848l6.93714,4.47183l-11.86005,18.39848z" fill="#f0a77d" stroke="#c79070"/><path d="M224.72619,276.46344c-2.46972,3.83128 -6.77777,-0.52658 -12.60796,-4.28484c-5.83019,-3.75827 -10.97477,-5.49378 -8.50505,-9.32506c2.46972,-3.83128 9.19814,-3.89046 15.02834,-0.13219c5.83019,3.75827 8.55441,9.91081 6.08469,13.74209z" fill="#cb0087" stroke="#73214d"/></g><path d="M220.7074,268.70493c-0.50001,0.77567 -1.56483,0.97936 -2.37834,0.45496c-0.81351,-0.5244 -1.06764,-1.57832 -0.56763,-2.35399c0.50001,-0.77567 1.56483,-0.97936 2.37834,-0.45496c0.81351,0.5244 1.06764,1.57832 0.56763,2.35399z" fill="#fff49e" stroke="#ca909b" stroke-width="0"/><path d="M221.61778,272.91798c-0.50001,0.77567 -1.56483,0.97936 -2.37834,0.45496c-0.81351,-0.5244 -1.06764,-1.57832 -0.56763,-2.35399c0.50001,-0.77567 1.56483,-0.97936 2.37834,-0.45496c0.81351,0.5244 1.06764,1.57832 0.56763,2.35399z" fill="#fff49e" stroke="#ca909b" stroke-width="0"/><path d="M217.73816,270.77971c-0.50001,0.77567 -1.56483,0.97936 -2.37834,0.45496c-0.81351,-0.5244 -1.06764,-1.57832 -0.56763,-2.35399c0.50001,-0.77567 1.56483,-0.97936 2.37834,-0.45496c0.81351,0.5244 1.06764,1.57832 0.56763,2.35399z" fill="#fff49e" stroke="#ca909b" stroke-width="0"/></g><g stroke-linecap="butt"><g stroke-width="5"><path d="M263.66434,263.05033l-10.44452,-19.23739l7.25344,-3.9381l10.44452,19.23739z" fill="#f0a77d" stroke="#c79070"/><path d="M285.82689,256.08753c2.17495,4.00597 -3.71617,5.69257 -9.81221,9.00228c-6.09603,3.30971 -10.08852,6.9892 -12.26348,2.98324c-2.17495,-4.00597 1.00371,-9.93649 7.09974,-13.2462c6.09604,-3.30971 12.80098,-2.74529 14.97594,1.26069z" fill="#cb0087" stroke="#73214d"/></g><path d="M277.01295,255.72088c0.44033,0.81103 0.10775,1.84289 -0.74285,2.3047c-0.8506,0.46181 -1.89711,0.17871 -2.33744,-0.63232c-0.44033,-0.81103 -0.10775,-1.84289 0.74285,-2.3047c0.8506,-0.46181 1.89711,-0.17871 2.33744,0.63232z" fill="#fff49e" stroke="#ca909b" stroke-width="0"/><path d="M281.1457,256.94516c0.44033,0.81103 0.10775,1.84289 -0.74285,2.3047c-0.8506,0.46181 -1.89711,0.17871 -2.33744,-0.63232c-0.44033,-0.81103 -0.10775,-1.84289 0.74285,-2.3047c0.8506,-0.46181 1.89711,-0.17871 2.33744,0.63232z" fill="#fff49e" stroke="#ca909b" stroke-width="0"/><path d="M277.40728,259.32167c0.44033,0.81103 0.10775,1.84289 -0.74285,2.3047c-0.8506,0.46181 -1.89711,0.17871 -2.33744,-0.63232c-0.44033,-0.81103 -0.10775,-1.84289 0.74285,-2.3047c0.8506,-0.46181 1.89711,-0.17871 2.33744,0.63232z" fill="#c79070" stroke="#ca909b" stroke-width="0"/></g><path d="M274.61193,207.93955c0,18.17659 -16.02555,37.0116 -35.23679,37.0116c-19.21124,0 -36.36617,-22.93497 -36.36617,-41.11157c0,-18.17659 18.64785,-0.93189 37.85909,-0.93189c19.21124,0 33.74387,-13.14474 33.74387,5.03186z" fill="#aa297d" stroke="none" stroke-width="0" stroke-linecap="butt"/><path d="M253.66711,248.64426l-5.41508,-10.16764l11.16446,-5.94597l5.41508,10.16764z" fill="#aa297d" stroke="none" stroke-width="0" stroke-linecap="butt"/><path d="M261.51106,234.82762c0,3.74245 -4.2474,6.7763 -9.48683,6.7763c-5.23943,0 -9.48683,-3.03385 -9.48683,-6.7763c0,-3.74245 4.2474,-6.7763 9.48683,-6.7763c5.23943,0 9.48683,3.03385 9.48683,6.7763z" fill="#aa297d" stroke="none" stroke-width="0" stroke-linecap="butt"/><path d="M217.87569,242.47132l6.85132,-9.26085l10.16878,7.52301l-6.85132,9.26085z" fill="#aa297d" stroke="none" stroke-width="0" stroke-linecap="butt"/><path d="M251.57246,234.03705c0,4.55331 -7.079,8.24451 -15.81138,8.24451c-8.73238,0 -15.81138,-3.69119 -15.81138,-8.24451c0,-4.55331 7.079,-8.24451 15.81138,-8.24451c8.73238,0 15.81138,3.69119 15.81138,8.24451z" fill="#aa297d" stroke="none" stroke-width="0" stroke-linecap="butt"/><path d="M274.87501,214.11988c0,2.64615 -3.78631,3.46882 -5.35353,5.79243c-1.02722,1.52299 0.56783,4.66433 -1.02345,5.98533c-1.38771,1.15201 -5.28981,0.26705 -7.04492,1.2297c-3.16149,1.73402 -4.55614,5.08442 -8.64904,6.05265c-1.91536,0.4531 -4.64584,-3.57718 -6.71129,-3.32308c-2.38059,0.29288 -4.11797,4.83583 -6.64881,4.83583c-4.1753,0 -5.49982,-3.83292 -9.21965,-4.60304c-2.37151,-0.49098 -7.30855,2.28904 -9.41633,1.53069c-2.8368,-1.02065 -3.57832,-5.68091 -5.80734,-7.11036c-3.16065,-2.02688 -7.54021,0.53261 -9.61766,-1.1694c-1.66376,-1.36309 -1.37007,-6.85849 -1.37007,-9.22075c0,-11.36208 15.86302,-20.57286 35.43104,-20.57286c19.56802,0 35.43104,9.21078 35.43104,20.57286z" fill="#fcfe6d" stroke="#e7e658" stroke-width="5" stroke-linecap="butt"/><path d="M274.36167,197.66221c0,21.95171 -13.6241,25.23364 -33.21662,25.23364c-19.59252,0 -37.73416,-3.28193 -37.73416,-25.23364c0,-21.95171 15.88287,-39.74708 35.47539,-39.74708c19.59252,0 35.47538,17.79537 35.47538,39.74708z" fill="#fcfe6d" stroke="#e7e658" stroke-width="5" stroke-linecap="butt"/><g stroke-width="5" stroke-linecap="butt"><path d="M187.40439,197.78999l13.54454,-12.63354l5.2383,5.61603l-13.54453,12.63354z" data-paper-data="{&quot;index&quot;:null}" fill="#f0a77d" stroke="#c79070"/><path d="M199.27785,182.95091c3.96519,-3.94363 9.31901,-4.98948 11.9581,-2.33596c2.63909,2.65352 1.56407,8.00156 -2.40111,11.94519c-3.96519,3.94363 -5.02601,1.03839 -7.6651,-1.61513c-2.63909,-2.65352 -5.85707,-4.05047 -1.89188,-7.9941z" data-paper-data="{&quot;index&quot;:null}" fill="#fcfe6d" stroke="#e7e658"/><path d="M194.53706,202.18691c0,4.11669 -3.23611,7.45394 -7.22806,7.45394c-3.99195,0 -7.22806,-3.33724 -7.22806,-7.45394c0,-4.11669 3.23611,-7.45394 7.22806,-7.45394c3.99195,0 7.22806,3.33724 7.22806,7.45394z" fill="#f0a77d" stroke="#c79070"/></g><g stroke-width="5" stroke-linecap="butt"><path d="M288.5033,208.0068l-14.78838,-11.15189l4.62396,-6.13177l14.78838,11.15189z" fill="#f0a77d" stroke="#c79070"/><path d="M282.08878,188.93817c3.96519,3.94363 0.74721,5.34059 -1.89189,7.9941c-2.63909,2.65352 -3.69992,5.55876 -7.6651,1.61513c-3.96519,-3.94363 -5.0402,-9.29167 -2.40111,-11.94519c2.63909,-2.65352 7.99291,-1.60767 11.9581,2.33596z" fill="#fcfe6d" stroke="#e7e658"/><path d="M301.71716,207.94827c0,4.11669 -3.23611,7.45394 -7.22806,7.45394c-3.99195,0 -7.22806,-3.33724 -7.22806,-7.45394c0,-4.11669 3.23611,-7.45394 7.22806,-7.45394c3.99195,0 7.22806,3.33724 7.22806,7.45394z" fill="#f0a77d" stroke="#c79070"/></g><path d="M278.25596,142.00952c0,19.06946 -17.5346,34.52832 -39.16463,34.52832c-21.63003,0 -39.16463,-15.45886 -39.16463,-34.52832c0,-19.06946 17.5346,-34.52832 39.16463,-34.52832c21.63003,0 39.16463,15.45886 39.16463,34.52832z" fill="#f0a77d" stroke="#c79070" stroke-width="5" stroke-linecap="butt"/><g stroke-linecap="butt"><g fill="#ffffff" stroke="#c79070" stroke-width="5"><path d="M233.00453,129.01982c0,3.71016 -3.04833,6.71785 -6.80863,6.71785c-3.7603,0 -6.80863,-3.00768 -6.80863,-6.71785c0,-3.71016 3.04833,-6.71785 6.80864,-6.71785c3.7603,0 6.80863,3.00768 6.80863,6.71785z"/></g><path d="M233.00453,130.9653c0,1.61836 -1.38911,2.93029 -3.10267,2.93029c-1.71356,0 -3.10267,-1.31194 -3.10267,-2.93029c0,-1.61836 1.38911,-2.93029 3.10267,-2.93029c1.71356,0 3.10267,1.31195 3.10267,2.93029z" fill="#000000" stroke="none" stroke-width="0"/></g><g stroke-linecap="butt"><g fill="#ffffff" stroke="#c79070" stroke-width="5"><path d="M263.17802,129.93417c0,3.71016 -3.04833,6.71785 -6.80863,6.71785c-3.7603,0 -6.80863,-3.00768 -6.80863,-6.71785c0,-3.71016 3.04833,-6.71785 6.80864,-6.71785c3.7603,0 6.80863,3.00768 6.80863,6.71785z"/></g><path d="M263.17802,131.87965c0,1.61836 -1.38911,2.93029 -3.10267,2.93029c-1.71356,0 -3.10267,-1.31194 -3.10267,-2.93029c0,-1.61836 1.38911,-2.93029 3.10267,-2.93029c1.71356,0 3.10267,1.31195 3.10267,2.93029z" fill="#000000" stroke="none" stroke-width="0"/></g><path d="M221.14118,149.39115c0,2.40317 -3.02049,1.67359 -6.4712,1.67359c-3.45071,0 -6.02491,0.72958 -6.02491,-1.67359c0,-2.40317 2.79735,-4.35132 6.24805,-4.35132c3.45071,0 6.24805,1.94815 6.24805,4.35132z" fill="#c79070" stroke="none" stroke-width="0" stroke-linecap="butt"/><path d="M254.75724,183.06645c0,2.36912 -1.84216,4.28966 -4.11457,4.28966c-2.27241,0 -4.11457,-1.92055 -4.11457,-4.28966c0,-2.36912 1.84216,-4.28966 4.11457,-4.28966c2.27241,0 4.11457,1.92055 4.11457,4.28966z" fill="#ffffff" stroke="#e7e658" stroke-width="0" stroke-linecap="butt"/><path d="M236.77508,203.15944c0,2.86156 -2.11507,5.18131 -4.72414,5.18131c-2.60907,0 -4.72414,-2.31975 -4.72414,-5.18131c0,-2.86156 2.11507,-5.18131 4.72414,-5.18131c2.60907,0 4.72414,2.31975 4.72414,5.18131z" fill="#ffffff" stroke="none" stroke-width="0" stroke-linecap="butt"/><path d="M258.71941,202.85466c0,2.52491 -1.63747,4.57175 -3.6574,4.57175c-2.01993,0 -3.6574,-2.04684 -3.6574,-4.57175c0,-2.52491 1.63747,-4.57175 3.6574,-4.57175c2.01993,0 3.6574,2.04684 3.6574,4.57175z" fill="#ffffff" stroke="none" stroke-width="0" stroke-linecap="butt"/><path d="M215.13549,210.47423c0,2.69323 -1.91039,4.87653 -4.26696,4.87653c-2.35658,0 -4.26696,-2.1833 -4.26696,-4.87653c0,-2.69323 1.91039,-4.87653 4.26696,-4.87653c2.35658,0 4.26696,2.1833 4.26696,4.87653z" fill="#ffffff" stroke="none" stroke-width="0" stroke-linecap="butt"/><path d="M229.1555,193.86355c0,2.44074 -1.91039,4.41936 -4.26696,4.41936c-2.35658,0 -4.26696,-1.97862 -4.26696,-4.41936c0,-2.44074 1.91039,-4.41936 4.26696,-4.41936c2.35658,0 4.26696,1.97862 4.26696,4.41936z" fill="#ffffff" stroke="none" stroke-width="0" stroke-linecap="butt"/><path d="M251.09985,211.69336c0,3.87152 -3.13849,7.01001 -7.01001,7.01001c-3.87152,0 -7.01001,-3.13849 -7.01001,-7.01001c0,-3.87152 3.13849,-7.01001 7.01001,-7.01001c3.87152,0 7.01001,3.13849 7.01001,7.01001z" fill="#ffffff" stroke="none" stroke-width="0" stroke-linecap="butt"/><path d="M243.17553,188.52984c0,3.02989 -2.04684,5.4861 -4.57175,5.4861c-2.52491,0 -4.57175,-2.45621 -4.57175,-5.4861c0,-3.02989 2.04684,-5.4861 4.57175,-5.4861c2.52491,0 4.57175,2.45621 4.57175,5.4861z" fill="#ffffff" stroke="none" stroke-width="0" stroke-linecap="butt"/><path d="M269.90645,150.6103c0,2.40317 -3.02049,1.67359 -6.4712,1.67359c-3.45071,0 -6.02491,0.72959 -6.02491,-1.67359c0,-2.40317 2.79735,-4.35133 6.24805,-4.35133c3.45071,0 6.24805,1.94816 6.24805,4.35133z" fill="#c79070" stroke="none" stroke-width="0" stroke-linecap="butt"/><path d="M241.73313,139.36952c0,0 4.76819,11.00274 4.85883,15.71617c0.10008,5.204 -4.28387,14.18205 -4.28387,14.18205" fill="none" stroke="#c79070" stroke-width="2.5" stroke-linecap="round"/><path d="M251.47586,140.68979c0,4.6734 -4.79487,8.46194 -10.70964,8.46194c-5.91477,0 -10.70964,-3.78854 -10.70964,-8.46194c0,-4.6734 4.79487,-2.37992 10.70964,-2.37992c5.91477,0 10.70964,-2.29348 10.70964,2.37992z" fill="#bb6066" stroke="none" stroke-width="0" stroke-linecap="butt"/><path d="M266.16625,130.04111c0,5.23589 -4.41208,9.48043 -9.85466,9.48043c-5.44257,0 -9.85466,-4.24453 -9.85466,-9.48043c0,-5.23589 4.41208,-9.48043 9.85466,-9.48043c5.44257,0 9.85466,4.24453 9.85466,9.48043z" fill="none" stroke="#b35d88" stroke-width="2" stroke-linecap="butt"/><path d="M235.68794,128.61879c0,5.2359 -4.41208,9.48043 -9.85466,9.48043c-5.44258,0 -9.85465,-4.24453 -9.85465,-9.48043c0,-5.2359 4.41208,-9.48043 9.85465,-9.48043c5.44258,0 9.85466,4.24453 9.85466,9.48043z" fill="none" stroke="#b35d88" stroke-width="2" stroke-linecap="butt"/><path d="M235.89113,129.09461l10.56581,0.20319" fill="none" stroke="#b35d88" stroke-width="2" stroke-linecap="round"/><path d="M251.64319,147.01671l7.24907,-2.51499" fill="none" stroke="#fff0cb" stroke-width="2.5" stroke-linecap="round"/><path d="M253.56642,150.86316l3.84644,-0.88764" fill="none" stroke="#fff0cb" stroke-width="2.5" stroke-linecap="round"/><path d="M253.71436,153.08226" fill="none" stroke="#fff0cb" stroke-width="2.5" stroke-linecap="round"/><path d="M258.3005,158.11222l-6.36143,-3.40262" fill="none" stroke="#fff0cb" stroke-width="2.5" stroke-linecap="round"/><path d="M225.9016,146.57288l6.06554,2.36704" fill="none" stroke="#fff0cb" stroke-width="2.5" stroke-linecap="round"/><path d="M232.11508,152.34255l-6.06554,1.33146" fill="none" stroke="#fff0cb" stroke-width="2.5" stroke-linecap="round"/><path d="M226.6413,159.44368l7.24907,-3.99438" fill="none" stroke="#fff0cb" stroke-width="2.5" stroke-linecap="round"/><path d="M253.8501,160.17193c1.04015,0.52008 0.52008,1.56023 0.52008,1.56023l-0.58965,1.15922c-1.6678,2.49887 -3.13255,5.51836 -5.98648,6.95638c-1.59846,0.80542 -3.91001,0.51392 -5.58866,0.21737c-3.6014,-0.63625 -7.85203,-1.7811 -10.57224,-4.42911c-0.09462,-0.09211 -1.73199,-2.72526 -1.86978,-2.94573c0,0 -0.61635,-0.98616 0.36981,-1.60251c0.98616,-0.61635 1.60251,0.36981 1.60251,0.36981c0.53277,0.85244 0.8549,1.87144 1.57762,2.57012c2.35443,2.27611 6.19975,3.19284 9.28566,3.74511c1.13733,0.20355 3.09817,0.56031 4.20113,-0.02781c2.38745,-1.27305 3.63483,-4.02591 5.04522,-6.14376l0.44457,-0.90922c0,0 0.52008,-1.04015 1.56023,-0.52008z" fill="#b54865" stroke="none" stroke-width="0.5" stroke-linecap="butt"/></g></g></svg>