<svg version="1.1" xmlns="http://www.w3.org/2000/svg" xmlns:xlink="http://www.w3.org/1999/xlink" width="144.37551" height="177.09924" viewBox="0,0,144.37551,177.09924"><g transform="translate(-166.84696,-94.8924)"><g data-paper-data="{&quot;isPaintingLayer&quot;:true}" fill-rule="nonzero" stroke-linejoin="miter" stroke-miterlimit="10" stroke-dasharray="" stroke-dashoffset="0" style="mix-blend-mode: normal"><g stroke="#c79070" stroke-linecap="butt"><path d="M246.6922,218.32484c1.35008,2.52306 -6.48748,16.93771 -18.88013,23.56899c-12.39266,6.63128 -24.64756,2.96805 -25.99764,0.445c-1.35008,-2.52306 13.55117,2.39305 25.94383,-4.23823c12.39266,-6.63128 17.58387,-22.29881 18.93395,-19.77575z" fill="#f0a77d" stroke-width="2.5"/><path d="M202.61518,242.58135c-1.00294,-1.8743 6.96248,0.35673 16.20556,-1.09055c0.63284,1.21397 1.32273,2.40013 1.99884,3.59161c-9.32366,2.17695 -17.14176,-0.51521 -18.20438,-2.50106z" fill="#fff0cb" stroke-width="0"/></g><path d="M216.92416,114.70594l11.48402,-15.05601l8.2306,17.09978l-19.84716,-0.21989z" fill="#f0a77d" stroke="#c79070" stroke-width="5" stroke-linecap="round"/><path d="M181.11178,146.25475l-9.99029,-16.08602l18.90869,-1.61441l-7.26076,18.47267z" fill="#f0a77d" stroke="#c79070" stroke-width="5" stroke-linecap="round"/><g stroke-linecap="butt"><g stroke-width="5"><path d="M249.14016,259.53959l1.78803,-21.81669l8.22596,0.67417l-1.78803,21.81669z" fill="#f0a77d" stroke="#c79070"/><path d="M270.17361,266.4914c-0.37234,4.54308 -6.22586,2.73023 -13.13923,2.16363c-6.91338,-0.5666 -12.26865,0.32761 -11.89632,-4.21546c0.37234,-4.54308 6.27857,-7.76665 13.19195,-7.20005c6.91338,0.5666 12.21594,4.70881 11.8436,9.25188z" fill="#cb0087" stroke="#73214d"/></g><path d="M262.97233,261.54299c-0.07538,0.91978 -0.91849,1.60132 -1.88314,1.52226c-0.96464,-0.07906 -1.68554,-0.88878 -1.61016,-1.80856c0.07538,-0.91978 0.91849,-1.60132 1.88314,-1.52226c0.96464,0.07906 1.68554,0.88878 1.61016,1.80856z" fill="#fff49e" stroke="#ca909b" stroke-width="0"/><path d="M265.76102,264.82958c-0.07538,0.91978 -0.91849,1.60132 -1.88314,1.52226c-0.96464,-0.07906 -1.68554,-0.88878 -1.61015,-1.80855c0.07538,-0.91978 0.91849,-1.60132 1.88314,-1.52225c0.96464,0.07906 1.68554,0.88878 1.61016,1.80856z" fill="#fff49e" stroke="#ca909b" stroke-width="0"/><path d="M261.33154,264.77237c-0.07538,0.91978 -0.91849,1.60132 -1.88314,1.52226c-0.96464,-0.07906 -1.68554,-0.88878 -1.61016,-1.80856c0.07538,-0.91978 0.91849,-1.60132 1.88314,-1.52226c0.96464,0.07906 1.68554,0.88878 1.61016,1.80856z" fill="#fff49e" stroke="#ca909b" stroke-width="0"/></g><g stroke-linecap="butt"><g stroke-width="5"><path d="M285.5936,243.46785l-10.15392,-19.39233l7.31187,-3.82853l10.15392,19.39233z" fill="#f0a77d" stroke="#c79070"/><path d="M307.8584,236.83926c2.11443,4.03824 -3.80139,5.63602 -9.94653,8.85364c-6.14514,3.21763 -10.19253,6.83663 -12.30696,2.7984c-2.11443,-4.03824 1.15309,-9.92026 7.29822,-13.13789c6.14514,-3.21762 12.84084,-2.5524 14.95528,1.48584z" fill="#cb0087" stroke="#73214d"/></g><path d="M299.05097,236.34005c0.42808,0.81757 0.08001,1.8443 -0.77743,2.29327c-0.85745,0.44897 -1.89959,0.15015 -2.32768,-0.66742c-0.42808,-0.81757 -0.08001,-1.8443 0.77745,-2.29327c0.85745,-0.44897 1.89959,-0.15015 2.32768,0.66742z" fill="#fff49e" stroke="#ca909b" stroke-width="0"/><path d="M303.16483,237.62637c0.42808,0.81757 0.08001,1.8443 -0.77743,2.29327c-0.85745,0.44897 -1.89958,0.15014 -2.32767,-0.66742c-0.42808,-0.81757 -0.08001,-1.8443 0.77744,-2.29326c0.85745,-0.44897 1.89959,-0.15015 2.32768,0.66742z" fill="#fff49e" stroke="#ca909b" stroke-width="0"/><path d="M299.39108,239.94636c0.42808,0.81757 0.08001,1.8443 -0.77745,2.29327c-0.85745,0.44897 -1.89958,0.15015 -2.32767,-0.66742c-0.42808,-0.81757 -0.08001,-1.8443 0.77744,-2.29326c0.85745,-0.44897 1.89959,-0.15015 2.32768,0.66742z" fill="#c79070" stroke="#ca909b" stroke-width="0"/></g><g fill="#aa297d" stroke="none" stroke-width="0" stroke-linecap="butt"><path d="M280.16477,186.82783c8.57569,16.02641 3.3322,40.19419 -13.60647,49.25803c-16.93867,9.06384 -42.88497,-3.0644 -51.46067,-19.09081c-8.57569,-16.02641 16.00226,-9.61969 32.94093,-18.68353c16.93868,-9.06384 23.55052,-27.51011 32.12622,-11.4837z"/><path d="M276.77656,232.20159l-5.43499,-10.15701l11.15279,-5.96783l5.43499,10.15701z"/><path d="M281.29939,216.7162c1.76568,3.29974 -0.5479,7.97862 -5.16754,10.45058c-4.61964,2.47196 -9.79596,1.80091 -11.56165,-1.49883c-1.76568,-3.29974 0.5479,-7.97863 5.16754,-10.45059c4.61964,-2.47196 9.79596,-1.8009 11.56164,1.49884z"/><path d="M250.66663,247.32407l-5.43499,-10.157l11.15279,-5.96783l5.43499,10.157z"/><path d="M272.1635,220.70815c2.14825,4.01468 -2.35185,10.6091 -10.05124,14.72903c-7.69939,4.11993 -15.68249,4.20524 -17.83074,0.19055c-2.14825,-4.01468 2.35185,-10.6091 10.05124,-14.72903c7.69939,-4.11993 15.68249,-4.20524 17.83074,-0.19055z"/></g><path d="M283.3126,192.15295c1.24845,2.33312 -1.70182,4.84487 -1.98737,7.63301c-0.18716,1.82747 2.70128,3.84466 1.92149,5.76017c-0.68004,1.67045 -4.53806,2.73119 -5.63138,4.40801c-1.9694,3.02048 -1.61835,6.63255 -4.77028,9.41727c-1.47501,1.30317 -5.78398,-0.96212 -7.48521,0.23641c-1.9608,1.38139 -1.3493,6.20663 -3.58076,7.40068c-3.68139,1.9699 -6.65759,-0.7847 -10.30073,0.29129c-2.32262,0.68598 -5.36404,5.46643 -7.58026,5.79223c-2.98277,0.43849 -5.83527,-3.32065 -8.47503,-3.52935c-3.74304,-0.29592 -6.39697,4.02707 -9.03168,3.50652c-2.11005,-0.41689 -4.44382,-5.40077 -5.55834,-7.4836c-5.36062,-10.01802 4.28026,-25.62338 21.53351,-34.85555c17.25325,-9.23217 35.58541,-8.59511 40.94602,1.42291z" fill="#fcfe6d" stroke="#e7e658" stroke-width="5" stroke-linecap="butt"/><path d="M275.09527,177.88431c10.35679,19.35497 -0.10725,28.67649 -17.3821,37.92022c-17.27485,9.24373 -34.81886,14.90923 -45.17565,-4.44573c-10.35679,-19.35497 -4.7486,-42.53877 12.52624,-51.78249c17.27485,-9.24373 39.67471,-1.04696 50.0315,18.308z" fill="#fcfe6d" stroke="#e7e658" stroke-width="5" stroke-linecap="butt"/><g stroke-width="5" stroke-linecap="butt"><path d="M198.48479,219.02331l5.98182,-17.52937l7.26827,2.48027l-5.98181,17.52936z" data-paper-data="{&quot;index&quot;:null}" fill="#f0a77d" stroke="#c79070"/><path d="M201.95264,200.33773c1.63552,-5.34789 5.86261,-8.79596 9.44143,-7.70145c3.57882,1.0945 5.15419,6.31709 3.51865,11.66499c-1.63552,5.34789 -3.94156,3.28683 -7.52038,2.19231c-3.57882,-1.0945 -7.07522,-0.80797 -5.43969,-6.15586z" data-paper-data="{&quot;index&quot;:null}" fill="#fcfe6d" stroke="#e7e658"/><path d="M206.84817,219.53493c1.94225,3.62971 0.66346,8.09897 -2.85627,9.98237c-3.51972,1.88339 -7.94753,0.46772 -9.88978,-3.16199c-1.94225,-3.62971 -0.66345,-8.09898 2.85627,-9.98238c3.51972,-1.88339 7.94754,-0.46772 9.88979,3.162z" fill="#f0a77d" stroke="#c79070"/></g><g stroke-width="5" stroke-linecap="butt"><path d="M292.44461,180.3332l-18.30046,-2.85555l1.18401,-7.588l18.30046,2.85555z" fill="#f0a77d" stroke="#c79070"/><path d="M277.79232,166.54665c5.35673,1.60635 3.1785,4.3563 2.10352,7.94104c-1.07498,3.58474 -0.63962,6.64681 -5.99635,5.04046c-5.35673,-1.60635 -8.82778,-5.81457 -7.75281,-9.3993c1.07498,-3.58474 6.28891,-5.18853 11.64564,-3.58218z" fill="#fcfe6d" stroke="#e7e658"/><path d="M304.06774,174.04731c1.94225,3.62971 0.66346,8.09898 -2.85627,9.98238c-3.51972,1.88339 -7.94753,0.46772 -9.88979,-3.162c-1.94225,-3.62971 -0.66345,-8.09898 2.85627,-9.98238c3.51972,-1.88339 7.94753,-0.46772 9.88979,3.162z" fill="#f0a77d" stroke="#c79070"/></g><path d="M252.27203,126.97766c8.99695,16.81367 0.83005,38.71664 -18.24129,48.92166c-19.07133,10.20502 -41.82518,4.84766 -50.82213,-11.96601c-8.99695,-16.81367 -0.83005,-38.71664 18.24129,-48.92166c19.07133,-10.20502 41.82517,-4.84766 50.82213,11.96601z" fill="#f0a77d" stroke="#c79070" stroke-width="5" stroke-linecap="butt"/><g stroke-linecap="butt"><g fill="#ffffff" stroke="#c79070" stroke-width="5"><path d="M206.24503,136.87413c1.75045,3.27127 0.48174,7.36137 -2.83374,9.13547c-3.31548,1.7741 -7.42223,0.56041 -9.17269,-2.71087c-1.75045,-3.27127 -0.48175,-7.36136 2.83374,-9.13546c3.31548,-1.7741 7.42223,-0.56042 9.17268,2.71086z"/></g><path d="M207.16291,138.58948c0.76354,1.42692 0.15772,3.23904 -1.35313,4.0475c-1.51086,0.80846 -3.35462,0.30709 -4.11816,-1.11983c-0.76354,-1.42692 -0.15772,-3.23904 1.35313,-4.0475c1.51086,-0.80846 3.35462,-0.30709 4.11816,1.11983z" fill="#000000" stroke="none" stroke-width="0"/></g><g stroke-linecap="butt"><g fill="#ffffff" stroke="#c79070" stroke-width="5"><path d="M233.28057,123.44451c1.75045,3.27127 0.48175,7.36136 -2.83374,9.13547c-3.31548,1.7741 -7.42223,0.56041 -9.17269,-2.71087c-1.75045,-3.27127 -0.48174,-7.36136 2.83375,-9.13547c3.31548,-1.7741 7.42223,-0.56042 9.17268,2.71086z"/></g><path d="M234.19844,125.15985c0.76354,1.42692 0.15772,3.23904 -1.35313,4.0475c-1.51086,0.80846 -3.35462,0.30709 -4.11816,-1.11983c-0.76354,-1.42692 -0.15772,-3.23904 1.35313,-4.0475c1.51086,-0.80846 3.35462,-0.30709 4.11816,1.11983z" fill="#000000" stroke="none" stroke-width="0"/></g><path d="M205.39622,160.43279c1.13381,2.11889 -1.8736,2.90068 -4.9161,4.52872c-3.0425,1.62804 -4.96799,3.48582 -6.1018,1.36693c-1.13381,-2.11889 0.41349,-5.15637 3.456,-6.78441c3.0425,-1.62804 6.42808,-1.23013 7.56189,0.88876z" fill="#c79070" stroke="none" stroke-width="0" stroke-linecap="butt"/><path d="M250.92367,174.26448c1.11774,2.08886 0.39961,4.65135 -1.60399,5.72347c-2.0036,1.07212 -4.53396,0.24789 -5.6517,-1.84097c-1.11774,-2.08886 -0.39962,-4.65134 1.60399,-5.72346c2.0036,-1.07212 4.53396,-0.2479 5.6517,1.84096z" fill="#ffffff" stroke="#e7e658" stroke-width="0" stroke-linecap="butt"/><path d="M244.54853,200.46456c1.35008,2.52306 0.57967,5.56628 -1.72077,6.79724c-2.30043,1.23096 -5.25976,0.18351 -6.60984,-2.33955c-1.35008,-2.52306 -0.57967,-5.56629 1.72076,-6.79725c2.30043,-1.23096 5.25976,-0.1835 6.60984,2.33956z" fill="#ffffff" stroke="none" stroke-width="0" stroke-linecap="butt"/><path d="M263.75319,189.84252c1.19125,2.22623 0.71318,4.8035 -1.06781,5.7565c-1.78098,0.953 -4.19045,-0.07915 -5.3817,-2.30538c-1.19125,-2.22623 -0.71317,-4.80349 1.06781,-5.75649c1.78098,-0.953 4.19044,0.07915 5.38169,2.30537z" fill="#ffffff" stroke="none" stroke-width="0" stroke-linecap="butt"/><path d="M228.91989,217.1236c1.27066,2.37464 0.61634,5.20099 -1.46146,6.31281c-2.0778,1.11183 -4.79228,0.08812 -6.06295,-2.28652c-1.27066,-2.37464 -0.61634,-5.20099 1.46146,-6.31281c2.0778,-1.11183 4.79228,-0.08812 6.06295,2.28652z" fill="#ffffff" stroke="none" stroke-width="0" stroke-linecap="butt"/><path d="M233.44452,195.86323c1.15154,2.15202 0.40065,4.79788 -1.67716,5.90972c-2.0778,1.11183 -4.69572,0.2686 -5.84726,-1.88342c-1.15154,-2.15202 -0.40065,-4.7979 1.67717,-5.90973c2.0778,-1.11183 4.69572,-0.26858 5.84725,1.88343z" fill="#ffffff" stroke="none" stroke-width="0" stroke-linecap="butt"/><path d="M261.20507,201.23057c1.82658,3.41354 0.54009,7.66151 -2.87345,9.48809c-3.41354,1.82658 -7.66152,0.54008 -9.4881,-2.87346c-1.82658,-3.41354 -0.54008,-7.66151 2.87346,-9.48809c3.41354,-1.82658 7.66151,-0.54009 9.48808,2.87346z" fill="#ffffff" stroke="none" stroke-width="0" stroke-linecap="butt"/><path d="M243.28962,184.54584c1.4295,2.67147 0.78363,5.80282 -1.4426,6.99407c-2.22623,1.19125 -5.18978,-0.00871 -6.61928,-2.68018c-1.4295,-2.67147 -0.78362,-5.80283 1.44261,-6.99407c2.22623,-1.19125 5.18977,0.00871 6.61927,2.68019z" fill="#ffffff" stroke="none" stroke-width="0" stroke-linecap="butt"/><path d="M248.96804,138.50032c1.13381,2.11889 -1.87359,2.90068 -4.9161,4.52872c-3.04251,1.62804 -4.96798,3.48583 -6.1018,1.36693c-1.13381,-2.11889 0.41349,-5.15638 3.456,-6.78442c3.04251,-1.62804 6.42808,-1.23012 7.5619,0.88877z" fill="#c79070" stroke="none" stroke-width="0" stroke-linecap="butt"/><path d="M218.82408,141.8814c0,0 9.39522,7.45156 11.69893,11.56466c2.54348,4.54117 2.91396,14.52553 2.91396,14.52553" fill="none" stroke="#c79070" stroke-width="2.5" stroke-linecap="round"/><path d="M228.0372,138.44888c2.2049,4.12057 -0.23534,9.72315 -5.45043,12.51373c-5.21509,2.79058 -11.23018,1.71242 -13.43508,-2.40814c-2.2049,-4.12057 3.10482,-4.3606 8.31991,-7.15119c5.21509,-2.79058 8.3607,-7.07497 10.5656,-2.9544z" fill="#bb6066" stroke="none" stroke-width="0" stroke-linecap="butt"/><path d="M235.96577,122.12895c2.47029,4.61653 0.5827,10.44055 -4.21606,13.00836c-4.79876,2.5678 -10.69148,0.90699 -13.16177,-3.70953c-2.47029,-4.61652 -0.5827,-10.44057 4.21606,-13.00837c4.79875,-2.5678 10.69147,-0.90698 13.16176,3.70954z" fill="none" stroke="#b35d88" stroke-width="2" stroke-linecap="butt"/><path d="M208.42182,135.25451c2.47029,4.61653 0.58269,10.44056 -4.21606,13.00836c-4.79876,2.5678 -10.69147,0.90698 -13.16176,-3.70953c-2.47029,-4.61653 -0.58271,-10.44056 4.21605,-13.00837c4.79876,-2.5678 10.69148,-0.90699 13.16178,3.70955z" fill="none" stroke="#b35d88" stroke-width="2" stroke-linecap="butt"/><path d="M218.23726,130.7724l-9.41181,4.8058" fill="none" stroke="#b35d88" stroke-width="2" stroke-linecap="round"/><path d="M231.16976,143.9484l5.20499,-5.63758" fill="none" stroke="#fff0cb" stroke-width="2.5" stroke-linecap="round"/><path d="M237.65288,143.83508l-2.97264,2.59738" fill="none" stroke="#fff0cb" stroke-width="2.5" stroke-linecap="round"/><path d="M235.85765,148.31926" fill="none" stroke="#fff0cb" stroke-width="2.5" stroke-linecap="round"/><path d="M235.06015,150.59168l7.21426,-0.0012" fill="none" stroke="#fff0cb" stroke-width="2.5" stroke-linecap="round"/><path d="M214.72865,154.92726l-6.46479,0.77468" fill="none" stroke="#fff0cb" stroke-width="2.5" stroke-linecap="round"/><path d="M216.46444,157.85757l-4.71985,4.03568" fill="none" stroke="#fff0cb" stroke-width="2.5" stroke-linecap="round"/><path d="M219.49548,159.75923l-4.50701,6.94197" fill="none" stroke="#fff0cb" stroke-width="2.5" stroke-linecap="round"/><path d="M239.32224,154.50624c1.16248,-0.03219 1.19466,1.1303 1.19466,1.1303l0.02702,1.30029c-0.29155,2.99014 -0.15843,6.34351 -1.9963,8.95791c-1.02938,1.4643 -3.20501,2.29786 -4.825,2.82838c-3.47556,1.13815 -7.7635,2.13417 -11.41126,1.0828c-0.12689,-0.03657 -2.81288,-1.58573 -3.03839,-1.71511c0,0 -1.00871,-0.57871 -0.43,-1.58742c0.57871,-1.00871 1.58742,-0.43 1.58742,-0.43c0.87193,0.50024 1.63671,1.24671 2.60358,1.52177c3.14979,0.89605 6.97274,-0.10989 9.95416,-1.07888c1.09882,-0.35713 2.99603,-0.96768 3.69104,-2.00662c1.50441,-2.24885 1.30544,-5.26457 1.54977,-7.79732l-0.03698,-1.01142c0,0 -0.03219,-1.16248 1.13029,-1.19467z" fill="#b54865" stroke="none" stroke-width="0.5" stroke-linecap="butt"/></g></g></svg>