<svg version="1.1" xmlns="http://www.w3.org/2000/svg" xmlns:xlink="http://www.w3.org/1999/xlink" width="132.03953" height="175.32848" viewBox="0,0,132.03953,175.32848"><g transform="translate(-177.0524,-91.63216)"><g data-paper-data="{&quot;isPaintingLayer&quot;:true}" fill-rule="nonzero" stroke-linejoin="miter" stroke-miterlimit="10" stroke-dasharray="" stroke-dashoffset="0" style="mix-blend-mode: normal"><path d="" fill="#9966ff" stroke="none" stroke-width="0.5" stroke-linecap="butt"/><path d="" fill="#fff0cb" stroke="#c79070" stroke-width="0" stroke-linecap="butt"/><g stroke="#c79070" stroke-linecap="butt"><path d="M229.71017,208.92135c0,2.86156 -13.71124,11.8733 -27.76656,11.8733c-14.05531,0 -23.13223,-9.01174 -23.13223,-11.8733c0,-2.86156 10.81911,8.50338 24.87443,8.50338c14.05531,0 26.02436,-11.36495 26.02436,-8.50338z" fill="#f0a77d" stroke-width="2.5"/><path d="M179.40301,209.51297c0,-2.12576 5.97057,3.59943 14.80306,6.68422c-0.01478,1.36894 0.03387,2.74027 0.06786,4.10979c-9.24781,-2.47945 -14.87092,-8.54174 -14.87092,-10.79401z" fill="#fff0cb" stroke-width="0"/></g><path d="M252.35079,103.5154l17.22894,-7.85682l-0.81068,18.96017l-17.39563,-9.55774z" fill="#f0a77d" stroke="#c79070" stroke-width="5" stroke-linecap="round"/><path d="M205.89009,114.43594l-1.21913,-18.89656l17.4336,7.49767l-15.11724,12.86185z" fill="#f0a77d" stroke="#c79070" stroke-width="5" stroke-linecap="round"/><g stroke-linecap="butt"><g stroke-width="5"><path d="M222.58772,255.84029v-21.88984h8.25355v21.88984z" fill="#f0a77d" stroke="#c79070"/><path d="M244.11873,261.05079c0,4.55831 -5.98204,3.22965 -12.91859,3.22965c-6.93655,0 -12.2009,1.32866 -12.2009,-3.22965c0,-4.55831 5.62319,-8.25355 12.55975,-8.25355c6.93655,0 12.55975,3.69524 12.55975,8.25355z" fill="#cb0087" stroke="#73214d"/></g><path d="M236.53731,256.70714c0,0.92286 -0.78462,1.67099 -1.7525,1.67099c-0.96788,0 -1.7525,-0.74813 -1.7525,-1.67099c0,-0.92286 0.78462,-1.67099 1.7525,-1.67099c0.96788,0 1.7525,0.74813 1.7525,1.67099z" fill="#fff49e" stroke="#ca909b" stroke-width="0"/><path d="M239.58514,259.75497c0,0.92286 -0.78462,1.67099 -1.7525,1.67099c-0.96788,0 -1.7525,-0.74813 -1.7525,-1.67099c0,-0.92286 0.78462,-1.67099 1.7525,-1.67099c0.96788,0 1.7525,0.74813 1.7525,1.67099z" fill="#fff49e" stroke="#ca909b" stroke-width="0"/><path d="M235.16578,260.05975c0,0.92286 -0.78462,1.67099 -1.7525,1.67099c-0.96788,0 -1.7525,-0.74813 -1.7525,-1.67099c0,-0.92286 0.78462,-1.67099 1.7525,-1.67099c0.96788,0 1.7525,0.74813 1.7525,1.67099z" fill="#fff49e" stroke="#ca909b" stroke-width="0"/></g><g stroke-linecap="butt"><g stroke-width="5"><path d="M252.54925,256.01734v-21.88984h8.25355v21.88984z" fill="#f0a77d" stroke="#c79070"/><path d="M275.34853,260.47289c0,4.55831 -5.98203,3.22965 -12.91859,3.22965c-6.93655,0 -12.2009,1.32866 -12.2009,-3.22965c0,-4.55831 5.62319,-8.25355 12.55974,-8.25355c6.93656,0 12.55974,3.69523 12.55974,8.25355z" fill="#cb0087" stroke="#73214d"/></g><path d="M267.77754,255.94518c0,0.92286 -0.78462,1.67099 -1.7525,1.67099c-0.96788,0 -1.7525,-0.74813 -1.7525,-1.67099c0,-0.92286 0.78462,-1.67099 1.7525,-1.67099c0.96788,0 1.7525,0.74813 1.7525,1.67099z" fill="#fff49e" stroke="#ca909b" stroke-width="0"/><path d="M270.82536,258.99301c0,0.92286 -0.78462,1.67099 -1.7525,1.67099c-0.96788,0 -1.7525,-0.74813 -1.7525,-1.67099c0,-0.92286 0.78462,-1.67099 1.7525,-1.67099c0.96788,0 1.7525,0.74813 1.7525,1.67099z" fill="#fff49e" stroke="#ca909b" stroke-width="0"/><path d="M266.40601,259.2978c0,0.92286 -0.78462,1.67099 -1.7525,1.67099c-0.96788,0 -1.7525,-0.74813 -1.7525,-1.67099c0,-0.92286 0.78462,-1.67099 1.7525,-1.67099c0.96788,0 1.7525,0.74813 1.7525,1.67099z" fill="#c79070" stroke="#ca909b" stroke-width="0"/></g><g fill="#aa297d" stroke="none" stroke-width="0" stroke-linecap="butt"><path d="M274.0834,196.94256c0,18.17659 -16.02555,37.0116 -35.23679,37.0116c-19.21124,0 -36.36617,-22.93497 -36.36617,-41.11157c0,-18.17659 18.64785,-0.93189 37.85909,-0.93189c19.21124,0 33.74387,-13.14474 33.74387,5.03186z"/><path d="M249.68872,235.35033v-11.51972h12.6491v11.51972z"/><path d="M260.98253,223.83063c0,3.74245 -4.2474,6.7763 -9.48683,6.7763c-5.23943,0 -9.48683,-3.03385 -9.48683,-6.7763c0,-3.74245 4.2474,-6.7763 9.48683,-6.7763c5.23943,0 9.48683,3.03385 9.48683,6.7763z"/><path d="M219.53266,236.36528v-11.51972h12.6491v11.51972z"/><path d="M251.04393,223.04006c0,4.55331 -7.079,8.24451 -15.81138,8.24451c-8.73238,0 -15.81138,-3.69119 -15.81138,-8.24451c0,-4.55331 7.079,-8.24451 15.81138,-8.24451c8.73238,0 15.81138,3.69119 15.81138,8.24451z"/></g><path d="M274.34648,203.12289c0,2.64615 -3.78631,3.46882 -5.35353,5.79243c-1.02722,1.52299 0.56783,4.66433 -1.02345,5.98533c-1.38771,1.15201 -5.28981,0.26705 -7.04492,1.2297c-3.16149,1.73402 -4.55614,5.08442 -8.64904,6.05265c-1.91536,0.4531 -4.64584,-3.57718 -6.71129,-3.32308c-2.38059,0.29288 -4.11797,4.83583 -6.64881,4.83583c-4.1753,0 -5.49982,-3.83292 -9.21965,-4.60304c-2.37151,-0.49098 -7.30855,2.28904 -9.41633,1.53069c-2.8368,-1.02065 -3.57832,-5.68091 -5.80734,-7.11036c-3.16065,-2.02688 -7.54021,0.53261 -9.61766,-1.1694c-1.66376,-1.36309 -1.37007,-6.85849 -1.37007,-9.22075c0,-11.36208 15.86302,-20.57286 35.43104,-20.57286c19.56802,0 35.43104,9.21078 35.43104,20.57286z" fill="#fcfe6d" stroke="#e7e658" stroke-width="5" stroke-linecap="butt"/><path d="M273.83314,186.66522c0,21.95171 -13.6241,25.23364 -33.21662,25.23364c-19.59252,0 -37.73416,-3.28193 -37.73416,-25.23364c0,-21.95171 15.88287,-39.74708 35.47539,-39.74708c19.59252,0 35.47538,17.79537 35.47538,39.74708z" fill="#fcfe6d" stroke="#e7e658" stroke-width="5" stroke-linecap="butt"/><g stroke-width="5" stroke-linecap="butt"><path d="M186.87586,186.793l13.54454,-12.63354l5.2383,5.61603l-13.54453,12.63354z" data-paper-data="{&quot;index&quot;:null}" fill="#f0a77d" stroke="#c79070"/><path d="M198.74932,171.95392c3.96519,-3.94363 9.31901,-4.98948 11.9581,-2.33596c2.63909,2.65352 1.56407,8.00156 -2.40111,11.94519c-3.96519,3.94363 -5.02601,1.03839 -7.6651,-1.61513c-2.63909,-2.65352 -5.85707,-4.05047 -1.89188,-7.9941z" data-paper-data="{&quot;index&quot;:null}" fill="#fcfe6d" stroke="#e7e658"/><path d="M194.00853,191.18992c0,4.11669 -3.23611,7.45394 -7.22806,7.45394c-3.99195,0 -7.22806,-3.33724 -7.22806,-7.45394c0,-4.11669 3.23611,-7.45394 7.22806,-7.45394c3.99195,0 7.22806,3.33724 7.22806,7.45394z" fill="#f0a77d" stroke="#c79070"/></g><g stroke-width="5" stroke-linecap="butt"><path d="M297.93471,171.68507l-14.03352,12.08806l-5.01212,-5.81878l14.03352,-12.08806z" fill="#f0a77d" stroke="#c79070"/><path d="M277.93964,173.91127c4.6946,-3.03902 5.37761,0.40197 7.41132,3.54362c2.03372,3.14165 4.64803,4.79427 -0.04657,7.83328c-4.6946,3.03902 -10.14898,2.95582 -12.18271,-0.18583c-2.03372,-3.14165 0.12335,-8.15205 4.81796,-11.19107z" fill="#fcfe6d" stroke="#e7e658"/><path d="M300.67882,158.75914c4.02312,0.87273 6.59846,4.74277 5.75218,8.64399c-0.84629,3.90121 -4.79372,6.35628 -8.81685,5.48355c-4.02312,-0.87273 -6.59846,-4.74277 -5.75218,-8.64399c0.84629,-3.90121 4.79372,-6.35628 8.81685,-5.48355z" fill="#f0a77d" stroke="#c79070"/></g><path d="M277.72743,131.01253c0,19.06946 -17.5346,34.52832 -39.16463,34.52832c-21.63003,0 -39.16463,-15.45886 -39.16463,-34.52832c0,-19.06946 17.5346,-34.52832 39.16463,-34.52832c21.63003,0 39.16463,15.45886 39.16463,34.52832z" fill="#f0a77d" stroke="#c79070" stroke-width="5" stroke-linecap="butt"/><g stroke-linecap="butt"><g fill="#ffffff" stroke="#c79070" stroke-width="5"><path d="M232.476,118.02283c0,3.71016 -3.04833,6.71785 -6.80863,6.71785c-3.7603,0 -6.80863,-3.00768 -6.80863,-6.71785c0,-3.71016 3.04833,-6.71785 6.80864,-6.71785c3.7603,0 6.80863,3.00768 6.80863,6.71785z"/></g><path d="M232.476,119.96831c0,1.61836 -1.38911,2.93029 -3.10267,2.93029c-1.71356,0 -3.10267,-1.31194 -3.10267,-2.93029c0,-1.61836 1.38911,-2.93029 3.10267,-2.93029c1.71356,0 3.10267,1.31195 3.10267,2.93029z" fill="#000000" stroke="none" stroke-width="0"/></g><g stroke-linecap="butt"><g fill="#ffffff" stroke="#c79070" stroke-width="5"><path d="M262.64949,118.93718c0,3.71016 -3.04833,6.71785 -6.80863,6.71785c-3.7603,0 -6.80863,-3.00768 -6.80863,-6.71785c0,-3.71016 3.04833,-6.71785 6.80864,-6.71785c3.7603,0 6.80863,3.00768 6.80863,6.71785z"/></g><path d="M262.64949,120.88266c0,1.61836 -1.38911,2.93029 -3.10267,2.93029c-1.71356,0 -3.10267,-1.31194 -3.10267,-2.93029c0,-1.61836 1.38911,-2.93029 3.10267,-2.93029c1.71356,0 3.10267,1.31195 3.10267,2.93029z" fill="#000000" stroke="none" stroke-width="0"/></g><path d="M220.61265,138.39416c0,2.40317 -3.02049,1.67359 -6.4712,1.67359c-3.45071,0 -6.02491,0.72958 -6.02491,-1.67359c0,-2.40317 2.79735,-4.35132 6.24805,-4.35132c3.45071,0 6.24805,1.94815 6.24805,4.35132z" fill="#c79070" stroke="none" stroke-width="0" stroke-linecap="butt"/><path d="M254.22871,172.06946c0,2.36912 -1.84216,4.28966 -4.11457,4.28966c-2.27241,0 -4.11457,-1.92055 -4.11457,-4.28966c0,-2.36912 1.84216,-4.28966 4.11457,-4.28966c2.27241,0 4.11457,1.92055 4.11457,4.28966z" fill="#ffffff" stroke="#e7e658" stroke-width="0" stroke-linecap="butt"/><path d="M236.24655,192.16245c0,2.86156 -2.11507,5.18131 -4.72414,5.18131c-2.60907,0 -4.72414,-2.31975 -4.72414,-5.18131c0,-2.86156 2.11507,-5.18131 4.72414,-5.18131c2.60907,0 4.72414,2.31975 4.72414,5.18131z" fill="#ffffff" stroke="none" stroke-width="0" stroke-linecap="butt"/><path d="M258.19088,191.85767c0,2.52491 -1.63747,4.57175 -3.6574,4.57175c-2.01993,0 -3.6574,-2.04684 -3.6574,-4.57175c0,-2.52491 1.63747,-4.57175 3.6574,-4.57175c2.01993,0 3.6574,2.04684 3.6574,4.57175z" fill="#ffffff" stroke="none" stroke-width="0" stroke-linecap="butt"/><path d="M214.60696,199.47724c0,2.69323 -1.91039,4.87653 -4.26696,4.87653c-2.35658,0 -4.26696,-2.1833 -4.26696,-4.87653c0,-2.69323 1.91039,-4.87653 4.26696,-4.87653c2.35658,0 4.26696,2.1833 4.26696,4.87653z" fill="#ffffff" stroke="none" stroke-width="0" stroke-linecap="butt"/><path d="M228.62697,182.86656c0,2.44074 -1.91039,4.41936 -4.26696,4.41936c-2.35658,0 -4.26696,-1.97862 -4.26696,-4.41936c0,-2.44074 1.91039,-4.41936 4.26696,-4.41936c2.35658,0 4.26696,1.97862 4.26696,4.41936z" fill="#ffffff" stroke="none" stroke-width="0" stroke-linecap="butt"/><path d="M250.57132,200.69638c0,3.87152 -3.13849,7.01001 -7.01001,7.01001c-3.87152,0 -7.01001,-3.13849 -7.01001,-7.01001c0,-3.87152 3.13849,-7.01001 7.01001,-7.01001c3.87152,0 7.01001,3.13849 7.01001,7.01001z" fill="#ffffff" stroke="none" stroke-width="0" stroke-linecap="butt"/><path d="M242.647,177.53286c0,3.02989 -2.04684,5.4861 -4.57175,5.4861c-2.52491,0 -4.57175,-2.45621 -4.57175,-5.4861c0,-3.02989 2.04684,-5.4861 4.57175,-5.4861c2.52491,0 4.57175,2.45621 4.57175,5.4861z" fill="#ffffff" stroke="none" stroke-width="0" stroke-linecap="butt"/><path d="M269.37791,139.61331c0,2.40317 -3.02049,1.67359 -6.4712,1.67359c-3.45071,0 -6.02491,0.72959 -6.02491,-1.67359c0,-2.40317 2.79735,-4.35133 6.24805,-4.35133c3.45071,0 6.24805,1.94816 6.24805,4.35133z" fill="#c79070" stroke="none" stroke-width="0" stroke-linecap="butt"/><path d="M241.2046,128.37254c0,0 4.76819,11.00274 4.85883,15.71617c0.10008,5.204 -4.28387,14.18205 -4.28387,14.18205" fill="none" stroke="#c79070" stroke-width="2.5" stroke-linecap="round"/><path d="M250.94733,129.69281c0,4.6734 -4.79487,8.46194 -10.70964,8.46194c-5.91477,0 -10.70964,-3.78854 -10.70964,-8.46194c0,-4.6734 4.79487,-2.37992 10.70964,-2.37992c5.91477,0 10.70964,-2.29348 10.70964,2.37992z" fill="#bb6066" stroke="none" stroke-width="0" stroke-linecap="butt"/><path d="M265.63772,119.04412c0,5.23589 -4.41208,9.48043 -9.85466,9.48043c-5.44257,0 -9.85466,-4.24453 -9.85466,-9.48043c0,-5.23589 4.41208,-9.48043 9.85466,-9.48043c5.44257,0 9.85466,4.24453 9.85466,9.48043z" fill="none" stroke="#b35d88" stroke-width="2" stroke-linecap="butt"/><path d="M235.15941,117.6218c0,5.2359 -4.41208,9.48043 -9.85466,9.48043c-5.44258,0 -9.85465,-4.24453 -9.85465,-9.48043c0,-5.2359 4.41208,-9.48043 9.85465,-9.48043c5.44258,0 9.85466,4.24453 9.85466,9.48043z" fill="none" stroke="#b35d88" stroke-width="2" stroke-linecap="butt"/><path d="M245.92841,118.30081l-10.56581,-0.20319" fill="none" stroke="#b35d88" stroke-width="2" stroke-linecap="round"/><path d="M251.11466,136.01972l7.24907,-2.51499" fill="none" stroke="#fff0cb" stroke-width="2.5" stroke-linecap="round"/><path d="M256.88433,138.97852l-3.84644,0.88764" fill="none" stroke="#fff0cb" stroke-width="2.5" stroke-linecap="round"/><path d="M253.18583,142.08527" fill="none" stroke="#fff0cb" stroke-width="2.5" stroke-linecap="round"/><path d="M257.77197,147.11523l-6.36143,-3.40262" fill="none" stroke="#fff0cb" stroke-width="2.5" stroke-linecap="round"/><path d="M225.37307,135.5759l6.06554,2.36704" fill="none" stroke="#fff0cb" stroke-width="2.5" stroke-linecap="round"/><path d="M225.52101,142.67702l6.06554,-1.33146" fill="none" stroke="#fff0cb" stroke-width="2.5" stroke-linecap="round"/><path d="M233.36184,144.45231l-7.24907,3.99438" fill="none" stroke="#fff0cb" stroke-width="2.5" stroke-linecap="round"/><path d="M253.32157,149.17494c1.04015,0.52008 0.52008,1.56023 0.52008,1.56023l-0.58965,1.15922c-1.6678,2.49887 -3.13255,5.51836 -5.98648,6.95638c-1.59846,0.80542 -3.91001,0.51392 -5.58866,0.21737c-3.6014,-0.63625 -7.85203,-1.7811 -10.57224,-4.42911c-0.09462,-0.09211 -1.73199,-2.72526 -1.86978,-2.94573c0,0 -0.61635,-0.98616 0.36981,-1.60251c0.98616,-0.61635 1.60251,0.36981 1.60251,0.36981c0.53277,0.85244 0.8549,1.87144 1.57762,2.57012c2.35443,2.27611 6.19975,3.19284 9.28566,3.74511c1.13733,0.20355 3.09817,0.56031 4.20113,-0.02781c2.38745,-1.27305 3.63483,-4.02591 5.04522,-6.14376l0.44457,-0.90922c0,0 0.52008,-1.04015 1.56023,-0.52008z" fill="#b54865" stroke="none" stroke-width="0.5" stroke-linecap="butt"/></g></g></svg>