<svg version="1.1" xmlns="http://www.w3.org/2000/svg" xmlns:xlink="http://www.w3.org/1999/xlink" width="105.21081" height="148.64042" viewBox="0,0,105.21081,148.64042"><g transform="translate(-187.39459,-105.68155)"><g data-paper-data="{&quot;isPaintingLayer&quot;:true}" fill-rule="nonzero" stroke-linejoin="miter" stroke-miterlimit="10" stroke-dasharray="" stroke-dashoffset="0" style="mix-blend-mode: normal"><path d="" fill="#9966ff" stroke="none" stroke-width="0.5" stroke-linecap="butt"/><path d="" fill="#fff0cb" stroke="#c79070" stroke-width="0" stroke-linecap="butt"/><g stroke-linecap="butt"><path d="M219.11611,207.95074c1.89771,5.50755 -2.68974,12.08306 -10.24636,14.68681c-7.55662,2.60375 -15.22087,0.24976 -17.11859,-5.25779c-1.89771,-5.50755 6.15774,-3.57692 13.71437,-6.18067c7.55662,-2.60375 11.75287,-8.7559 13.65058,-3.24836z" fill="#df996e" stroke="#ad6539" stroke-width="5"/><path d="M200.96376,222.26228c-0.66317,0.1047 -1.8653,-0.09519 -2.50284,-0.1569c-2.28422,-0.22107 -4.57319,-2.30311 -5.11224,-4.01233c-0.27941,-0.88598 -1.32019,-1.55196 -0.84465,-2.31951c0.69791,-1.12648 3.29168,-2.22255 5.0993,-2.50795c2.27525,-0.35923 0.12284,1.066 -0.04095,2.61775c-0.055,0.52107 2.80966,0.62698 2.98299,1.17657c0.2422,0.768 -2.03415,1.82869 -1.54586,2.36677c0.90173,0.99366 3.93588,2.52431 1.96426,2.8356z" fill="#fdfad2" stroke="none" stroke-width="0"/></g><g stroke-width="4" stroke-linecap="butt"><path d="M225.20333,245.14917v-18.21405h6.8676v18.21405z" fill="#df996e" stroke="#ad6539"/><path d="M243.11879,249.48472c0,3.79286 -4.97752,2.68731 -10.74927,2.68731c-5.77175,0 -10.1521,1.10555 -10.1521,-2.68731c0,-3.79286 4.67893,-6.86759 10.45068,-6.86759c5.77176,0 10.45068,3.07472 10.45068,6.86759z" fill="#ffffff" stroke="#c8c8c8"/></g><g stroke-width="4" stroke-linecap="butt"><path d="M250.13364,245.29649v-18.21405h6.86759v18.21405z" fill="#df996e" stroke="#ad6539"/><path d="M269.10442,249.00386c0,3.79287 -4.97752,2.68731 -10.74928,2.68731c-5.77175,0 -10.15209,1.10555 -10.15209,-2.68731c0,-3.79287 4.67893,-6.86759 10.45068,-6.86759c5.77176,0 10.45068,3.07472 10.45068,6.86759z" fill="#ffffff" stroke="#c8c8c8"/></g><g fill="#ffffff" stroke-linecap="butt"><path d="M268.05173,196.1417c0,15.12434 -13.33451,30.79653 -29.31975,30.79653c-15.98525,0 -30.25948,-19.08368 -30.25948,-34.20802c0,-15.12434 15.51646,-0.7754 31.50171,-0.7754c15.98525,0 28.07753,-10.93744 28.07753,4.1869z" stroke="#c8c8c8" stroke-width="4"/><path d="M247.75346,228.09993v-9.5853h10.52504v9.5853z" stroke="#c8c8c8" stroke-width="4"/><path d="M257.15079,218.51465c0,3.11401 -3.53417,5.63841 -7.89378,5.63841c-4.35961,0 -7.89378,-2.5244 -7.89378,-5.63841c0,-3.11401 3.53417,-5.63842 7.89378,-5.63842c4.35961,0 7.89378,2.52441 7.89378,5.63842z" stroke="none" stroke-width="0"/><path d="M222.66127,228.94445v-9.5853h10.52504v9.5853z" stroke="#c8c8c8" stroke-width="4"/><path d="M248.8811,217.85684c0,3.78872 -5.89027,6.86007 -13.1563,6.86007c-7.26602,0 -13.1563,-3.07136 -13.1563,-6.86007c0,-3.78872 5.89027,-6.86007 13.1563,-6.86007c7.26602,0 13.1563,3.07136 13.1563,6.86007z" stroke="none" stroke-width="0"/></g><path d="M268.27064,201.2842c0,2.2018 -3.1505,2.88634 -4.45455,4.81975c-0.85472,1.26725 0.47248,3.88108 -0.85159,4.98026c-1.15468,0.95856 -4.40153,0.22221 -5.86192,1.0232c-2.6306,1.44284 -3.79107,4.23064 -7.19668,5.03628c-1.59373,0.37701 -3.8657,-2.97649 -5.58431,-2.76506c-1.98084,0.24369 -3.42648,4.02379 -5.53233,4.02379c-3.47417,0 -4.57628,-3.18929 -7.67146,-3.83009c-1.97328,-0.40853 -6.08129,1.90466 -7.83512,1.27366c-2.36043,-0.84926 -2.97744,-4.72697 -4.83215,-5.91638c-2.62991,-1.68652 -6.27405,0.44318 -8.00264,-0.97303c-1.38438,-1.1342 -1.14001,-5.7068 -1.14001,-7.67238c0,-9.45414 13.19927,-17.11823 29.48138,-17.11823c16.28212,0 29.48138,7.66409 29.48138,17.11823z" fill="#ff87c6" stroke="#d25597" stroke-width="4" stroke-linecap="butt"/><path d="M267.8435,187.59017c0,18.26553 -11.3363,20.99635 -27.63881,20.99635c-16.3025,0 -31.39776,-2.73082 -31.39776,-20.99635c0,-18.26553 13.21579,-33.07266 29.51829,-33.07266c16.3025,0 29.51827,14.80714 29.51827,33.07266z" fill="#ff87c6" stroke="#d25597" stroke-width="4" stroke-linecap="butt"/><g stroke-width="4" stroke-linecap="butt"><path d="M195.48828,187.69645l11.27011,-10.51209l4.35867,4.67297l-11.27011,10.51209z" data-paper-data="{&quot;index&quot;:null}" fill="#df996e" stroke="#ad6539"/><path d="M205.36792,175.34918c3.29935,-3.28141 7.75414,-4.15163 9.95007,-1.9437c2.19593,2.20793 1.30143,6.65792 -1.99792,9.93932c-3.29935,3.28141 -4.18203,0.86402 -6.37796,-1.34391c-2.19593,-2.20793 -4.87354,-3.37031 -1.57419,-6.65172z" data-paper-data="{&quot;index&quot;:null}" fill="#ff87c6" stroke="#d25597"/><path d="M201.42321,191.35507c0,3.42541 -2.69269,6.20226 -6.01431,6.20226c-3.32161,0 -6.01431,-2.77685 -6.01431,-6.20226c0,-3.42541 2.6927,-6.20225 6.01431,-6.20225c3.32161,0 6.01431,2.77684 6.01431,6.20225z" fill="#df996e" stroke="#ad6539"/></g><g stroke-width="4" stroke-linecap="butt"><path d="M279.61043,196.19765l-12.30508,-9.27925l3.8475,-5.10211l12.30508,9.27925z" fill="#df996e" stroke="#ad6539"/><path d="M274.27304,180.33109c3.29935,3.28141 0.62174,4.44378 -1.5742,6.65172c-2.19593,2.20793 -3.07862,4.62532 -6.37796,1.34391c-3.29935,-3.28141 -4.19383,-7.73139 -1.99791,-9.93932c2.19593,-2.20793 6.65073,-1.33771 9.95007,1.9437z" fill="#ff87c6" stroke="#d25597"/><path d="M290.60541,196.14896c0,3.42541 -2.69269,6.20225 -6.01431,6.20225c-3.32161,0 -6.01431,-2.77684 -6.01431,-6.20225c0,-3.42541 2.6927,-6.20226 6.01431,-6.20226c3.32161,0 6.01431,2.77685 6.01431,6.20226z" fill="#df996e" stroke="#ad6539"/></g><path d="M251.53108,175.44533c0,1.97129 -1.53281,3.56933 -3.42364,3.56933c-1.89083,0 -3.42364,-1.59804 -3.42364,-3.56933c0,-1.97129 1.53282,-3.56933 3.42364,-3.56933c1.89083,0 3.42364,1.59805 3.42364,3.56933z" fill="#ffffff" stroke="#e7e658" stroke-width="0" stroke-linecap="butt"/><path d="M241.8942,179.9913c0,2.5211 -1.70313,4.56486 -3.80405,4.56486c-2.10092,0 -3.80405,-2.04376 -3.80405,-4.56486c0,-2.5211 1.70313,-4.56485 3.80405,-4.56485c2.10092,0 3.80405,2.04375 3.80405,4.56485z" fill="#ffffff" stroke="none" stroke-width="0" stroke-linecap="butt"/><path d="M228.13644,155.78935l6.03178,-3.32364" fill="none" stroke="#fff0cb" stroke-width="2.5" stroke-linecap="round"/><g><path d="M236.01746,118.10188c0,0 0.76391,-0.89821 2.17807,-2.60499c1.1689,-1.41074 3.53421,-7.68337 4.42155,-7.81533c1.39624,-0.20764 4.05813,8.83535 4.05813,8.83535l-3.85646,10.14422z" data-paper-data="{&quot;index&quot;:null}" fill="#df996e" stroke="#ad6539" stroke-width="4" stroke-linecap="round"/><path d="M212.55231,131.03661l-3.85646,-10.14422c0,0 2.66189,-9.043 4.05813,-8.83535c0.88734,0.13196 3.25265,6.40458 4.42155,7.81533c1.41417,1.70677 2.17808,2.605 2.17808,2.605z" fill="#df996e" stroke="#ad6539" stroke-width="4" stroke-linecap="round"/><path d="M259.17792,148.41601c0,4.08653 22.14275,3.85443 21.1876,7.5148c-1.72463,6.60916 -0.65807,16.41478 -10.03008,21.6198c-10.65152,5.91564 -32.10893,6.80911 -38.48459,6.80911c-15.09232,0 -27.32707,-16.09255 -27.32707,-35.94371c0,-19.85116 12.23475,-35.94371 27.32707,-35.94371c15.09233,0 27.32707,16.09255 27.32707,35.94371z" fill="#df996e" stroke="#ad6539" stroke-width="4" stroke-linecap="butt"/><path d="M258.79067,148.87151c0,3.98715 21.60428,3.7607 20.67236,7.33205c-1.68269,6.44843 -0.64206,16.01561 -9.78616,21.09406c-10.39249,5.77178 -31.3281,6.64353 -37.54871,6.64353c-11.10514,0 -20.62456,-8.93001 -24.63399,-21.62839c-1.30704,-4.13956 -2.02854,-8.67958 -2.02854,-13.44124c0,-4.70736 10.71123,-1.84669 11.99015,-5.94803c3.98317,-12.77364 1.17759,-26.16061 12.32401,-26.16061c1.30601,0 1.86412,5.3326 2.48357,8.40741c0.47502,2.35787 2.82398,5.34567 3.73608,5.65658c0.57577,0.19627 4.9907,-1.59052 5.79736,-2.47711c2.10624,-2.31495 2.32392,-11.13432 3.6408,-10.17785c8.08529,5.87241 13.35307,17.36906 13.35307,30.69962z" fill="#fdf9d5" stroke="#799794" stroke-width="0" stroke-linecap="butt"/></g><path d="M280.18467,154.36433c-0.07729,0.53427 0.19338,1.43711 0.47677,1.98951c0.74993,1.46175 0.73226,3.83665 0.65158,5.38927c-0.08654,1.6655 0.10155,3.91753 -0.89278,5.65771c-0.45519,0.79664 -2.52346,1.0537 -2.55865,1.8646c-1.71954,0.18183 -3.25726,0.33862 -4.75038,0.28561c0.00644,-0.12474 0.01291,-0.24654 0.01989,-0.36467c0.31045,-5.25244 -0.17792,-10.31109 -0.07942,-15.57645c0.01039,-0.55553 0.04839,-1.1109 0.08715,-1.66531c3.60897,0.72086 7.30807,0.60712 7.04583,2.41974z" fill="#3b3324" stroke="#0e0c09" stroke-width="4" stroke-linecap="butt"/><path d="M224.71976,145.89511c0,1.72858 -1.21099,0.76689 -2.89087,0.76689c-1.67988,0 -3.19252,0.96168 -3.19252,-0.76689c0,-1.72858 1.36181,-3.12986 3.04169,-3.12986c1.67988,0 3.0417,1.40128 3.0417,3.12986z" fill="#ffa694" stroke="#e29384" stroke-width="2" stroke-linecap="butt"/><path d="M257.67528,145.46744c0,1.72858 -1.21098,0.76689 -2.89086,0.76689c-1.67988,0 -3.19253,0.96169 -3.19253,-0.76689c0,-1.72858 1.36181,-3.12986 3.0417,-3.12986c1.67988,0 3.04169,1.40129 3.04169,3.12986z" fill="#ffa694" stroke="#e29384" stroke-width="2" stroke-linecap="butt"/><g stroke-linecap="butt"><g fill="#ffffff" stroke="#ad6539" stroke-width="4"><path d="M254.04592,132.7203c0,3.08714 -2.53645,5.58977 -5.66531,5.58977c-3.12886,0 -5.66531,-2.50262 -5.66531,-5.58977c0,-3.08714 2.53644,-5.58978 5.66531,-5.58978c3.12886,0 5.66531,2.50263 5.66531,5.58978z"/></g><path d="M254.04592,134.33911c0,1.34661 -1.15585,2.43823 -2.58166,2.43823c-1.42581,0 -2.58167,-1.09164 -2.58167,-2.43823c0,-1.34661 1.15585,-2.43823 2.58167,-2.43823c1.42581,0 2.58166,1.09164 2.58166,2.43823z" fill="#000000" stroke="none" stroke-width="0"/></g><g stroke-linecap="butt"><g fill="#ffffff" stroke="#ad6539" stroke-width="4"><path d="M233.43111,133.84538c0,3.08714 -2.53644,5.58977 -5.66531,5.58977c-3.12886,0 -5.66531,-2.50262 -5.66531,-5.58977c0,-3.08714 2.53645,-5.58977 5.66531,-5.58977c3.12886,0 5.66531,2.50262 5.66531,5.58977z"/></g><path d="M233.43111,135.46417c0,1.3466 -1.15585,2.43823 -2.58166,2.43823c-1.42581,0 -2.58166,-1.09164 -2.58166,-2.43823c0,-1.34661 1.15585,-2.43824 2.58166,-2.43824c1.42581,0 2.58166,1.09164 2.58166,2.43824z" fill="#000000" stroke="none" stroke-width="0"/></g><path d="M250.41663,157.00841c0.86549,0.43274 0.43274,1.29823 0.43274,1.29823l-0.49064,0.96456c-1.38774,2.07926 -2.60652,4.59171 -4.98122,5.78826c-1.33005,0.67018 -3.25343,0.42762 -4.65019,0.18086c-2.99665,-0.52941 -6.5335,-1.48201 -8.79693,-3.68536c-0.07873,-0.07665 -1.44116,-2.26763 -1.55581,-2.45108c0,0 -0.51285,-0.82056 0.30772,-1.33341c0.82056,-0.51285 1.33341,0.30771 1.33341,0.30771c0.44331,0.70929 0.71134,1.55717 1.3127,2.13854c1.95907,1.8939 5.15867,2.65669 7.72639,3.11623c0.94634,0.16937 2.57792,0.46623 3.49567,-0.02314c1.98654,-1.05928 3.02446,-3.34987 4.19801,-5.11209l0.36992,-0.75655c0,0 0.43274,-0.86549 1.29823,-0.43274z" fill="#b54865" stroke="none" stroke-width="0.5" stroke-linecap="butt"/><g fill="#ff87c6" stroke="#d25597" stroke-width="4" stroke-linecap="butt"><path d="M234.9638,110.82171c0.85741,-0.10038 1.78597,-1.86678 2.39431,-1.34699c0.5503,0.4702 0.81788,3.18201 0.90869,3.95762c0.07794,0.66567 0.5989,3.255 0.28554,3.79265c-0.45536,0.78131 -1.92883,-0.6029 -2.89617,-0.48965c-0.6838,0.08006 -1.78712,-0.42048 -2.89466,-0.63199c-1.53741,-0.2936 -3.04955,-0.44273 -3.16068,-1.39193c-0.09597,-0.81973 0.96646,-0.70486 2.13336,-1.45076c1.15771,-0.74004 2.41634,-2.34373 3.22962,-2.43895z"/><path d="M224.20551,113.07419c1.1669,0.74591 2.22933,0.63103 2.13336,1.45076c-0.11113,0.9492 -1.62328,1.09833 -3.16068,1.39194c-1.10755,0.21151 -2.21086,0.71205 -2.89466,0.63198c-0.96734,-0.11326 -2.4408,1.27096 -2.89617,0.48965c-0.31336,-0.53765 0.2076,-3.12699 0.28554,-3.79266c0.09081,-0.7756 0.3584,-3.48742 0.90869,-3.95762c0.60833,-0.51979 1.53691,1.24661 2.39431,1.34699c0.81328,0.09522 2.0719,1.69891 3.22962,2.43895z" data-paper-data="{&quot;index&quot;:null}"/><path d="M234.0103,114.35025c0,6.3865 -2.52676,5.3504 -5.87369,5.3504c-3.34693,0 -6.24662,1.03609 -6.24662,-5.3504c0,-6.3865 2.89969,-5.00522 6.24662,-5.00522c3.34694,0 5.87369,-1.38128 5.87369,5.00522z"/></g></g></g></svg>