<svg version="1.1" xmlns="http://www.w3.org/2000/svg" xmlns:xlink="http://www.w3.org/1999/xlink" width="110.65449" height="144.85317" viewBox="0,0,110.65449,144.85317"><g transform="translate(-184.62898,-111.38107)"><g data-paper-data="{&quot;isPaintingLayer&quot;:true}" fill-rule="nonzero" stroke-linejoin="miter" stroke-miterlimit="10" stroke-dasharray="" stroke-dashoffset="0" style="mix-blend-mode: normal"><g stroke-linecap="butt"><path d="M232.92142,214.16539c4.05193,4.18524 2.68158,12.08487 -3.06077,17.64432c-5.74235,5.55945 -13.68219,6.67346 -17.73412,2.48822c-4.05193,-4.18524 4.06296,-5.84846 9.80531,-11.40792c5.74235,-5.55945 6.93765,-12.90986 10.98958,-8.72463z" fill="#df996e" stroke="#ad6539" stroke-width="5"/><path d="M222.53997,234.81857c-0.55639,0.37575 -1.73002,0.70387 -2.33368,0.91801c-2.16282,0.76729 -5.11822,-0.14919 -6.33051,-1.46918c-0.62838,-0.68422 -1.85328,-0.84666 -1.74763,-1.74338c0.15506,-1.31605 2.04038,-3.4076 3.55694,-4.4318c1.90889,-1.28915 0.5628,0.91361 1.07172,2.38866c0.17089,0.49532 2.81074,-0.62215 3.20054,-0.19771c0.54471,0.59311 -1.06807,2.51817 -0.39782,2.79875c1.23773,0.51816 4.6346,0.61952 2.98044,1.73664z" fill="#fdfad2" stroke="none" stroke-width="0"/></g><g stroke-width="4" stroke-linecap="butt"><path d="M238.85575,243.23638l5.00716,-17.51229l6.603,1.88795l-5.00716,17.51229z" fill="#df996e" stroke="#ad6539"/><path d="M254.88909,252.32995c-1.04268,3.64673 -5.5245,1.21542 -11.07388,-0.37127c-5.54937,-1.58669 -10.06487,-1.72792 -9.02218,-5.37465c1.04268,-3.64673 6.3866,-5.31672 11.93597,-3.73003c5.54938,1.58669 9.20277,5.82921 8.16009,9.47595z" fill="#ffffff" stroke="#c8c8c8"/></g><g stroke-width="4" stroke-linecap="butt"><path d="M266.39331,233.64869l3.60304,-17.85412l6.73188,1.35852l-3.60304,17.85412z" fill="#df996e" stroke="#ad6539"/><path d="M284.25583,241.03554c-0.75029,3.71792 -5.41076,1.64957 -11.06846,0.50782c-5.65769,-1.14175 -10.17017,-0.92455 -9.41988,-4.64246c0.75029,-3.71792 5.94499,-5.80631 11.60268,-4.66456c5.6577,1.14175 9.63593,5.08128 8.88564,8.7992z" fill="#ffffff" stroke="#c8c8c8"/></g><g fill="#ffffff" stroke-linecap="butt"><path d="M272.24819,182.74005c6.40632,13.70053 0.96551,33.54554 -13.51488,40.31653c-14.48039,6.77098 -35.49427,-4.46992 -41.9006,-18.17046c-6.40632,-13.70053 13.7273,-7.27482 28.20769,-14.04581c14.48039,-6.77098 20.80146,-21.80079 27.20779,-8.10025z" stroke="#c8c8c8" stroke-width="4"/><path d="M267.39758,220.28761l-4.06011,-8.68294l9.53421,-4.45817l4.06011,8.68294z" stroke="#c8c8c8" stroke-width="4"/><path d="M271.85014,207.6242c1.31902,2.82086 -0.81316,6.6046 -4.76236,8.45123c-3.9492,1.84663 -8.21993,1.05687 -9.53896,-1.76399c-1.31902,-2.82086 0.81315,-6.6046 4.76235,-8.45124c3.9492,-1.84663 8.21994,-1.05687 9.53896,1.76399z" stroke="none" stroke-width="0"/><path d="M245.02528,231.68111l-4.06011,-8.68294l9.53421,-4.45817l4.06011,8.68294z" stroke="#c8c8c8" stroke-width="4"/><path d="M264.08033,210.53117c1.60481,3.43205 -2.42999,8.70925 -9.012,11.78697c-6.582,3.07772 -13.21872,2.79049 -14.82354,-0.64156c-1.60481,-3.43205 2.42999,-8.70925 9.012,-11.78697c6.582,-3.07772 13.21872,-2.79049 14.82354,0.64156z" stroke="none" stroke-width="0"/></g><path d="M274.62474,187.30572c0.93263,1.99452 -1.63133,3.9491 -1.99366,6.25286c-0.23749,1.50999 2.07194,3.31558 1.3381,4.87213c-0.63995,1.35742 -3.89304,2.06568 -4.87667,3.40985c-1.7718,2.42128 -1.64218,5.43817 -4.38593,7.61051c-1.284,1.01659 -4.76256,-1.05886 -6.22982,-0.13936c-1.69114,1.05979 -1.39953,5.09637 -3.30714,5.98836c-3.14711,1.47158 -5.49638,-0.95064 -8.57161,-0.22008c-1.96056,0.46577 -4.70202,4.30125 -6.55803,4.47254c-2.49795,0.23052 -4.69937,-3.0208 -6.88329,-3.31262c-3.0967,-0.41379 -5.49569,3.059 -7.66143,2.5083c-1.73448,-0.44103 -3.44996,-4.68667 -4.28253,-6.46722c-4.00456,-8.56412 4.7058,-21.09762 19.45512,-27.99436c14.74932,-6.89673 29.95234,-5.54505 33.9569,3.01908z" fill="#ff87c6" stroke="#d25597" stroke-width="4" stroke-linecap="butt"/><path d="M268.43734,175.08176c7.73686,16.54601 -1.37553,23.82155 -16.14332,30.72692c-14.76779,6.90537 -29.59869,10.82564 -37.33555,-5.72038c-7.73686,-16.54601 -2.03717,-35.55711 12.73061,-42.46248c14.76779,-6.90537 33.01139,0.90993 40.74825,17.45594z" fill="#ff87c6" stroke="#d25597" stroke-width="4" stroke-linecap="butt"/><g stroke-width="4" stroke-linecap="butt"><path d="M202.93865,205.82605l5.75646,-14.29624l5.92771,2.38682l-5.75645,14.29625z" data-paper-data="{&quot;index&quot;:null}" fill="#df996e" stroke="#ad6539"/><path d="M206.6582,190.45637c1.59881,-4.37003 5.26563,-7.04527 8.19007,-5.97535c2.92443,1.06993 3.99905,5.47988 2.40024,9.84991c-1.59881,4.37003 -3.42235,2.55409 -6.34678,1.48416c-2.92443,-1.06993 -5.84232,-0.98871 -4.24351,-5.35873z" data-paper-data="{&quot;index&quot;:null}" fill="#ff87c6" stroke="#d25597"/><path d="M209.86457,206.62635c1.45093,3.10294 0.18794,6.75894 -2.82098,8.1659c-3.00892,1.40696 -6.62433,0.03208 -8.07525,-3.07086c-1.45093,-3.10294 -0.18792,-6.75894 2.82099,-8.16589c3.00892,-1.40696 6.62432,-0.03209 8.07525,3.07085z" fill="#df996e" stroke="#ad6539"/></g><g stroke-width="4" stroke-linecap="butt"><path d="M282.74246,177.89473l-15.07716,-3.19355l1.32416,-6.2515l15.07716,3.19355z" fill="#df996e" stroke="#ad6539"/><path d="M271.18682,165.78264c4.37868,1.57497 2.4455,3.76209 1.39151,6.69232c-1.05397,2.93022 -0.82962,5.49393 -5.20829,3.91895c-4.37868,-1.57497 -7.07386,-5.22715 -6.01989,-8.15737c1.05397,-2.93022 5.458,-4.02888 9.83668,-2.45391z" fill="#ff87c6" stroke="#d25597"/><path d="M292.68174,173.19341c1.45093,3.10294 0.18793,6.75893 -2.82099,8.16589c-3.00891,1.40696 -6.62432,0.03209 -8.07525,-3.07085c-1.45093,-3.10294 -0.18792,-6.75894 2.82099,-8.1659c3.00891,-1.40696 6.62433,-0.03209 8.07525,3.07085z" fill="#df996e" stroke="#ad6539"/></g><path d="M248.51629,170.9898c0.83499,1.78571 0.12337,3.88258 -1.58946,4.68349c-1.71283,0.80091 -3.77823,0.00257 -4.61323,-1.78314c-0.83499,-1.78571 -0.12337,-3.88258 1.58945,-4.68349c1.71283,-0.80091 3.77824,-0.00258 4.61323,1.78314z" fill="#ffffff" stroke="#e7e658" stroke-width="0" stroke-linecap="butt"/><path d="M241.7122,179.18978c1.06788,2.28376 0.39077,4.85653 -1.51237,5.74643c-1.90314,0.8899 -4.31163,-0.24005 -5.37951,-2.52382c-1.06788,-2.28376 -0.39077,-4.85653 1.51237,-5.74643c1.90314,-0.8899 4.31162,0.24005 5.37951,2.52381z" fill="#ffffff" stroke="none" stroke-width="0" stroke-linecap="butt"/><path d="M218.9982,163.09367l4.05613,-5.56568" fill="none" stroke="#fff0cb" stroke-width="2.5" stroke-linecap="round"/><g><path d="M210.17375,125.61587c0,0 0.31153,-1.13723 0.86962,-3.28234c0.4613,-1.77305 -0.05301,-8.45707 0.69491,-8.95247c1.17684,-0.7795 7.41856,6.28466 7.41856,6.28466l0.80345,10.82276z" data-paper-data="{&quot;index&quot;:null}" fill="#df996e" stroke="#ad6539" stroke-width="4" stroke-linecap="round"/><path d="M194.39647,147.27224l-7.79027,-7.55574c0,0 -1.41911,-9.31921 -0.06635,-9.72253c0.85971,-0.25632 5.65929,4.42391 7.3157,5.20673c2.00399,0.94708 3.07645,1.43718 3.07645,1.43718z" fill="#df996e" stroke="#ad6539" stroke-width="4" stroke-linecap="round"/><path d="M243.99426,143.266c1.73096,3.70182 21.69088,-5.88758 22.37609,-2.16722c1.23721,6.71748 6.35681,15.14824 0.07181,23.83302c-7.14306,9.87048 -26.20201,19.76871 -31.97747,22.46929c-13.67153,6.39276 -31.57093,-3.00247 -39.97943,-20.98485c-8.4085,-17.98238 -4.14196,-37.74233 9.52957,-44.13509c13.67154,-6.39277 31.57093,3.00247 39.97943,20.98485z" fill="#df996e" stroke="#ad6539" stroke-width="4" stroke-linecap="butt"/><path d="M243.8364,143.84265c1.68887,3.6118 21.1634,-5.74442 21.83195,-2.11453c1.20713,6.55413 6.20222,14.77986 0.07007,23.25346c-6.96935,9.63045 -25.56483,19.28797 -31.19983,21.92288c-10.0597,4.70388 -22.46551,0.64675 -31.47624,-9.1579c-2.93742,-3.19622 -5.51404,-7.00324 -7.53097,-11.31664c-1.99393,-4.26421 8.92066,-6.20987 8.34194,-10.46684c-1.80243,-13.25831 -10.0143,-24.19665 0.08279,-28.91802c1.18307,-0.5532 3.9474,4.041 5.81096,6.56395c1.42904,1.93469 4.82243,3.64626 5.78036,3.54155c0.6047,-0.0661 3.84717,-3.55473 4.20235,-4.69954c0.9274,-2.98918 -2.6111,-11.07049 -1.01305,-10.76187c9.81156,1.89483 19.45315,10.07788 25.09967,22.1535z" fill="#fdf9d5" stroke="#799794" stroke-width="0" stroke-linecap="butt"/></g><path d="M265.543,139.75637c0.15629,0.51671 0.7839,1.21991 1.2746,1.60026c1.29849,1.00648 2.28844,3.1653 2.87301,4.60593c0.62707,1.54537 1.75137,3.50572 1.58774,5.50325c-0.0749,0.91445 -1.83958,2.02339 -1.52797,2.77285c-1.48064,0.89307 -2.80719,1.68644 -4.1822,2.27087c-0.04701,-0.11573 -0.09274,-0.22879 -0.13645,-0.33876c-1.94359,-4.88947 -4.52871,-9.26503 -6.66977,-14.07644c-0.22589,-0.50763 -0.42672,-1.02681 -0.62645,-1.54545c3.57456,-0.87567 6.87725,-2.54557 7.40748,-0.79251z" fill="#3b3324" stroke="#0e0c09" stroke-width="4" stroke-linecap="butt"/><path d="M211.71219,155.5781c0.73218,1.56585 -0.77215,1.20765 -2.29389,1.91921c-1.52174,0.71156 -2.48463,2.22343 -3.21682,0.65758c-0.73218,-1.56585 -0.09213,-3.41204 1.42962,-4.1236c1.52174,-0.71156 3.3489,-0.01903 4.08109,1.54682z" fill="#ffa694" stroke="#e29384" stroke-width="2" stroke-linecap="butt"/><path d="M241.38413,141.23149c0.73218,1.56585 -0.77214,1.20763 -2.29388,1.91919c-1.52173,0.71156 -2.48464,2.22344 -3.21682,0.65759c-0.73218,-1.56585 -0.09213,-3.41205 1.42962,-4.12361c1.52173,-0.71156 3.3489,-0.01902 4.08109,1.54683z" fill="#ffa694" stroke="#e29384" stroke-width="2" stroke-linecap="butt"/><g stroke-linecap="butt"><g fill="#ffffff" stroke="#ad6539" stroke-width="4"><path d="M232.69705,131.22168c1.30764,2.79652 0.07003,6.13793 -2.76428,7.46325c-2.83431,1.32531 -6.19203,0.13267 -7.49967,-2.66386c-1.30764,-2.79652 -0.07004,-6.13794 2.76427,-7.46325c2.83431,-1.32531 6.19204,-0.13267 7.49969,2.66386z"/></g><path d="M233.38273,132.68809c0.57039,1.21984 -0.01426,2.69828 -1.30584,3.30223c-1.29159,0.60394 -2.80102,0.10467 -3.37141,-1.11516c-0.57039,-1.21984 0.01427,-2.69828 1.30586,-3.30223c1.29159,-0.60394 2.80101,-0.10467 3.3714,1.11516z" fill="#000000" stroke="none" stroke-width="0"/></g><g stroke-linecap="butt"><g fill="#ffffff" stroke="#ad6539" stroke-width="4"><path d="M214.49946,140.97281c1.30764,2.79652 0.07004,6.13793 -2.76427,7.46325c-2.83431,1.32531 -6.19203,0.13267 -7.49967,-2.66386c-1.30764,-2.79652 -0.07003,-6.13793 2.76428,-7.46324c2.83431,-1.32531 6.19203,-0.13267 7.49967,2.66386z"/></g><path d="M215.18515,142.4392c0.57039,1.21983 -0.01426,2.69828 -1.30584,3.30223c-1.29159,0.60394 -2.80101,0.10466 -3.3714,-1.11516c-0.57039,-1.21984 0.01425,-2.69829 1.30584,-3.30223c1.29159,-0.60394 2.80102,-0.10466 3.3714,1.11517z" fill="#000000" stroke="none" stroke-width="0"/></g><path d="M239.6973,154.76058c0.96731,0.0254 0.9419,0.99272 0.9419,0.99272l-0.03588,1.08158c-0.37637,2.47133 -0.4162,5.26351 -2.06051,7.35328c-0.92096,1.17046 -2.76602,1.76544 -4.13582,2.13355c-2.93879,0.78975 -6.54618,1.42495 -9.52982,0.38776c-0.10378,-0.03608 -2.266,-1.44372 -2.44756,-1.56133c0,0 -0.81214,-0.52609 -0.28606,-1.33822c0.52608,-0.81215 1.33822,-0.28606 1.33822,-0.28606c0.70202,0.45474 1.30396,1.10928 2.09496,1.38119c2.57685,0.88579 5.79835,0.22149 8.31899,-0.44986c0.929,-0.24742 2.53272,-0.66961 3.15678,-1.50165c1.35084,-1.80102 1.32082,-4.3156 1.63745,-6.40902l0.01465,-0.84202c0,0 0.0254,-0.96731 0.99271,-0.9419z" fill="#b54865" stroke="none" stroke-width="0.5" stroke-linecap="butt"/><g fill="#ff87c6" stroke="#d25597" stroke-width="4" stroke-linecap="butt"><path d="M206.13556,119.46737c0.73417,-0.45411 0.82712,-2.44754 1.59836,-2.23436c0.69766,0.19284 2.08871,2.53603 2.4995,3.20016c0.35256,0.56999 1.92126,2.6949 1.86514,3.31466c-0.08155,0.90064 -2.00263,0.27087 -2.83093,0.7832c-0.58552,0.36216 -1.79698,0.37608 -2.88986,0.65362c-1.51704,0.38525 -2.95,0.89067 -3.45273,0.0779c-0.43415,-0.70191 0.57692,-1.04788 1.31801,-2.21783c0.73526,-1.16075 1.19612,-3.1466 1.89251,-3.57734z"/><path d="M197.34416,126.06476c1.37299,0.18142 2.28675,-0.37266 2.54704,0.41055c0.30139,0.90691 -1.00523,1.68252 -2.27355,2.59969c-0.91369,0.66073 -1.70112,1.58149 -2.35447,1.7986c-0.92425,0.30715 -1.67267,2.18518 -2.41612,1.6703c-0.51159,-0.35431 -1.13646,-2.92055 -1.34783,-3.55656c-0.24627,-0.74105 -1.15253,-3.31092 -0.85321,-3.96995c0.3309,-0.72853 1.92025,0.47825 2.73946,0.20601c0.77705,-0.25823 2.59647,0.66136 3.95867,0.84135z" data-paper-data="{&quot;index&quot;:null}"/><path d="M206.76644,123.06761c2.70517,5.78527 -0.02258,5.917 -3.05443,7.33468c-3.03185,1.41768 -5.2197,3.58448 -7.92487,-2.20079c-2.70517,-5.78527 0.50662,-5.76227 3.53847,-7.17995c3.03185,-1.41769 4.73566,-3.73921 7.44084,2.04606z"/></g></g></g></svg>