<svg version="1.1" xmlns="http://www.w3.org/2000/svg" xmlns:xlink="http://www.w3.org/1999/xlink" width="107.72013" height="172.78233" viewBox="0,0,107.72013,172.78233"><g transform="translate(-193.24872,-93.60885)"><g data-paper-data="{&quot;isPaintingLayer&quot;:true}" fill-rule="nonzero" stroke-linejoin="miter" stroke-miterlimit="10" stroke-dasharray="" stroke-dashoffset="0" style="mix-blend-mode: normal"><path d="" fill="#9966ff" stroke="none" stroke-width="0.5" stroke-linecap="butt"/><path d="M215.19169,101.70526c3.13625,4.80621 2.81065,10.57392 -0.72725,12.88255c-3.5379,2.30863 -8.94837,0.28395 -12.08463,-4.52226c-3.13625,-4.80621 -2.81065,-10.57392 0.72725,-12.88255c3.5379,-2.30863 8.94837,-0.28395 12.08463,4.52226z" fill="#82837e" stroke="#5a5b54" stroke-width="5" stroke-linecap="butt"/><path d="M266.99828,97.76029c3.5379,2.30863 3.8635,8.07634 0.72725,12.88255c-3.13625,4.80621 -8.54672,6.83089 -12.08462,4.52226c-3.5379,-2.30863 -3.8635,-8.07634 -0.72725,-12.88255c3.13625,-4.80621 8.54672,-6.83089 12.08463,-4.52226z" data-paper-data="{&quot;index&quot;:null}" fill="#82837e" stroke="#5a5b54" stroke-width="5" stroke-linecap="butt"/><path d="M218.22279,219.34075c0,5.02159 -4.32927,9.0924 -9.66969,9.0924c-5.34042,0 -9.66969,-4.0708 -9.66969,-9.0924c0,-5.02159 4.32927,-9.0924 9.66969,-9.0924c5.34042,0 9.66969,4.0708 9.66969,9.0924z" fill="#82837e" stroke="#5a5b54" stroke-width="5" stroke-linecap="butt"/><g stroke-width="5"><path d="M251.534,255.89491v-20.73096h7.81659v20.73096z" fill="#82837e" stroke="#5a5b54" stroke-linecap="butt"/><path d="M273.12622,260.11455c0,4.31699 -5.66534,3.05866 -12.23466,3.05866c-6.56932,0 -11.55496,1.25832 -11.55496,-3.05866c0,-4.31699 5.32549,-7.81659 11.89481,-7.81659c6.56933,0 11.89481,3.4996 11.89481,7.81659z" fill="#360a11" stroke="#0e0e0e" stroke-linecap="butt"/><path d="M261.38807,252.18582l0.78041,6.8676" fill="none" stroke="#ca909b" stroke-linecap="round"/><path d="M267.1631,252.96622l0.46824,5.61895" fill="none" stroke="#ca909b" stroke-linecap="round"/></g><g stroke-width="5"><path d="M223.15864,255.72723v-20.73096h7.81659v20.73096z" fill="#82837e" stroke="#5a5b54" stroke-linecap="butt"/><path d="M243.54975,260.66186c0,4.31698 -5.66534,3.05866 -12.23466,3.05866c-6.56932,0 -11.55496,1.25832 -11.55496,-3.05866c0,-4.31698 5.32549,-7.81659 11.89482,-7.81659c6.56932,0 11.89482,3.49961 11.89482,7.81659z" fill="#360a11" stroke="#0e0e0e" stroke-linecap="butt"/><path d="M230.30405,253.27839l0.46824,5.46287" fill="none" stroke="#ca909b" stroke-linecap="round"/><path d="M235.92299,259.05341l-0.62433,-5.93111" fill="none" stroke="#ca909b" stroke-linecap="round"/></g><g fill="#36659b" stroke-linecap="butt"><path d="M271.92807,199.94762c0,17.21429 -15.17713,35.05215 -33.3713,35.05215c-18.19417,0 -34.44089,-21.72076 -34.44089,-38.93506c0,-17.21429 17.6606,-0.88256 35.85477,-0.88256c18.19417,0 31.95742,-12.44883 31.95742,4.76547z" stroke="#595e89" stroke-width="5"/><path d="M248.82486,236.32204v-10.90985h11.97944v10.90985z" stroke="#595e89" stroke-width="5"/><path d="M259.52078,225.41219c0,3.54432 -4.02253,6.41756 -8.98458,6.41756c-4.96205,0 -8.98458,-2.87324 -8.98458,-6.41756c0,-3.54432 4.02253,-6.41756 8.98458,-6.41756c4.96205,0 8.98458,2.87324 8.98458,6.41756z" stroke="none" stroke-width="0"/><path d="M220.2653,237.28324v-10.90985h11.97944v10.90985z" stroke="#595e89" stroke-width="5"/><path d="M250.10837,224.66347c0,4.31225 -6.70422,7.80803 -14.9743,7.80803c-8.27008,0 -14.9743,-3.49577 -14.9743,-7.80803c0,-4.31225 6.70422,-7.80803 14.9743,-7.80803c8.27008,0 14.9743,3.49577 14.9743,7.80803z" stroke="none" stroke-width="0"/></g><path d="M271.69107,190.21437c0,20.78956 -12.90282,23.89773 -31.45808,23.89773c-18.55526,0 -35.73646,-3.10818 -35.73646,-23.89773c0,-20.78956 15.04201,-37.64281 33.59727,-37.64281c18.55526,0 33.59726,16.85326 33.59726,37.64281z" fill="#6973e3" stroke="#5460cf" stroke-width="5" stroke-linecap="butt"/><path d="M212.95789,192.55567v-13.27778c0,0 19.10627,8.08213 28.23818,8.08213c9.24395,0 26.8935,-8.08213 26.8935,-8.08213v13.27778c0,0 -17.42543,5.4843 -26.55733,5.4843c-9.24395,0 -28.57434,-5.4843 -28.57434,-5.4843z" fill="#74b1f7" stroke="#799794" stroke-width="0" stroke-linecap="butt"/><g stroke-width="5" stroke-linecap="butt"><path d="M285.08403,200.0113l-14.00546,-10.5615l4.37916,-5.80714l14.00546,10.5615z" fill="#82837e" stroke="#5a5b54"/><path d="M279.00908,181.9522c3.75526,3.73485 0.70765,5.05785 -1.79173,7.57088c-2.49937,2.51303 -3.50404,5.26447 -7.2593,1.52962c-3.75526,-3.73485 -4.77336,-8.79976 -2.27399,-11.31279c2.49937,-2.51303 7.56976,-1.52256 11.32502,2.21229z" fill="#6973e3" stroke="#5460cf"/><path d="M297.5983,199.95588c0,3.89875 -3.06478,7.05931 -6.8454,7.05931c-3.78061,0 -6.8454,-3.16056 -6.8454,-7.05931c0,-3.89875 3.06479,-7.05931 6.8454,-7.05931c3.78061,0 6.8454,3.16056 6.8454,7.05931z" fill="#82837e" stroke="#5a5b54"/></g><path d="M212.66924,208.43129v-13.27778c0,0 19.10627,8.08213 28.23818,8.08213c9.24395,0 26.8935,-8.08213 26.8935,-8.08213v13.27778c0,0 -17.42543,5.4843 -26.55733,5.4843c-9.24395,0 -28.57434,-5.4843 -28.57434,-5.4843z" fill="#74b1f7" stroke="#799794" stroke-width="0" stroke-linecap="butt"/><path d="M274.83813,137.09679c0,7.51121 10.46257,22.63266 7.05975,28.68628c-6.85247,12.19054 -32.01125,12.30166 -46.60446,12.30166c-21.83994,0 -39.5447,-18.35093 -39.5447,-40.98794c0,-22.63702 17.70476,-40.98794 39.5447,-40.98794c21.83994,0 39.5447,18.35093 39.5447,40.98794z" fill="#ffffff" stroke="#d6cdbb" stroke-width="5" stroke-linecap="butt"/><path d="M235.87073,125.43837c0,5.49984 -4.26465,9.95834 -9.52537,9.95834c-5.26072,0 -9.52537,-4.4585 -9.52537,-9.95834c0,-5.49984 4.26465,-9.95834 9.52537,-9.95834c5.26072,0 9.52537,4.4585 9.52537,9.95834z" fill="#8b8d82" stroke="none" stroke-width="NaN" stroke-linecap="butt"/><path d="M232.5234,125.20602c0,3.51374 -2.88694,6.36219 -6.44817,6.36219c-3.56122,0 -6.44817,-2.84845 -6.44817,-6.36219c0,-3.51374 2.88694,-6.36219 6.44818,-6.36219c3.56122,0 6.44817,2.84845 6.44817,6.36219z" fill="#ffffff" stroke="#5a5b54" stroke-width="5" stroke-linecap="butt"/><path d="M264.44684,126.30431c0,5.49984 -4.26465,9.95834 -9.52537,9.95834c-5.26072,0 -9.52537,-4.4585 -9.52537,-9.95834c0,-5.49984 4.26465,-9.95834 9.52537,-9.95834c5.26072,0 9.52537,4.4585 9.52537,9.95834z" fill="#8b8d82" stroke="none" stroke-width="NaN" stroke-linecap="butt"/><path d="M261.0995,126.07196c0,3.51374 -2.88694,6.36219 -6.44817,6.36219c-3.56122,0 -6.44817,-2.84845 -6.44817,-6.36219c0,-3.51374 2.88694,-6.36219 6.44818,-6.36219c3.56122,0 6.44817,2.84845 6.44817,6.36219z" fill="#ffffff" stroke="#5a5b54" stroke-width="5" stroke-linecap="butt"/><path d="M252.30465,135.90273c0.78428,4.25533 -3.31586,8.57781 -9.15792,9.65454c-5.84206,1.07672 -11.21378,-1.50004 -11.99805,-5.75537c-0.78428,-4.25533 4.1237,-6.62286 9.96576,-7.69958c5.84206,-1.07672 10.40593,-0.45491 11.19021,3.80041z" fill="#000000" stroke="none" stroke-width="0" stroke-linecap="butt"/><path d="M225.61783,146.00654c0,3.10861 -3.90714,2.16486 -8.37078,2.16486c-4.46364,0 -7.79348,0.94375 -7.79348,-2.16486c0,-3.10861 3.61849,-5.62863 8.08213,-5.62863c4.46364,0 8.08213,2.52002 8.08213,5.62863z" fill="#f1c7d1" stroke="none" stroke-width="0" stroke-linecap="butt"/><path d="M240.0502,140.08926c0,0 5.19565,6.30221 5.19565,8.68692c0,2.52936 -4.32971,14.11624 -4.32971,14.11624" fill="none" stroke="#000000" stroke-width="2" stroke-linecap="round"/><path d="M268.6263,146.00654c0,3.10861 -3.90714,2.16486 -8.37078,2.16486c-4.46364,0 -7.79348,0.94375 -7.79348,-2.16486c0,-3.10861 3.61849,-5.62863 8.08213,-5.62863c4.46364,0 8.08213,2.52002 8.08213,5.62863z" fill="#f1c7d1" stroke="none" stroke-width="0" stroke-linecap="butt"/><path d="M252.04232,154.20588c0.98508,0.49254 0.49254,1.47763 0.49254,1.47763l-0.55843,1.09785c-1.57951,2.36658 -2.96671,5.22621 -5.66955,6.5881c-1.51383,0.76278 -3.70301,0.48671 -5.29278,0.20586c-3.41074,-0.60256 -7.43633,-1.6868 -10.01253,-4.19463c-0.08961,-0.08724 -1.6403,-2.58098 -1.77079,-2.78978c0,0 -0.58372,-0.93395 0.35023,-1.51767c0.93395,-0.58372 1.51767,0.35023 1.51767,0.35023c0.50457,0.80731 0.80964,1.77236 1.4941,2.43405c2.22978,2.15561 5.87152,3.0238 8.79406,3.54684c1.07712,0.19277 2.93415,0.53065 3.97872,-0.02634c2.26106,-1.20566 3.4424,-3.81277 4.77811,-5.8185l0.42104,-0.86109c0,0 0.49254,-0.98508 1.47763,-0.49254z" fill="#b54865" stroke="none" stroke-width="0.5" stroke-linecap="butt"/><path d="M228.6982,129.25141c-2.5,0 -2.5,-2.5 -2.5,-2.5l0.33772,-1.41185c-1.87547,-0.48581 -2.92862,1.32976 -2.67106,2.74518c0,0 0,2.5 -2.5,2.5c-2.5,0 -2.5,-2.5 -2.5,-2.5c0.09236,-1.27021 -0.34461,-2.69911 0.27708,-3.81062c0.86796,-1.55179 5.52802,-4.30674 7.42317,-4.01468c1.64911,0.25414 2.86357,1.71366 4.29535,2.57048l0.33772,3.92148c0,0 0,2.5 -2.5,2.5z" fill="#000000" stroke="none" stroke-width="0.5" stroke-linecap="butt"/><path d="M259.14956,131.98747c-2.23607,1.11803 -3.3541,-1.11803 -3.3541,-1.11803l-0.53773,-1.24237c-0.12441,-0.57011 -0.30986,-1.13229 -0.4435,-1.7012c-0.19111,0.59819 -0.32127,1.20983 -0.28269,1.82554c0,0 0,2.5 -2.5,2.5c-2.5,0 -2.5,-2.5 -2.5,-2.5c0.1166,-3.35315 1.9432,-10.2153 7.42848,-8.32119c2.11589,0.73063 2.7775,5.3345 3.17866,7.1122l0.12893,0.09096c0,0 1.11803,2.23607 -1.11803,3.3541z" fill="#000000" stroke="none" stroke-width="0.5" stroke-linecap="butt"/><g stroke-width="5" stroke-linecap="butt"><path d="M287.56946,198.78992l-14.7575,-9.48231l3.93169,-6.11896l14.7575,9.48231z" data-paper-data="{&quot;index&quot;:null}" fill="#82837e" stroke="#5a5b54"/><path d="M271.17779,191.35631c-4.54528,-2.71873 -6.75506,-7.3885 -4.93567,-10.43022c1.81938,-3.04171 6.97896,-3.30354 11.52425,-0.58481c4.54528,2.71873 2.12641,4.37063 0.30702,7.41235c-1.81938,3.04171 -2.35031,6.3214 -6.8956,3.60267z" data-paper-data="{&quot;index&quot;:null}" fill="#6973e3" stroke="#5460cf"/><path d="M289.93997,191.21686c3.77844,-0.96105 7.59695,1.23007 8.52888,4.89402c0.93193,3.66395 -1.37562,7.41325 -5.15406,8.3743c-3.77844,0.96105 -7.59696,-1.23008 -8.52889,-4.89403c-0.93193,-3.66395 1.37563,-7.41325 5.15407,-8.3743z" fill="#82837e" stroke="#5a5b54"/></g></g></g></svg>