<svg version="1.1" xmlns="http://www.w3.org/2000/svg" xmlns:xlink="http://www.w3.org/1999/xlink" width="113.4799" height="173.09181" viewBox="0,0,113.4799,173.09181"><g transform="translate(-179.90171,-93.29937)"><g data-paper-data="{&quot;isPaintingLayer&quot;:true}" fill-rule="nonzero" stroke-linejoin="miter" stroke-miterlimit="10" stroke-dasharray="" stroke-dashoffset="0" style="mix-blend-mode: normal"><path d="M215.19169,101.70523c3.13626,4.80621 2.81066,10.57393 -0.72724,12.88256c-3.5379,2.30863 -8.94837,0.28395 -12.08463,-4.52226c-3.13626,-4.80621 -2.81065,-10.57392 0.72725,-12.88255c3.5379,-2.30863 8.94837,-0.28395 12.08462,4.52226z" fill="#82837e" stroke="#5a5b54" stroke-width="5" stroke-linecap="butt"/><path d="M266.99828,97.76027c3.5379,2.30863 3.8635,8.07634 0.72724,12.88255c-3.13626,4.80621 -8.54672,6.83089 -12.08462,4.52226c-3.5379,-2.30863 -3.8635,-8.07635 -0.72725,-12.88255c3.13626,-4.80621 8.54673,-6.83088 12.08463,-4.52226z" data-paper-data="{&quot;index&quot;:null}" fill="#82837e" stroke="#5a5b54" stroke-width="5" stroke-linecap="butt"/><path d="M218.2228,219.34072c0,5.02159 -4.32926,9.0924 -9.66969,9.0924c-5.34043,0 -9.66969,-4.0708 -9.66969,-9.0924c0,-5.02159 4.32926,-9.0924 9.66969,-9.0924c5.34043,0 9.66969,4.0708 9.66969,9.0924z" fill="#82837e" stroke="#5a5b54" stroke-width="5" stroke-linecap="butt"/><g stroke-width="5"><path d="M251.534,255.89488v-20.73096h7.81659v20.73096z" fill="#82837e" stroke="#5a5b54" stroke-linecap="butt"/><path d="M273.12622,260.11453c0,4.31699 -5.66533,3.05866 -12.23466,3.05866c-6.56932,0 -11.55497,1.25832 -11.55497,-3.05866c0,-4.31699 5.32549,-7.81659 11.89481,-7.81659c6.56933,0 11.89481,3.4996 11.89481,7.81659z" fill="#360a11" stroke="#0e0e0e" stroke-linecap="butt"/><path d="M261.38807,252.18579l0.78041,6.8676" fill="none" stroke="#ca909b" stroke-linecap="round"/><path d="M267.63135,258.58514l-0.46825,-5.61895" fill="none" stroke="#ca909b" stroke-linecap="round"/></g><g stroke-width="5"><path d="M223.15864,255.72721v-20.73096h7.81659v20.73096z" fill="#82837e" stroke="#5a5b54" stroke-linecap="butt"/><path d="M243.54975,260.66186c0,4.31698 -5.66535,3.05866 -12.23467,3.05866c-6.56932,0 -11.55496,1.25832 -11.55496,-3.05866c0,-4.31698 5.32548,-7.8166 11.89481,-7.8166c6.56932,0 11.89481,3.49961 11.89481,7.8166z" fill="#360a11" stroke="#0e0e0e" stroke-linecap="butt"/><path d="M230.30405,253.27835l0.46824,5.46287" fill="none" stroke="#ca909b" stroke-linecap="round"/><path d="M235.29867,253.1223l0.62433,5.93111" fill="none" stroke="#ca909b" stroke-linecap="round"/></g><g fill="#36659b" stroke-linecap="butt"><path d="M271.92807,199.94759c0,17.21429 -15.17713,35.05216 -33.3713,35.05216c-18.19417,0 -34.4409,-21.72076 -34.4409,-38.93507c0,-17.21429 17.66061,-0.88255 35.85477,-0.88255c18.19417,0 31.95742,-12.44884 31.95742,4.76547z" stroke="#595e89" stroke-width="5"/><path d="M248.82486,236.32201v-10.90984h11.97944v10.90984z" stroke="#595e89" stroke-width="5"/><path d="M259.52079,225.41217c0,3.54432 -4.02254,6.41755 -8.98458,6.41755c-4.96204,0 -8.98458,-2.87323 -8.98458,-6.41755c0,-3.54432 4.02254,-6.41756 8.98458,-6.41756c4.96204,0 8.98458,2.87324 8.98458,6.41756z" stroke="none" stroke-width="0"/><path d="M220.26531,237.28322v-10.90985h11.97944v10.90985z" stroke="#595e89" stroke-width="5"/><path d="M250.10837,224.66344c0,4.31225 -6.70422,7.80803 -14.9743,7.80803c-8.27008,0 -14.9743,-3.49578 -14.9743,-7.80803c0,-4.31225 6.70422,-7.80803 14.9743,-7.80803c8.27008,0 14.9743,3.49578 14.9743,7.80803z" stroke="none" stroke-width="0"/></g><path d="M271.69107,190.21434c0,20.78956 -12.90282,23.89773 -31.45809,23.89773c-18.55526,0 -35.73646,-3.10818 -35.73646,-23.89773c0,-20.78956 15.04201,-37.64281 33.59727,-37.64281c18.55527,0 33.59726,16.85326 33.59726,37.64281z" fill="#6973e3" stroke="#5460cf" stroke-width="5" stroke-linecap="butt"/><path d="M212.95789,192.55566v-13.27778c0,0 19.10627,8.08213 28.23818,8.08213c9.24396,0 26.8935,-8.08213 26.8935,-8.08213v13.27778c0,0 -17.42543,5.4843 -26.55733,5.4843c-9.24395,0 -28.57434,-5.4843 -28.57434,-5.4843z" fill="#74b1f7" stroke="#799794" stroke-width="0" stroke-linecap="butt"/><g stroke-width="5" stroke-linecap="butt"><path d="M189.33746,190.33536l12.82747,-11.9647l4.96097,5.3187l-12.82746,11.96471z" data-paper-data="{&quot;index&quot;:null}" fill="#82837e" stroke="#5a5b54"/><path d="M200.58226,176.2819c3.75527,-3.73485 8.82565,-4.72533 11.32502,-2.2123c2.49937,2.51304 1.48127,7.57795 -2.27399,11.31279c-3.75527,3.73485 -4.75993,0.98342 -7.2593,-1.52962c-2.49937,-2.51304 -5.54699,-3.83603 -1.79172,-7.57088z" data-paper-data="{&quot;index&quot;:null}" fill="#6973e3" stroke="#5460cf"/><path d="M196.09249,194.49951c0,3.89875 -3.06479,7.05931 -6.84539,7.05931c-3.78061,0 -6.84539,-3.16056 -6.84539,-7.05931c0,-3.89875 3.06479,-7.05931 6.84539,-7.05931c3.78061,0 6.84539,3.16056 6.84539,7.05931z" fill="#82837e" stroke="#5a5b54"/></g><g stroke-width="5" stroke-linecap="butt"><path d="M284.65322,170.68464c0,0 4.82556,5.80826 6.22839,8.48678c1.44025,2.74999 -6.86435,9.04302 -6.86435,9.04302l-7.26845,-0.2637c0,0 6.60914,-5.75773 4.85482,-8.28033c-1.90084,-2.73329 -4.21886,-9.24946 -4.21886,-9.24946z" fill="#82837e" stroke="#5a5b54"/><path d="M273.32906,186.0078c0.91074,-5.21744 3.74077,-3.47696 7.2323,-2.86749c3.49152,0.60947 6.32237,-0.14286 5.41163,5.07458c-0.91074,5.21744 -4.47949,8.95293 -7.97101,8.34346c-3.49152,-0.60947 -5.58367,-5.33311 -4.67292,-10.55055z" fill="#6973e3" stroke="#5460cf"/><path d="M277.44026,160.45805c3.19592,-2.23301 7.54209,-1.53092 9.70743,1.56816c2.16534,3.09908 1.32989,7.42159 -1.86603,9.65459c-3.19592,2.23301 -7.54209,1.53092 -9.70743,-1.56816c-2.16534,-3.09908 -1.32989,-7.42159 1.86604,-9.6546z" fill="#82837e" stroke="#5a5b54"/></g><path d="M212.66924,208.43127v-13.27778c0,0 19.10627,8.08213 28.23817,8.08213c9.24396,0 26.8935,-8.08213 26.8935,-8.08213v13.27778c0,0 -17.42543,5.4843 -26.55733,5.4843c-9.24395,0 -28.57434,-5.4843 -28.57434,-5.4843z" fill="#74b1f7" stroke="#799794" stroke-width="0" stroke-linecap="butt"/><path d="M274.83814,137.09679c0,7.51121 10.46257,22.63266 7.05975,28.68628c-6.85247,12.19054 -32.01125,12.30166 -46.60445,12.30166c-21.83994,0 -39.5447,-18.35092 -39.5447,-40.98794c0,-22.63702 17.70476,-40.98794 39.5447,-40.98794c21.83994,0 39.54471,18.35093 39.54471,40.98794z" fill="#ffffff" stroke="#d6cdbb" stroke-width="5" stroke-linecap="butt"/><path d="M252.30465,135.90271c0.78429,4.25533 -3.31586,8.57781 -9.15792,9.65454c-5.84206,1.07673 -11.21377,-1.50004 -11.99805,-5.75537c-0.78429,-4.25533 4.12371,-6.62286 9.96577,-7.69958c5.84206,-1.07673 10.40593,-0.45491 11.19021,3.80041z" fill="#000000" stroke="none" stroke-width="0" stroke-linecap="butt"/><path d="M225.61783,146.00651c0,3.10861 -3.90714,2.16486 -8.37078,2.16486c-4.46364,0 -7.79348,0.94375 -7.79348,-2.16486c0,-3.10861 3.61849,-5.62863 8.08213,-5.62863c4.46364,0 8.08213,2.52002 8.08213,5.62863z" fill="#f1c7d1" stroke="none" stroke-width="0" stroke-linecap="butt"/><path d="M240.0502,140.08923c0,0 5.19566,6.30221 5.19566,8.68691c0,2.52936 -4.32971,14.11623 -4.32971,14.11623" fill="none" stroke="#000000" stroke-width="2" stroke-linecap="round"/><path d="M268.6263,146.00651c0,3.10861 -3.90714,2.16486 -8.37078,2.16486c-4.46364,0 -7.79348,0.94375 -7.79348,-2.16486c0,-3.10861 3.61849,-5.62863 8.08213,-5.62863c4.46364,0 8.08213,2.52002 8.08213,5.62863z" fill="#f1c7d1" stroke="none" stroke-width="0" stroke-linecap="butt"/><path d="M237.64368,170.1041c-6.12022,-4.68017 -6.84402,-10.45151 -1.75,-14.34693c5.09402,-3.89543 13.21744,-4.03784 19.39793,0.68842c6.18048,4.72626 4.02306,11.36927 -1.40579,13.65852c-4.93017,2.07896 -10.12191,4.68017 -16.24214,0z" fill="#000000" stroke="#b54865" stroke-width="5" stroke-linecap="butt"/><path d="M221.03153,125.08475c0,0 3.28307,-0.65061 4.76628,-0.59763c1.61643,0.05773 4.56706,0.93096 4.56706,0.93096" fill="none" stroke="#5a5b54" stroke-width="4" stroke-linecap="round"/><path d="M251.28153,126.08475c0,0 2.7123,-0.84849 4.03111,-0.90124c1.44705,-0.05788 4.30223,0.56791 4.30223,0.56791" fill="none" stroke="#5a5b54" stroke-width="4" stroke-linecap="round"/><g stroke-width="3.5"><path d="M277.49706,162.90009c-2.11437,6.53727 -8.10464,10.45371 -13.37963,8.7476c-5.27499,-1.70611 -7.83719,-8.3887 -5.72281,-14.92597c2.11437,-6.53727 8.10464,-10.45371 13.37964,-8.7476c5.27499,1.70611 7.83718,8.3887 5.72281,14.92597z" fill="#e52e3d" stroke="#881b24" stroke-linecap="butt"/><path d="M288.15567,166.34744c-2.11437,6.53727 -8.10464,10.45371 -13.37963,8.7476c-5.27499,-1.70611 -7.83718,-8.38869 -5.72281,-14.92597c2.11437,-6.53727 8.10464,-10.45371 13.37963,-8.7476c5.27499,1.70611 7.83718,8.3887 5.72281,14.92597z" fill="#e52e3d" stroke="#881b24" stroke-linecap="butt"/><path d="M276.59327,151.48551c0,0 1.80349,-6.65541 8.82207,-6.48595" fill="none" stroke="#531a0c" stroke-linecap="round"/></g><path d="M265.05044,170.15667c0,0 -0.05978,-5.27595 0.63082,-8.16758c0.8651,-3.62224 4.15521,-11.87197 4.15521,-11.87197c0,0 1.97839,-0.25008 3.08888,0.44331c1.17383,0.73294 1.51264,2.42032 2.66296,2.7635c2.44351,0.72901 8.3483,0.99987 8.3483,0.99987l-8.44134,18.79993c0,0 -2.38195,-1.45604 -4.86089,-2.19561c-2.18352,-0.65144 -5.58394,-0.77146 -5.58394,-0.77146z" fill="#e52e3d" stroke="none" stroke-width="0" stroke-linecap="butt"/></g></g></svg>