<svg version="1.1" xmlns="http://www.w3.org/2000/svg" xmlns:xlink="http://www.w3.org/1999/xlink" width="146.14394" height="173.09181" viewBox="0,0,146.14394,173.09181"><g transform="translate(-179.90171,-93.29938)"><g data-paper-data="{&quot;isPaintingLayer&quot;:true}" fill-rule="nonzero" stroke-linejoin="miter" stroke-miterlimit="10" stroke-dasharray="" stroke-dashoffset="0" style="mix-blend-mode: normal"><path d="M215.19169,101.70523c3.13626,4.80621 2.81066,10.57393 -0.72724,12.88256c-3.5379,2.30863 -8.94837,0.28395 -12.08463,-4.52226c-3.13626,-4.80621 -2.81065,-10.57392 0.72725,-12.88255c3.5379,-2.30863 8.94837,-0.28395 12.08462,4.52226z" fill="#82837e" stroke="#5a5b54" stroke-width="5" stroke-linecap="butt"/><path d="M266.99828,97.76027c3.5379,2.30863 3.8635,8.07634 0.72724,12.88255c-3.13626,4.80621 -8.54672,6.83089 -12.08462,4.52226c-3.5379,-2.30863 -3.8635,-8.07635 -0.72725,-12.88255c3.13626,-4.80621 8.54673,-6.83088 12.08463,-4.52226z" data-paper-data="{&quot;index&quot;:null}" fill="#82837e" stroke="#5a5b54" stroke-width="5" stroke-linecap="butt"/><path d="M218.2228,219.34072c0,5.02159 -4.32926,9.0924 -9.66969,9.0924c-5.34043,0 -9.66969,-4.0708 -9.66969,-9.0924c0,-5.02159 4.32926,-9.0924 9.66969,-9.0924c5.34043,0 9.66969,4.0708 9.66969,9.0924z" fill="#82837e" stroke="#5a5b54" stroke-width="5" stroke-linecap="butt"/><g stroke-width="5"><path d="M251.534,255.89488v-20.73096h7.81659v20.73096z" fill="#82837e" stroke="#5a5b54" stroke-linecap="butt"/><path d="M273.12622,260.11453c0,4.31699 -5.66533,3.05866 -12.23466,3.05866c-6.56932,0 -11.55497,1.25832 -11.55497,-3.05866c0,-4.31699 5.32549,-7.81659 11.89481,-7.81659c6.56933,0 11.89481,3.4996 11.89481,7.81659z" fill="#360a11" stroke="#0e0e0e" stroke-linecap="butt"/><path d="M262.16848,259.0534l-0.78041,-6.8676" fill="none" stroke="#ca909b" stroke-linecap="round"/><path d="M267.1631,252.96619l0.46825,5.61895" fill="none" stroke="#ca909b" stroke-linecap="round"/></g><g stroke-width="5"><path d="M223.15864,255.72721v-20.73096h7.81659v20.73096z" fill="#82837e" stroke="#5a5b54" stroke-linecap="butt"/><path d="M243.54975,260.66186c0,4.31698 -5.66535,3.05866 -12.23467,3.05866c-6.56932,0 -11.55496,1.25832 -11.55496,-3.05866c0,-4.31698 5.32548,-7.8166 11.89481,-7.8166c6.56932,0 11.89481,3.49961 11.89481,7.8166z" fill="#360a11" stroke="#0e0e0e" stroke-linecap="butt"/><path d="M230.30405,253.27836l0.46824,5.46287" fill="none" stroke="#ca909b" stroke-linecap="round"/><path d="M235.923,259.05341l-0.62433,-5.93111" fill="none" stroke="#ca909b" stroke-linecap="round"/></g><g fill="#36659b" stroke-linecap="butt"><path d="M271.92807,199.94759c0,17.21429 -15.17713,35.05216 -33.3713,35.05216c-18.19417,0 -34.4409,-21.72076 -34.4409,-38.93507c0,-17.21429 17.66061,-0.88255 35.85477,-0.88255c18.19417,0 31.95742,-12.44884 31.95742,4.76547z" stroke="#595e89" stroke-width="5"/><path d="M248.82486,236.32201v-10.90984h11.97944v10.90984z" stroke="#595e89" stroke-width="5"/><path d="M259.52079,225.41217c0,3.54432 -4.02254,6.41755 -8.98458,6.41755c-4.96204,0 -8.98458,-2.87323 -8.98458,-6.41755c0,-3.54432 4.02254,-6.41756 8.98458,-6.41756c4.96204,0 8.98458,2.87324 8.98458,6.41756z" stroke="none" stroke-width="0"/><path d="M220.26531,237.28322v-10.90985h11.97944v10.90985z" stroke="#595e89" stroke-width="5"/><path d="M250.10837,224.66344c0,4.31225 -6.70422,7.80803 -14.9743,7.80803c-8.27008,0 -14.9743,-3.49578 -14.9743,-7.80803c0,-4.31225 6.70422,-7.80803 14.9743,-7.80803c8.27008,0 14.9743,3.49578 14.9743,7.80803z" stroke="none" stroke-width="0"/></g><path d="M271.69107,190.21434c0,20.78956 -12.90282,23.89773 -31.45809,23.89773c-18.55526,0 -35.73646,-3.10818 -35.73646,-23.89773c0,-20.78956 15.04201,-37.64281 33.59727,-37.64281c18.55527,0 33.59726,16.85326 33.59726,37.64281z" fill="#6973e3" stroke="#5460cf" stroke-width="5" stroke-linecap="butt"/><path d="M212.95789,192.55566v-13.27778c0,0 19.10627,8.08213 28.23818,8.08213c9.24396,0 26.8935,-8.08213 26.8935,-8.08213v13.27778c0,0 -17.42543,5.4843 -26.55733,5.4843c-9.24395,0 -28.57434,-5.4843 -28.57434,-5.4843z" fill="#74b1f7" stroke="#799794" stroke-width="0" stroke-linecap="butt"/><g stroke-width="5" stroke-linecap="butt"><path d="M189.33746,190.33536l12.82747,-11.9647l4.96097,5.3187l-12.82746,11.96471z" data-paper-data="{&quot;index&quot;:null}" fill="#82837e" stroke="#5a5b54"/><path d="M200.58226,176.2819c3.75527,-3.73485 8.82565,-4.72533 11.32502,-2.2123c2.49937,2.51304 1.48127,7.57795 -2.27399,11.31279c-3.75527,3.73485 -4.75993,0.98342 -7.2593,-1.52962c-2.49937,-2.51304 -5.54699,-3.83603 -1.79172,-7.57088z" data-paper-data="{&quot;index&quot;:null}" fill="#6973e3" stroke="#5460cf"/><path d="M196.09249,194.49951c0,3.89875 -3.06479,7.05931 -6.84539,7.05931c-3.78061,0 -6.84539,-3.16056 -6.84539,-7.05931c0,-3.89875 3.06479,-7.05931 6.84539,-7.05931c3.78061,0 6.84539,3.16056 6.84539,7.05931z" fill="#82837e" stroke="#5a5b54"/></g><g stroke-width="5" stroke-linecap="butt"><path d="M296.88448,181.479l-16.00793,7.17247l-2.97395,-6.63744l16.00793,-7.17247z" fill="#82837e" stroke="#5a5b54"/><path d="M278.1352,178.08776c5.08316,-1.48749 4.77171,1.82027 5.76715,5.22194c0.99544,3.40166 2.9208,5.60908 -2.16236,7.09657c-5.08316,1.48749 -10.01082,-0.06425 -11.00626,-3.46591c-0.99544,-3.40166 2.31831,-7.36511 7.40147,-8.8526z" fill="#6973e3" stroke="#5460cf"/><path d="M302.87335,170.49067c3.41502,1.88092 4.70487,6.09024 2.88094,9.40178c-1.82392,3.31154 -6.07093,4.47129 -9.48595,2.59037c-3.41502,-1.88092 -4.70487,-6.09024 -2.88095,-9.40178c1.82392,-3.31154 6.07093,-4.47129 9.48596,-2.59037z" fill="#82837e" stroke="#5a5b54"/></g><path d="M212.66924,208.43127v-13.27778c0,0 19.10627,8.08213 28.23817,8.08213c9.24396,0 26.8935,-8.08213 26.8935,-8.08213v13.27778c0,0 -17.42543,5.4843 -26.55733,5.4843c-9.24395,0 -28.57434,-5.4843 -28.57434,-5.4843z" fill="#74b1f7" stroke="#799794" stroke-width="0" stroke-linecap="butt"/><path d="M274.83814,137.09679c0,7.51121 10.46257,22.63266 7.05975,28.68628c-6.85247,12.19054 -32.01125,12.30166 -46.60445,12.30166c-21.83994,0 -39.5447,-18.35092 -39.5447,-40.98794c0,-22.63702 17.70476,-40.98794 39.5447,-40.98794c21.83994,0 39.54471,18.35093 39.54471,40.98794z" fill="#ffffff" stroke="#d6cdbb" stroke-width="5" stroke-linecap="butt"/><g stroke-linecap="butt"><path d="M235.87073,125.43834c0,5.49984 -4.26465,9.95834 -9.52537,9.95834c-5.26072,0 -9.52537,-4.45851 -9.52537,-9.95834c0,-5.49984 4.26465,-9.95833 9.52537,-9.95833c5.26072,0 9.52537,4.4585 9.52537,9.95833z" fill="#8b8d82" stroke="none" stroke-width="NaN"/><g><g fill="#ffffff" stroke="#5a5b54" stroke-width="5"><path d="M232.5234,125.20599c0,3.51374 -2.88694,6.3622 -6.44817,6.3622c-3.56123,0 -6.44817,-2.84845 -6.44817,-6.3622c0,-3.51374 2.88694,-6.36219 6.44817,-6.36219c3.56123,0 6.44817,2.84845 6.44817,6.3622z"/></g><path d="M232.5234,127.04847c0,1.53268 -1.31557,2.77516 -2.93841,2.77516c-1.62284,0 -2.93841,-1.24248 -2.93841,-2.77516c0,-1.53269 1.31557,-2.77516 2.93841,-2.77516c1.62284,0 2.93841,1.24249 2.93841,2.77516z" fill="#000000" stroke="none" stroke-width="0"/></g></g><g stroke-linecap="butt"><path d="M264.44684,126.30429c0,5.49984 -4.26465,9.95834 -9.52537,9.95834c-5.26072,0 -9.52536,-4.45851 -9.52536,-9.95834c0,-5.49984 4.26465,-9.95834 9.52536,-9.95834c5.26072,0 9.52537,4.45851 9.52537,9.95834z" fill="#8b8d82" stroke="none" stroke-width="NaN"/><g><g fill="#ffffff" stroke="#5a5b54" stroke-width="5"><path d="M261.0995,126.07193c0,3.51374 -2.88694,6.36219 -6.44817,6.36219c-3.56123,0 -6.44817,-2.84845 -6.44817,-6.36219c0,-3.51374 2.88694,-6.36219 6.44817,-6.36219c3.56123,0 6.44817,2.84845 6.44817,6.3622z"/></g><path d="M261.0995,127.91442c0,1.53269 -1.31556,2.77516 -2.9384,2.77516c-1.62284,0 -2.93841,-1.24248 -2.93841,-2.77516c0,-1.53269 1.31557,-2.77517 2.93841,-2.77517c1.62284,0 2.9384,1.2425 2.9384,2.77517z" fill="#000000" stroke="none" stroke-width="0"/></g></g><path d="M252.30465,135.90271c0.78429,4.25533 -3.31586,8.57781 -9.15792,9.65454c-5.84206,1.07673 -11.21377,-1.50004 -11.99805,-5.75537c-0.78429,-4.25533 4.12371,-6.62286 9.96577,-7.69958c5.84206,-1.07673 10.40593,-0.45491 11.19021,3.80041z" fill="#000000" stroke="none" stroke-width="0" stroke-linecap="butt"/><path d="M225.61783,146.00651c0,3.10861 -3.90714,2.16486 -8.37078,2.16486c-4.46364,0 -7.79348,0.94375 -7.79348,-2.16486c0,-3.10861 3.61849,-5.62863 8.08213,-5.62863c4.46364,0 8.08213,2.52002 8.08213,5.62863z" fill="#f1c7d1" stroke="none" stroke-width="0" stroke-linecap="butt"/><path d="M240.0502,140.08924c0,0 5.19566,6.30221 5.19566,8.68691c0,2.52936 -4.32971,14.11623 -4.32971,14.11623" fill="none" stroke="#000000" stroke-width="2" stroke-linecap="round"/><path d="M268.6263,146.00651c0,3.10861 -3.90714,2.16486 -8.37078,2.16486c-4.46364,0 -7.79348,0.94375 -7.79348,-2.16486c0,-3.10861 3.61849,-5.62863 8.08213,-5.62863c4.46364,0 8.08213,2.52002 8.08213,5.62863z" fill="#f1c7d1" stroke="none" stroke-width="0" stroke-linecap="butt"/><path d="M233.45927,175.36906c-5.92686,-4.5323 0,-14.61993 0,-14.61993h19.11837c0,0 4.5323,11.15406 0,14.61993c-4.5323,3.46588 -13.19152,4.5323 -19.11837,0z" fill="#000000" stroke="#b54865" stroke-width="5" stroke-linecap="butt"/><g><g stroke-width="3.5"><path d="M313.09341,175.50949c0,6.8707 -4.49433,12.44051 -10.03837,12.44051c-5.54404,0 -10.03837,-5.56981 -10.03837,-12.44051c0,-6.8707 4.49433,-12.44051 10.03837,-12.44051c5.54404,0 10.03837,5.56981 10.03837,12.44051z" fill="#e52e3d" stroke="#881b24" stroke-linecap="butt"/><path d="M324.29565,175.50949c0,6.8707 -4.49433,12.44051 -10.03837,12.44051c-5.54404,0 -10.03837,-5.56981 -10.03837,-12.44051c0,-6.8707 4.49433,-12.44051 10.03837,-12.44051c5.54404,0 10.03837,5.56981 10.03837,12.44051z" fill="#e52e3d" stroke="#881b24" stroke-linecap="butt"/><path d="M308.72079,164.92699c0,0 -0.33215,-6.88743 6.39797,-8.88608" fill="none" stroke="#531a0c" stroke-linecap="round"/></g><path d="M303.38095,186.09524c0,0 -1.56564,-5.03866 -1.73055,-8.00703c-0.20658,-3.71838 0.58769,-12.5644 0.58769,-12.5644c0,0 1.82432,-0.80525 3.08669,-0.45827c1.33438,0.36676 2.14146,1.88684 3.34188,1.88684c2.54994,0 8.28571,-1.42857 8.28571,-1.42857l-2.71429,20.42857c0,0 -2.6988,-0.71429 -5.28571,-0.71429c-2.27863,0 -5.57143,0.85714 -5.57143,0.85714z" fill="#e52e3d" stroke="none" stroke-width="0" stroke-linecap="butt"/></g></g></g></svg>