<svg version="1.1" xmlns="http://www.w3.org/2000/svg" xmlns:xlink="http://www.w3.org/1999/xlink" width="139.00377" height="207.18973" viewBox="0,0,139.00377,207.18973"><g transform="translate(-171.80316,-58.91815)"><g data-paper-data="{&quot;isPaintingLayer&quot;:true}" fill-rule="nonzero" stroke-linejoin="miter" stroke-miterlimit="10" stroke-dasharray="" stroke-dashoffset="0" style="mix-blend-mode: normal"><path d="" data-paper-data="{&quot;index&quot;:null}" fill="#9966ff" stroke="none" stroke-width="0.5" stroke-linecap="butt"/><path d="M257.7428,64.04213c0.89333,0.4148 11.2706,-3.19437 12.06894,-2.54574c0.84364,0.68544 0.26352,12.27381 0.87317,13.11523c3.1969,4.41227 -2.22091,8.03192 -5.86515,12.51728c-4.33921,5.34072 -12.12703,6.2008 -17.39459,1.92103c-5.26756,-4.27977 -6.02015,-12.07871 -1.68094,-17.41944c3.68157,-4.5313 6.99753,-9.9105 11.99859,-7.58837z" data-paper-data="{&quot;index&quot;:null}" fill="#ffb2df" stroke="#ea7cba" stroke-width="5" stroke-linecap="butt"/><path d="M213.87682,77.09227c4.33921,5.34072 3.58663,13.13967 -1.68093,17.41944c-5.26756,4.27977 -13.05539,3.41969 -17.3946,-1.92103c-3.64425,-4.48536 -9.06205,-8.10501 -5.86515,-12.51728c0.60965,-0.84142 0.02952,-12.42979 0.87317,-13.11523c0.79834,-0.64863 11.1756,2.96055 12.06894,2.54574c5.00105,-2.32214 8.31701,3.05707 11.99858,7.58837z" data-paper-data="{&quot;index&quot;:null}" fill="#ffb2df" stroke="#ea7cba" stroke-width="5" stroke-linecap="butt"/><g data-paper-data="{&quot;index&quot;:null}" stroke-width="5"><path d="M251.35573,254.15128v-24.51688h9.24407v24.51688z" fill="#ffb2df" stroke="#ea7cba" stroke-linecap="butt"/><path d="M276.89116,259.14152c0,5.10536 -6.69995,3.61724 -14.46897,3.61724c-7.76902,0 -13.66514,1.48811 -13.66514,-3.61724c0,-5.10536 6.29804,-9.24407 14.06706,-9.24407c7.76903,0 14.06706,4.1387 14.06706,9.24407z" fill="#484848" stroke="#0e0e0e" stroke-linecap="butt"/><path d="M263.00937,249.76483l0.92293,8.12178" fill="none" stroke="#ff0000" stroke-linecap="round"/><path d="M269.83903,250.68776l0.55376,6.64509" fill="none" stroke="#ff0000" stroke-linecap="round"/></g><g data-paper-data="{&quot;index&quot;:null}" stroke-width="5"><path d="M217.79843,253.95299v-24.51688h9.24407v24.51688z" fill="#ffb2df" stroke="#ea7cba" stroke-linecap="butt"/><path d="M241.91339,259.7888c0,5.10536 -6.69995,3.61724 -14.46897,3.61724c-7.76902,0 -13.66514,1.48811 -13.66514,-3.61724c0,-5.10536 6.29804,-9.24407 14.06706,-9.24407c7.76902,0 14.06706,4.13871 14.06706,9.24407z" fill="#484848" stroke="#0e0e0e" stroke-linecap="butt"/><path d="M226.8025,257.51743l-0.55376,-6.4605" fill="none" stroke="#ff0000" stroke-linecap="round"/><path d="M232.89383,257.8866l-0.73834,-7.01426" fill="none" stroke="#ff0000" stroke-linecap="round"/></g><g data-paper-data="{&quot;index&quot;:null}" fill="#4285b7" stroke-linecap="butt"><path d="M275.47419,187.98682c0,20.35799 -17.9488,41.45342 -39.46561,41.45342c-21.51681,0 -40.73053,-25.68744 -40.73053,-46.04543c0,-20.35799 20.8858,-1.04373 42.40262,-1.04373c21.51681,0 37.79352,-14.72226 37.79352,5.63574z" stroke="#2f5e82" stroke-width="5"/><path d="M248.15185,231.00398v-12.90222h14.16714v12.90222z" stroke="#2f5e82" stroke-width="5"/><path d="M260.80107,218.10176c0,4.19159 -4.75713,7.58954 -10.62536,7.58954c-5.86822,0 -10.62536,-3.39795 -10.62536,-7.58954c0,-4.19159 4.75713,-7.58954 10.62536,-7.58954c5.86822,0 10.62536,3.39795 10.62536,7.58954z" stroke="none" stroke-width="0"/><path d="M214.37671,232.14072v-12.90222h14.16714v12.90222z" stroke="#2f5e82" stroke-width="5"/><path d="M249.66975,217.21631c0,5.09976 -7.92856,9.23394 -17.70893,9.23394c-9.78037,0 -17.70893,-4.13418 -17.70893,-9.23394c0,-5.09976 7.92856,-9.23394 17.70893,-9.23394c9.78037,0 17.70893,4.13418 17.70893,9.23394z" stroke="none" stroke-width="0"/></g><path d="M275.1939,176.47606c0,24.58617 -15.25915,28.26196 -37.203,28.26196c-21.94385,0 -42.26269,-3.6758 -42.26269,-28.26196c0,-24.58617 17.789,-44.51719 39.73284,-44.51719c21.94385,0 39.73284,19.93102 39.73284,44.51719z" data-paper-data="{&quot;index&quot;:null}" fill="#ff8138" stroke="#e85914" stroke-width="5" stroke-linecap="butt"/><g data-paper-data="{&quot;index&quot;:null}" stroke-width="5" stroke-linecap="butt"><path d="M296.33885,196.85567l-19.69656,-6.51075l2.69957,-8.16686l19.69656,6.51074z" data-paper-data="{&quot;index&quot;:null}" fill="#ffb2df" stroke="#ea7cba"/><path d="M275.37447,193.17296c-6.00702,-1.77417 -9.9142,-6.47122 -8.72691,-10.49114c1.18728,-4.01992 7.01943,-5.84046 13.02645,-4.06629c6.00702,1.77417 3.72353,4.37901 2.53624,8.39893c-1.18728,4.01992 -0.82874,7.93266 -6.83578,6.15849z" data-paper-data="{&quot;index&quot;:null}" fill="#ff8138" stroke="#e85914"/><path d="M293.38697,198.59373c-2.14721,-3.92169 -0.60936,-8.89588 3.43487,-11.11019c4.04423,-2.21431 9.06338,-0.83021 11.21059,3.09148c2.14721,3.92168 0.60937,8.89587 -3.43486,11.11018c-4.04423,2.2143 -9.06339,0.8302 -11.21059,-3.09148z" fill="#ffb2df" stroke="#ea7cba"/></g><g data-paper-data="{&quot;index&quot;:null}" stroke-width="5" stroke-linecap="butt"><path d="M296.67967,168.60005l-19.16223,7.9469l-3.29506,-7.94531l19.16223,-7.94691z" fill="#ffb2df" stroke="#ea7cba"/><path d="M274.62784,163.96789c6.05851,-1.58949 5.58039,2.31045 6.64409,6.36482c1.0637,4.05438 3.26641,6.72789 -2.7921,8.31738c-6.05851,1.5895 -11.8322,-0.40869 -12.8959,-4.46306c-1.0637,-4.05437 2.9854,-8.62964 9.04391,-10.21913z" fill="#ff8138" stroke="#e85914"/><path d="M304.12465,155.8092c3.97457,2.33704 5.35945,7.35597 3.09323,11.2101c-2.26622,3.85413 -7.32538,5.08397 -11.29995,2.74693c-3.97457,-2.33704 -5.35946,-7.35597 -3.09324,-11.2101c2.26623,-3.85413 7.32539,-5.08397 11.29996,-2.74693z" fill="#ffb2df" stroke="#ea7cba"/></g><path d="M277.86683,106.23679c0,5.50064 15.46792,18.15993 14.18224,23.08694c-2.32142,8.8962 -0.88579,22.09498 -13.5009,29.10116c-14.33739,7.9627 -43.21996,9.16535 -51.80187,9.16535c-20.3149,0 -36.78338,-21.66124 -36.78338,-48.38174c0,-26.7205 16.46848,-48.38174 36.78338,-48.38174c20.3149,0 51.12052,8.68954 51.12052,35.41004z" data-paper-data="{&quot;index&quot;:null}" fill="#ffb2df" stroke="#ea7cba" stroke-width="5" stroke-linecap="butt"/><g data-paper-data="{&quot;index&quot;:null}" stroke-linecap="butt"><g fill="#ffffff" stroke="#ea7cba" stroke-width="5"><path d="M248.99608,90.55734c4.21158,0 7.62574,3.36864 7.62574,7.52407c0,4.15542 -3.41416,7.52407 -7.62574,7.52407c-4.21158,0 -7.62574,-3.36864 -7.62574,-7.52407c0,-2.63187 2.36955,-1.94813 4.44385,-3.29281c1.20078,-0.77843 1.63774,-4.23126 3.18188,-4.23126z"/></g><path d="M256.62181,100.26039c0,1.81258 -1.55582,3.28196 -3.47502,3.28196c-1.9192,0 -3.47503,-1.46939 -3.47503,-3.28196c0,-1.81258 1.55583,-3.28196 3.47503,-3.28196c1.9192,0 3.47502,1.46939 3.47502,3.28196z" fill="#000000" stroke="none" stroke-width="0"/></g><g data-paper-data="{&quot;index&quot;:null}" stroke-linecap="butt"><g fill="#ffffff" stroke="#ea7cba" stroke-width="5"><path d="M228.8734,99.59581c0,4.15542 -3.41416,7.52407 -7.62574,7.52407c-4.21158,0 -7.62574,-3.36864 -7.62574,-7.52407c0,-4.15542 3.41416,-7.52407 7.62575,-7.52407c1.93827,0 1.20764,2.7135 2.55304,3.88882c1.57796,1.37848 5.0727,1.39224 5.0727,3.63525z"/></g><path d="M228.8734,101.77478c0,1.81258 -1.55582,3.28196 -3.47502,3.28196c-1.9192,0 -3.47502,-1.46939 -3.47502,-3.28196c0,-1.81258 1.55582,-3.28196 3.47502,-3.28196c1.9192,0 3.47502,1.46939 3.47502,3.28196z" fill="#000000" stroke="none" stroke-width="0"/></g><path d="M266.67166,136.30986c0,10.24337 -9.78462,11.94762 -22.41601,11.94762c-12.63139,0 -20.823,0.79906 -20.823,-9.44431c0,-10.24337 8.64675,-23.55388 21.27815,-23.55388c12.63139,0 21.96087,10.8072 21.96087,21.05057z" data-paper-data="{&quot;index&quot;:null}" fill="#ffb2df" stroke="#ea7cba" stroke-width="5" stroke-linecap="butt"/><path d="M214.54209,117.42124c0,2.57656 -2.6457,2.16195 -5.90933,2.16195c-3.26363,0 -5.90933,0.4146 -5.90933,-2.16195c0,-2.57656 2.6457,-4.66526 5.90933,-4.66526c3.26363,0 5.90933,2.08871 5.90933,4.66526z" data-paper-data="{&quot;index&quot;:null}" fill="#fe8dd2" stroke="#ea7cba" stroke-width="0" stroke-linecap="butt"/><path d="M275.98701,114.69035c0,2.57655 -2.6457,2.16195 -5.90933,2.16195c-3.26363,0 -5.90933,0.4146 -5.90933,-2.16195c0,-2.57655 2.6457,-4.66527 5.90933,-4.66527c3.26363,0 5.90933,2.08871 5.90933,4.66527z" data-paper-data="{&quot;index&quot;:null}" fill="#fe8dd2" stroke="#ea7cba" stroke-width="0" stroke-linecap="butt"/><path d="M238.90766,132.66868c0,1.44538 -1.06982,2.6171 -2.38952,2.6171c-1.3197,0 -2.38952,-1.17171 -2.38952,-2.6171c0,-1.44538 1.06982,-2.6171 2.38952,-2.6171c1.3197,0 2.38952,1.17171 2.38952,2.6171z" data-paper-data="{&quot;index&quot;:null}" fill="#ea7cba" stroke="none" stroke-width="0" stroke-linecap="butt"/><path d="M255.0654,132.21354c0,1.44538 -1.06982,2.6171 -2.38952,2.6171c-1.3197,0 -2.38952,-1.17171 -2.38952,-2.6171c0,-1.44538 1.06982,-2.6171 2.38952,-2.6171c1.3197,0 2.38952,1.17172 2.38952,2.6171z" data-paper-data="{&quot;index&quot;:null}" fill="#ea7cba" stroke="none" stroke-width="0" stroke-linecap="butt"/><path d="M250.03714,162.01462c-1.16498,0.58249 -1.74747,-0.58249 -1.74747,-0.58249l-0.49793,-1.01834c-1.57965,-2.37203 -2.97673,-5.45525 -5.6507,-6.88109c-1.23533,-0.65871 -3.4315,-0.25912 -4.70532,-0.03115c-3.45625,0.61855 -7.76305,1.64529 -10.40004,4.19456c-0.80946,0.78253 -1.17025,1.92382 -1.76696,2.87856c0,0 -0.69032,1.10451 -1.79483,0.41419c-1.10451,-0.69032 -0.41419,-1.79483 -0.41419,-1.79483c0.15433,-0.24693 1.9882,-3.19608 2.09418,-3.29925c3.04667,-2.9658 7.80742,-4.24805 11.84103,-4.96065c1.88011,-0.33215 4.46907,-0.65863 6.25936,0.24345c3.19644,1.6106 4.83697,4.99246 6.70493,7.79123l0.66042,1.29834c0,0 0.58249,1.16498 -0.58249,1.74747z" data-paper-data="{&quot;index&quot;:null}" fill="#b54865" stroke="none" stroke-width="0.5" stroke-linecap="butt"/><g fill="none" stroke="#ea7cba" stroke-width="4"><path d="M181.56269,206.13499c-0.97039,-3.26459 0.88942,-6.69771 4.15401,-7.6681c3.26459,-0.97039 6.69771,0.88942 7.6681,4.15401c0.97039,3.26459 -0.88942,6.69771 -4.15401,7.6681c-3.26459,0.97039 -6.69771,-0.88942 -7.6681,-4.15401z" stroke-linecap="butt"/><path d="M204.01732,205.91799c0,0 -18.92634,5.60156 -21.02597,6.22567c-5.68845,1.69087 -9.18818,-4.67692 -9.18818,-4.67692" stroke-linecap="round"/></g></g></g></svg>