<svg version="1.1" xmlns="http://www.w3.org/2000/svg" xmlns:xlink="http://www.w3.org/1999/xlink" width="141.23394" height="207.18973" viewBox="0,0,141.23394,207.18973"><g transform="translate(-168.63528,-60.91814)"><g data-paper-data="{&quot;isPaintingLayer&quot;:true}" fill-rule="nonzero" stroke-linejoin="miter" stroke-miterlimit="10" stroke-dasharray="" stroke-dashoffset="0" style="mix-blend-mode: normal"><g fill="none" stroke-width="4"><path d="M181.56268,206.13499c-0.97039,-3.26458 0.88942,-6.69771 4.15401,-7.6681c3.26458,-0.97039 6.69771,0.88942 7.6681,4.15401c0.97039,3.26458 -0.88942,6.69771 -4.15401,7.6681c-3.26458,0.97039 -6.69771,-0.88942 -7.6681,-4.15401z" stroke="#ea7cba" stroke-linecap="butt"/><path d="M173.80315,207.46674c0,0 3.49974,6.36779 9.18818,4.67692c2.09963,-0.62411 21.02597,-6.22567 21.02597,-6.22567" stroke="#ea7cba" stroke-linecap="round"/></g><path d="" fill="#9966ff" stroke="none" stroke-width="0.5" stroke-linecap="butt"/><path d="M259.27968,66.04213c0.89333,0.4148 11.2706,-3.19437 12.06894,-2.54574c0.84364,0.68544 0.26352,12.27381 0.87317,13.11523c3.1969,4.41227 -2.22091,8.03192 -5.86515,12.51728c-4.33921,5.34072 -12.12703,6.2008 -17.39459,1.92103c-5.26756,-4.27977 -6.02015,-12.07871 -1.68094,-17.41944c3.68157,-4.5313 6.99753,-9.9105 11.99859,-7.58837z" data-paper-data="{&quot;index&quot;:null}" fill="#ffb2df" stroke="#ea7cba" stroke-width="5" stroke-linecap="butt"/><path d="M215.41369,79.09227c4.33921,5.34072 3.58663,13.13967 -1.68093,17.41944c-5.26756,4.27977 -13.05539,3.41969 -17.3946,-1.92103c-3.64425,-4.48536 -9.06205,-8.10501 -5.86515,-12.51728c0.60965,-0.84142 0.02952,-12.42979 0.87317,-13.11523c0.79834,-0.64863 11.1756,2.96055 12.06894,2.54574c5.00105,-2.32214 8.31701,3.05707 11.99858,7.58837z" fill="#ffb2df" stroke="#ea7cba" stroke-width="5" stroke-linecap="butt"/><g stroke-width="5"><path d="M252.8926,256.15128v-24.51688h9.24407v24.51688z" fill="#ffb2df" stroke="#ea7cba" stroke-linecap="butt"/><path d="M278.42803,261.14152c0,5.10536 -6.69995,3.61724 -14.46897,3.61724c-7.76902,0 -13.66514,1.48811 -13.66514,-3.61724c0,-5.10536 6.29804,-9.24407 14.06706,-9.24407c7.76903,0 14.06706,4.1387 14.06706,9.24407z" fill="#484848" stroke="#0e0e0e" stroke-linecap="butt"/><path d="M265.46917,259.88661l-0.92293,-8.12178" fill="none" stroke="#ff0000" stroke-linecap="round"/><path d="M271.37591,252.68776l0.55376,6.64509" fill="none" stroke="#ff0000" stroke-linecap="round"/></g><g stroke-width="5"><path d="M219.3353,255.95299v-24.51688h9.24407v24.51688z" fill="#ffb2df" stroke="#ea7cba" stroke-linecap="butt"/><path d="M243.45026,261.7888c0,5.10536 -6.69995,3.61724 -14.46897,3.61724c-7.76902,0 -13.66514,1.48811 -13.66514,-3.61724c0,-5.10536 6.29804,-9.24407 14.06706,-9.24407c7.76902,0 14.06706,4.13871 14.06706,9.24407z" fill="#484848" stroke="#0e0e0e" stroke-linecap="butt"/><path d="M227.78561,253.05693l0.55376,6.4605" fill="none" stroke="#ff0000" stroke-linecap="round"/><path d="M233.69236,252.87234l0.73834,7.01426" fill="none" stroke="#ff0000" stroke-linecap="round"/></g><g fill="#4285b7" stroke-linecap="butt"><path d="M277.01106,189.98682c0,20.35799 -17.9488,41.45342 -39.46561,41.45342c-21.51681,0 -40.73053,-25.68744 -40.73053,-46.04543c0,-20.35799 20.8858,-1.04373 42.40262,-1.04373c21.51681,0 37.79352,-14.72226 37.79352,5.63574z" stroke="#2f5e82" stroke-width="5"/><path d="M249.68872,233.00398v-12.90222h14.16714v12.90222z" stroke="#2f5e82" stroke-width="5"/><path d="M262.33795,220.10176c0,4.19159 -4.75713,7.58954 -10.62536,7.58954c-5.86822,0 -10.62536,-3.39795 -10.62536,-7.58954c0,-4.19159 4.75713,-7.58954 10.62536,-7.58954c5.86822,0 10.62536,3.39795 10.62536,7.58954z" stroke="none" stroke-width="0"/><path d="M215.91358,234.14072v-12.90222h14.16714v12.90222z" stroke="#2f5e82" stroke-width="5"/><path d="M251.20662,219.21631c0,5.09976 -7.92856,9.23394 -17.70893,9.23394c-9.78037,0 -17.70893,-4.13418 -17.70893,-9.23394c0,-5.09976 7.92856,-9.23394 17.70893,-9.23394c9.78037,0 17.70893,4.13418 17.70893,9.23394z" stroke="none" stroke-width="0"/></g><path d="M276.73078,178.47606c0,24.58617 -15.25915,28.26196 -37.203,28.26196c-21.94385,0 -42.26269,-3.6758 -42.26269,-28.26196c0,-24.58617 17.789,-44.51719 39.73284,-44.51719c21.94385,0 39.73284,19.93102 39.73284,44.51719z" fill="#ff8138" stroke="#e85914" stroke-width="5" stroke-linecap="butt"/><g stroke-width="5" stroke-linecap="butt"><path d="M179.33765,178.61917l15.17004,-14.14971l5.86695,6.29001l-15.17003,14.14971z" data-paper-data="{&quot;index&quot;:null}" fill="#ffb2df" stroke="#ea7cba"/><path d="M192.636,161.99926c4.44105,-4.41691 10.4374,-5.58827 13.39321,-2.6163c2.95581,2.97197 1.75178,8.96184 -2.68927,13.37875c-4.44105,4.41691 -5.62919,1.16301 -8.585,-1.80896c-2.95581,-2.97197 -6.55998,-4.53657 -2.11893,-8.95349z" data-paper-data="{&quot;index&quot;:null}" fill="#ff8138" stroke="#e85914"/><path d="M187.3263,183.54378c0,4.61074 -3.62448,8.34849 -8.09551,8.34849c-4.47103,0 -8.09551,-3.73775 -8.09551,-8.34849c0,-4.61074 3.62449,-8.34849 8.09551,-8.34849c4.47103,0 8.09551,3.73775 8.09551,8.34849z" fill="#ffb2df" stroke="#ea7cba"/></g><g stroke-width="5" stroke-linecap="butt"><path d="M292.56959,190.06211l-16.56315,-12.49025l5.17888,-6.86765l16.56315,12.49025z" fill="#ffb2df" stroke="#ea7cba"/><path d="M285.38522,168.70504c4.44105,4.41691 0.83688,5.98152 -2.11893,8.95349c-2.95581,2.97197 -4.14395,6.22587 -8.585,1.80896c-4.44105,-4.41691 -5.64508,-10.40678 -2.68927,-13.37875c2.95581,-2.97197 8.95216,-1.80061 13.39321,2.6163z" fill="#ff8138" stroke="#e85914"/><path d="M307.36922,189.99657c0,4.61074 -3.62448,8.34849 -8.09551,8.34849c-4.47103,0 -8.09551,-3.73775 -8.09551,-8.34849c0,-4.61074 3.62449,-8.34849 8.09551,-8.34849c4.47103,0 8.09551,3.73775 8.09551,8.34849z" fill="#ffb2df" stroke="#ea7cba"/></g><path d="M279.4037,108.23679c0,5.50064 15.46792,18.15993 14.18224,23.08694c-2.32142,8.8962 -0.88579,22.09498 -13.5009,29.10116c-14.33739,7.9627 -43.21996,9.16535 -51.80187,9.16535c-20.3149,0 -36.78338,-21.66124 -36.78338,-48.38174c0,-26.7205 16.46848,-48.38174 36.78338,-48.38174c20.3149,0 51.12052,8.68954 51.12052,35.41004z" fill="#ffb2df" stroke="#ea7cba" stroke-width="5" stroke-linecap="butt"/><g stroke-linecap="butt"><g fill="#ffffff" stroke="#ea7cba" stroke-width="5"><path d="M258.15868,100.08141c0,4.15542 -3.41416,7.52407 -7.62574,7.52407c-4.21158,0 -7.62574,-3.36864 -7.62574,-7.52407c0,-4.15542 3.41416,-7.52407 7.62574,-7.52407c4.21158,0 7.62574,3.36864 7.62574,7.52407z"/></g><path d="M258.15868,102.26039c0,1.81258 -1.55582,3.28196 -3.47502,3.28196c-1.9192,0 -3.47503,-1.46939 -3.47503,-3.28196c0,-1.81258 1.55583,-3.28196 3.47503,-3.28196c1.9192,0 3.47502,1.46939 3.47502,3.28196z" fill="#000000" stroke="none" stroke-width="0"/></g><g stroke-linecap="butt"><g fill="#ffffff" stroke="#ea7cba" stroke-width="5"><path d="M230.41027,101.59581c0,4.15542 -3.41416,7.52407 -7.62574,7.52407c-4.21158,0 -7.62574,-3.36864 -7.62574,-7.52407c0,-4.15542 3.41416,-7.52407 7.62575,-7.52407c4.21158,0 7.62574,3.36864 7.62574,7.52407z"/></g><path d="M230.41027,103.77478c0,1.81258 -1.55582,3.28196 -3.47502,3.28196c-1.9192,0 -3.47502,-1.46939 -3.47502,-3.28196c0,-1.81258 1.55582,-3.28196 3.47502,-3.28196c1.9192,0 3.47502,1.46939 3.47502,3.28196z" fill="#000000" stroke="none" stroke-width="0"/></g><path d="M268.20853,138.30986c0,10.24337 -9.78462,11.94762 -22.41601,11.94762c-12.63139,0 -20.823,0.79906 -20.823,-9.44431c0,-10.24337 8.64675,-23.55388 21.27815,-23.55388c12.63139,0 21.96087,10.8072 21.96087,21.05057z" fill="#ffb2df" stroke="#ea7cba" stroke-width="5" stroke-linecap="butt"/><path d="M216.07896,119.42124c0,2.57656 -2.6457,2.16195 -5.90933,2.16195c-3.26363,0 -5.90933,0.4146 -5.90933,-2.16195c0,-2.57656 2.6457,-4.66526 5.90933,-4.66526c3.26363,0 5.90933,2.08871 5.90933,4.66526z" fill="#fe8dd2" stroke="#ea7cba" stroke-width="0" stroke-linecap="butt"/><path d="M277.52388,116.69035c0,2.57655 -2.6457,2.16195 -5.90933,2.16195c-3.26363,0 -5.90933,0.4146 -5.90933,-2.16195c0,-2.57655 2.6457,-4.66527 5.90933,-4.66527c3.26363,0 5.90933,2.08871 5.90933,4.66527z" fill="#fe8dd2" stroke="#ea7cba" stroke-width="0" stroke-linecap="butt"/><path d="M240.44453,134.66868c0,1.44538 -1.06982,2.6171 -2.38952,2.6171c-1.3197,0 -2.38952,-1.17171 -2.38952,-2.6171c0,-1.44538 1.06982,-2.6171 2.38952,-2.6171c1.3197,0 2.38952,1.17171 2.38952,2.6171z" fill="#ea7cba" stroke="none" stroke-width="0" stroke-linecap="butt"/><path d="M256.60227,134.21354c0,1.44538 -1.06982,2.6171 -2.38952,2.6171c-1.3197,0 -2.38952,-1.17171 -2.38952,-2.6171c0,-1.44538 1.06982,-2.6171 2.38952,-2.6171c1.3197,0 2.38952,1.17172 2.38952,2.6171z" fill="#ea7cba" stroke="none" stroke-width="0" stroke-linecap="butt"/><path d="M251.574,152.7556c1.16498,0.58249 0.58249,1.74747 0.58249,1.74747l-0.66042,1.29834c-1.86796,2.79877 -3.50849,6.18063 -6.70493,7.79123c-1.79029,0.90208 -4.37925,0.5756 -6.25936,0.24345c-4.03361,-0.7126 -8.79436,-1.99485 -11.84103,-4.96065c-0.10598,-0.10317 -1.93985,-3.05232 -2.09418,-3.29925c0,0 -0.69032,-1.10451 0.41419,-1.79483c1.10451,-0.69032 1.79483,0.41419 1.79483,0.41419c0.59671,0.95474 0.9575,2.09603 1.76696,2.87856c2.63699,2.54927 6.94379,3.57601 10.40004,4.19456c1.27382,0.22797 3.46999,0.62756 4.70532,-0.03115c2.67397,-1.42584 4.07105,-4.50906 5.6507,-6.88109l0.49793,-1.01834c0,0 0.58249,-1.16498 1.74747,-0.58249z" fill="#b54865" stroke="none" stroke-width="0.5" stroke-linecap="butt"/></g></g></svg>