<svg version="1.1" xmlns="http://www.w3.org/2000/svg" xmlns:xlink="http://www.w3.org/1999/xlink" width="157.4106" height="204.41718" viewBox="0,0,157.4106,204.41718"><g transform="translate(-161.1214,-86.74004)"><g data-paper-data="{&quot;isPaintingLayer&quot;:true}" fill-rule="nonzero" stroke-linejoin="miter" stroke-miterlimit="10" stroke-dasharray="" stroke-dashoffset="0" style="mix-blend-mode: normal"><path d="M255.08673,279.19172v-24.53996h10.34172v24.53996z" fill="#a4b9bd" stroke="#799794" stroke-width="5" stroke-linecap="butt"/><path d="M283.65428,284.18667c0,5.11017 -7.49551,3.62065 -16.18704,3.62065c-8.69153,0 -15.28777,1.48952 -15.28777,-3.62065c0,-5.11017 7.04588,-9.25277 15.7374,-9.25277c8.69153,0 15.7374,4.1426 15.7374,9.25277z" fill="#484848" stroke="#0e0e0e" stroke-width="5" stroke-linecap="butt"/><path d="M268.12414,274.80115l1.03252,8.12942" fill="none" stroke="#ff0000" stroke-width="5" stroke-linecap="round"/><path d="M275.76478,275.72495l0.61951,6.65135" fill="none" stroke="#ff0000" stroke-width="5" stroke-linecap="round"/><path d="M217.54478,278.99326v-24.53996h10.34172v24.53996z" fill="#a4b9bd" stroke="#799794" stroke-width="5" stroke-linecap="butt"/><path d="M244.52319,284.83456c0,5.11016 -7.49552,3.62065 -16.18704,3.62065c-8.69153,0 -15.28777,1.48952 -15.28777,-3.62065c0,-5.11016 7.04588,-9.25277 15.73741,-9.25277c8.69153,0 15.73741,4.14261 15.73741,9.25277z" fill="#484848" stroke="#0e0e0e" stroke-width="5" stroke-linecap="butt"/><path d="M227.61801,282.56105l-0.61951,-6.46658" fill="none" stroke="#ff0000" stroke-width="5" stroke-linecap="round"/><path d="M233.60661,275.90971l0.82601,7.02086" fill="none" stroke="#ff0000" stroke-width="5" stroke-linecap="round"/><path d="M208.37824,224.33363c2.85772,7.42037 -4.0504,16.27961 -15.42972,19.78767c-11.37931,3.50806 -22.92071,0.33651 -25.77842,-7.08386c-2.85772,-7.42037 9.27279,-4.81921 20.65211,-8.32728c11.37931,-3.50806 17.69831,-11.79691 20.55603,-4.37655z" fill="#a4b9bd" stroke="#799794" stroke-width="5" stroke-linecap="butt"/><path d="M181.0431,243.6157c-0.99866,0.14107 -2.80891,-0.12826 -3.76895,-0.21139c-3.43974,-0.29785 -6.88666,-3.103 -7.69838,-5.40586c-0.42076,-1.19369 -1.98803,-2.09097 -1.27193,-3.1251c1.05097,-1.51771 4.95684,-2.99446 7.67889,-3.37898c3.42623,-0.48399 0.18497,1.43622 -0.06168,3.52692c-0.08283,0.70205 4.23099,0.84473 4.492,1.58521c0.36473,1.03473 -3.06318,2.46381 -2.32787,3.18877c1.35789,1.33877 5.92693,3.40103 2.95792,3.82043z" fill="#fdfad2" stroke="none" stroke-width="0" stroke-linecap="butt"/><path d="M282.06906,212.96498c0,20.37715 -20.08007,41.49245 -44.15183,41.49245c-24.07176,0 -45.56694,-25.71162 -45.56694,-46.08879c0,-20.37715 23.36582,-1.04471 47.43758,-1.04471c24.07176,0 42.28119,-14.73611 42.28119,5.64105z" fill="#404463" stroke="#595e89" stroke-width="5" stroke-linecap="butt"/><path d="M251.50241,256.02264v-12.91437h15.84937v12.91437z" fill="#404463" stroke="#595e89" stroke-width="5" stroke-linecap="butt"/><path d="M265.65363,243.10828c0,4.19553 -5.322,7.59668 -11.88703,7.59668c-6.56502,0 -11.88703,-3.40115 -11.88703,-7.59668c0,-4.19553 5.322,-7.59668 11.88703,-7.59668c6.56502,0 11.88703,3.40115 11.88703,7.59668z" fill="#404463" stroke="none" stroke-width="0" stroke-linecap="butt"/><path d="M213.71676,257.16044v-12.91437h15.84937v12.91437z" fill="#404463" stroke="#595e89" stroke-width="5" stroke-linecap="butt"/><path d="M253.20055,242.22198c0,5.10457 -8.87001,9.24264 -19.81172,9.24264c-10.94171,0 -19.81172,-4.13807 -19.81172,-9.24264c0,-5.10457 8.87001,-9.24264 19.81172,-9.24264c10.94171,0 19.81172,4.13807 19.81172,9.24264z" fill="#404463" stroke="none" stroke-width="0" stroke-linecap="butt"/><path d="M281.7555,201.44338c0,24.60932 -17.07105,28.28857 -41.62055,28.28857c-24.5495,0 -47.28104,-3.67926 -47.28104,-28.28857c0,-24.60932 19.9013,-44.5591 44.45079,-44.5591c24.5495,0 44.45078,19.94979 44.45078,44.5591z" fill="#ff5e6e" stroke="#9e3b45" stroke-width="5" stroke-linecap="butt"/><path d="M172.79774,201.58663l16.97136,-14.16303l6.5636,6.29593l-16.97135,14.16303z" data-paper-data="{&quot;index&quot;:null}" fill="#a4b9bd" stroke="#799794" stroke-width="5" stroke-linecap="butt"/><path d="M187.67515,184.95107c4.96839,-4.42107 11.67676,-5.59353 14.98354,-2.61877c3.30679,2.97476 1.95979,8.97027 -3.0086,13.39135c-4.96839,4.42107 -6.29761,1.16411 -9.6044,-1.81066c-3.30679,-2.97476 -7.33893,-4.54084 -2.37053,-8.96192z" data-paper-data="{&quot;index&quot;:null}" fill="#ff5e6e" stroke="#9e3b45" stroke-width="5" stroke-linecap="butt"/><path d="M181.73498,206.51587c0,4.61508 -4.05486,8.35636 -9.05679,8.35636c-5.00192,0 -9.05679,-3.74127 -9.05679,-8.35636c0,-4.61508 4.05486,-8.35636 9.05679,-8.35636c5.00192,0 9.05679,3.74127 9.05679,8.35636z" fill="#fdfad2" stroke="#799794" stroke-width="5" stroke-linecap="butt"/><path d="M299.47503,213.04034l-18.52989,-12.50201l5.79383,-6.87412l18.52989,12.50201z" fill="#a4b9bd" stroke="#799794" stroke-width="5" stroke-linecap="butt"/><path d="M291.43758,191.66316c4.96839,4.42107 0.93625,5.98715 -2.37054,8.96192c-3.30679,2.97476 -4.63601,6.23173 -9.6044,1.81066c-4.96839,-4.42107 -6.31539,-10.41658 -3.0086,-13.39135c3.30679,-2.97476 10.01515,-1.80231 14.98354,2.61877z" fill="#ff5e6e" stroke="#9e3b45" stroke-width="5" stroke-linecap="butt"/><path d="M287.80124,193.22337c0,-0.94353 0.8549,-1.70841 1.90947,-1.70841c1.05457,0 1.90947,0.76488 1.90947,1.70841c0,0.94353 -0.8549,1.70841 -1.90947,1.70841c-1.05457,0 -1.90947,-0.76488 -1.90947,-1.70841z" fill="#ff5e6e" stroke="none" stroke-width="0.5" stroke-linecap="butt"/><path d="M316.032,212.97474c0,4.61508 -4.05486,8.35636 -9.05679,8.35636c-5.00192,0 -9.05679,-3.74127 -9.05679,-8.35636c0,-4.61508 4.05486,-8.35636 9.05679,-8.35636c5.00192,0 9.05679,3.74127 9.05679,8.35636z" fill="#fdfad2" stroke="#799794" stroke-width="5" stroke-linecap="butt"/><path d="M233.82952,103.27944c0,0 1.15035,-1.21018 3.2799,-3.50973c1.7602,-1.90071 5.32207,-10.35187 6.6583,-10.52967c2.10256,-0.27976 6.11104,11.90396 6.11104,11.90396l-5.80734,13.66741z" data-paper-data="{&quot;index&quot;:null}" fill="#a4b9bd" stroke="#799794" stroke-width="5" stroke-linecap="round"/><path d="M198.49398,120.70648l-5.80734,-13.66741c0,0 4.00847,-12.18372 6.11104,-11.90396c1.33623,0.1778 4.89809,8.62896 6.6583,10.52967c2.12956,2.29956 3.27992,3.50973 3.27992,3.50973z" fill="#a4b9bd" stroke="#799794" stroke-width="5" stroke-linecap="round"/><path d="M268.70624,144.1219c0,5.50581 33.34417,5.19311 31.90583,10.12475c-2.59707,8.90458 -0.99097,22.11579 -15.10401,29.12856c-16.03984,7.9702 -48.35198,9.17398 -57.95292,9.17398c-22.72713,0 -41.1511,-21.68164 -41.1511,-48.42729c0,-26.74565 18.42398,-48.42729 41.1511,-48.42729c22.72713,0 41.1511,21.68164 41.1511,48.42729z" fill="#a4b9bd" stroke="#799794" stroke-width="5" stroke-linecap="butt"/><path d="M268.12308,144.73559c0,5.37192 32.53331,5.06682 31.12995,9.87854c-2.53392,8.68803 -0.96687,21.57797 -14.73672,28.42021c-15.64978,7.77637 -47.17615,8.95089 -56.5436,8.95089c-16.72293,0 -31.05797,-12.03148 -37.09566,-29.14012c-1.96824,-5.57726 -3.05471,-11.69407 -3.05471,-18.10951c0,-6.34227 16.12975,-2.48806 18.05564,-8.01385c5.99815,-17.21005 1.77331,-35.24642 18.5584,-35.24642c1.96669,0 2.80711,7.18466 3.73994,11.32738c0.71532,3.17679 4.25255,7.20228 5.62607,7.62117c0.86704,0.26443 7.51536,-2.14292 8.73009,-3.33743c3.17173,-3.11895 3.49954,-15.00137 5.48259,-13.71272c12.17541,7.91194 20.10804,23.40149 20.10804,41.36187z" fill="#fdfad2" stroke="#799794" stroke-width="0" stroke-linecap="butt"/><path d="M300.33973,152.13614c-0.11639,0.71982 0.2912,1.93623 0.71797,2.68048c1.1293,1.96942 1.10269,5.16915 0.9812,7.26101c-0.13033,2.24394 0.15291,5.27813 -1.34442,7.62269c-0.68546,1.07332 -3.80001,1.41966 -3.85299,2.5122c-2.5894,0.24499 -4.90501,0.45622 -7.15347,0.3848c0.0097,-0.16807 0.01944,-0.33216 0.02996,-0.49133c0.46749,-7.07666 -0.26793,-13.89222 -0.1196,-20.98629c0.01565,-0.74846 0.07287,-1.49672 0.13123,-2.24368c5.43465,0.97123 11.00504,0.81799 10.61013,3.26013z" fill="#3b3324" stroke="#0e0c09" stroke-width="5" stroke-linecap="butt"/><path d="M216.81661,140.72546c0,2.32893 -1.82359,1.03324 -4.35328,1.03324c-2.52968,0 -4.80753,1.29568 -4.80753,-1.03324c0,-2.32893 2.05072,-4.21689 4.5804,-4.21689c2.52968,0 4.58041,1.88797 4.58041,4.21689z" fill="#ffa694" stroke="#e29384" stroke-width="2.5" stroke-linecap="butt"/><path d="M266.44346,140.14925c0,2.32893 -1.82358,1.03324 -4.35328,1.03324c-2.52968,0 -4.80754,1.29568 -4.80754,-1.03324c0,-2.32893 2.05072,-4.21689 4.58041,-4.21689c2.52968,0 4.5804,1.88797 4.5804,4.21689z" fill="#ffa694" stroke="#e29384" stroke-width="2.5" stroke-linecap="butt"/><path d="M255.51285,155.69856c1.30331,0.58304 0.65166,1.74912 0.65166,1.74912l-0.73884,1.29956c-2.08976,2.8014 -3.9251,6.18645 -7.50109,7.79856c-2.00288,0.90293 -4.89925,0.57613 -7.00261,0.24368c-4.51257,-0.71328 -9.83862,-1.99673 -13.24705,-4.96532c-0.11856,-0.10327 -2.17019,-3.0552 -2.34285,-3.30236c0,0 -0.77229,-1.10556 0.46338,-1.79652c1.23567,-0.69097 2.00795,0.41459 2.00795,0.41459c0.66757,0.95564 1.07119,2.09801 1.97677,2.88127c2.95011,2.55167 7.7683,3.57938 11.63496,4.19851c1.42508,0.22819 3.88202,0.62814 5.26403,-0.03118c2.99149,-1.42718 4.55446,-4.5133 6.32167,-6.88757l0.55705,-1.0193c0,0 0.65166,-1.16608 1.95497,-0.58304z" fill="#b54865" stroke="none" stroke-width="0.5" stroke-linecap="butt"/><path d="M254.23785,122.65597c-0.07999,-0.74383 0.09985,-1.75181 1.38136,-2.39257c2.23607,-1.11803 3.3541,1.11803 3.3541,1.11803l-0.19616,4.19786c-4.62144,3.41487 -7.4366,3.48078 -12.68679,1.40101c0,0 -2.32119,-0.92848 -1.39272,-3.24967c0.92848,-2.32119 3.24967,-1.39272 3.24967,-1.39272c3.05056,1.23408 4.19466,1.59251 6.29053,0.31805z" fill="#799794" stroke="none" stroke-width="0.5" stroke-linecap="butt"/><path d="M224.14363,125.49633c-0.07999,-0.74382 0.09985,-1.7518 1.38137,-2.39256c2.23607,-1.11804 3.3541,1.11803 3.3541,1.11803l-0.19616,4.19786c-4.62144,3.41487 -7.4366,3.48078 -12.68679,1.40101c0,0 -2.32119,-0.92848 -1.39271,-3.24967c0.92847,-2.32119 3.24967,-1.39272 3.24967,-1.39272c3.05057,1.23408 4.19466,1.59251 6.29053,0.31805z" fill="#799794" stroke="none" stroke-width="0.5" stroke-linecap="butt"/></g></g></svg>