<svg version="1.1" xmlns="http://www.w3.org/2000/svg" xmlns:xlink="http://www.w3.org/1999/xlink" width="157.4106" height="227.88648" viewBox="0,0,157.4106,227.88648"><g transform="translate(-161.1214,-63.27075)"><g data-paper-data="{&quot;isPaintingLayer&quot;:true}" fill-rule="nonzero" stroke-linejoin="miter" stroke-miterlimit="10" stroke-dasharray="" stroke-dashoffset="0" style="mix-blend-mode: normal"><g stroke-width="5"><path d="M255.08673,278.07774v-27.42805h10.34172v27.42805z" fill="#a4b9bd" stroke="#799794" stroke-linecap="butt"/><path d="M283.65428,283.66054c0,5.71158 -7.49551,4.04676 -16.18704,4.04676c-8.69153,0 -15.28777,1.66482 -15.28777,-4.04676c0,-5.71158 7.04588,-10.34172 15.7374,-10.34172c8.69153,0 15.7374,4.63014 15.7374,10.34172z" fill="#484848" stroke="#0e0e0e" stroke-linecap="butt"/><path d="M268.12414,273.17044l1.03252,9.08617" fill="none" stroke="#ff0000" stroke-linecap="round"/><path d="M275.76478,274.20296l0.61951,7.43414" fill="none" stroke="#ff0000" stroke-linecap="round"/></g><g stroke-width="5"><path d="M217.54478,277.85592v-27.42805h10.34172v27.42805z" fill="#a4b9bd" stroke="#799794" stroke-linecap="butt"/><path d="M244.52319,284.38468c0,5.71157 -7.49552,4.04676 -16.18704,4.04676c-8.69153,0 -15.28777,1.66482 -15.28777,-4.04676c0,-5.71157 7.04588,-10.34172 15.73741,-10.34172c8.69153,0 15.73741,4.63015 15.73741,10.34172z" fill="#484848" stroke="#0e0e0e" stroke-linecap="butt"/><path d="M226.9985,274.61597l0.61951,7.22763" fill="none" stroke="#ff0000" stroke-linecap="round"/><path d="M234.43262,282.25661l-0.82601,-7.84714" fill="none" stroke="#ff0000" stroke-linecap="round"/></g><g stroke-linecap="butt"><path d="M208.37824,216.76343c2.85772,8.29367 -4.0504,18.19555 -15.42972,22.11647c-11.37931,3.92092 -22.92071,0.37611 -25.77842,-7.91756c-2.85772,-8.29367 9.27279,-5.38638 20.65211,-9.30731c11.37931,-3.92092 17.69831,-13.18528 20.55603,-4.89162z" fill="#a4b9bd" stroke="#799794" stroke-width="5"/><path d="M181.0431,238.31479c-0.99866,0.15767 -2.80891,-0.14335 -3.76895,-0.23627c-3.43974,-0.3329 -6.88666,-3.46819 -7.69838,-6.04207c-0.42076,-1.33417 -1.98803,-2.33706 -1.27193,-3.49289c1.05097,-1.69633 4.95684,-3.34688 7.67889,-3.77665c3.42623,-0.54095 0.18497,1.60525 -0.06168,3.942c-0.08283,0.78467 4.23099,0.94415 4.492,1.77177c0.36473,1.15651 -3.06318,2.75378 -2.32787,3.56405c1.35789,1.49633 5.92693,3.80129 2.95792,4.27005z" fill="#fdfad2" stroke="none" stroke-width="0"/></g><g fill="#404463" stroke-linecap="butt"><path d="M282.06906,204.05681c0,22.77533 -20.08007,46.37567 -44.15183,46.37567c-24.07176,0 -45.56694,-28.73761 -45.56694,-51.51295c0,-22.77533 23.36582,-1.16766 47.43758,-1.16766c24.07176,0 42.28119,-16.4704 42.28119,6.30494z" stroke="#595e89" stroke-width="5"/><path d="M251.50241,252.1819v-14.43425h15.84937v14.43425z" stroke="#595e89" stroke-width="5"/><path d="M265.65363,237.74765c0,4.6893 -5.322,8.49073 -11.88703,8.49073c-6.56502,0 -11.88703,-3.80143 -11.88703,-8.49073c0,-4.6893 5.322,-8.49073 11.88703,-8.49073c6.56502,0 11.88703,3.80143 11.88703,8.49073z" stroke="none" stroke-width="0"/><path d="M213.71676,253.45361v-14.43425h15.84937v14.43425z" stroke="#595e89" stroke-width="5"/><path d="M253.20055,236.75705c0,5.70532 -8.87001,10.3304 -19.81172,10.3304c-10.94171,0 -19.81172,-4.62508 -19.81172,-10.3304c0,-5.70532 8.87001,-10.3304 19.81172,-10.3304c10.94171,0 19.81172,4.62508 19.81172,10.3304z" stroke="none" stroke-width="0"/></g><path d="M281.7555,191.17924c0,27.50558 -17.07105,31.61784 -41.62055,31.61784c-24.5495,0 -47.28104,-4.11227 -47.28104,-31.61784c0,-27.50558 19.9013,-49.80324 44.45079,-49.80324c24.5495,0 44.45078,22.29767 44.45078,49.80324z" fill="#ff5e6e" stroke="#9e3b45" stroke-width="5" stroke-linecap="butt"/><g stroke-width="5" stroke-linecap="butt"><path d="M172.79774,191.33934l16.97136,-15.82987l6.5636,7.0369l-16.97135,15.82987z" data-paper-data="{&quot;index&quot;:null}" fill="#a4b9bd" stroke="#799794"/><path d="M187.67515,172.74596c4.96839,-4.94138 11.67676,-6.25183 14.98354,-2.92697c3.30679,3.32486 1.95979,10.02598 -3.0086,14.96737c-4.96839,4.94138 -6.29761,1.30111 -9.6044,-2.02376c-3.30679,-3.32486 -7.33893,-5.07525 -2.37053,-10.01664z" data-paper-data="{&quot;index&quot;:null}" fill="#ff5e6e" stroke="#9e3b45"/><path d="M181.73498,196.84871c0,5.15823 -4.05486,9.33981 -9.05679,9.33981c-5.00192,0 -9.05679,-4.18158 -9.05679,-9.33981c0,-5.15823 4.05486,-9.33981 9.05679,-9.33981c5.00192,0 9.05679,4.18158 9.05679,9.33981z" fill="#fdfad2" stroke="#799794"/></g><g stroke-linecap="butt"><path d="M299.47503,204.14104l-18.52989,-13.97336l5.79383,-7.68313l18.52989,13.97336z" fill="#a4b9bd" stroke="#799794" stroke-width="5"/><path d="M291.43758,180.24799c4.96839,4.94138 0.93625,6.69177 -2.37054,10.01664c-3.30679,3.32486 -4.63601,6.96514 -9.6044,2.02376c-4.96839,-4.94138 -6.31539,-11.6425 -3.0086,-14.96737c3.30679,-3.32486 10.01515,-2.01442 14.98354,2.92697z" fill="#ff5e6e" stroke="#9e3b45" stroke-width="5"/><path d="M287.80124,181.99182c0,-1.05457 0.8549,-1.90947 1.90947,-1.90947c1.05457,0 1.90947,0.8549 1.90947,1.90947c0,1.05457 -0.8549,1.90947 -1.90947,1.90947c-1.05457,0 -1.90947,-0.8549 -1.90947,-1.90947z" fill="#ff5e6e" stroke="none" stroke-width="0.5"/><path d="M316.032,204.06772c0,5.15823 -4.05486,9.33981 -9.05679,9.33981c-5.00192,0 -9.05679,-4.18158 -9.05679,-9.33981c0,-5.15823 4.05486,-9.33981 9.05679,-9.33981c5.00192,0 9.05679,4.18158 9.05679,9.33981z" fill="#fdfad2" stroke="#799794" stroke-width="5"/></g><g stroke="#799794"><path d="M233.82952,81.46244c0,0 1.15035,-1.3526 3.2799,-3.92279c1.7602,-2.1244 5.32207,-11.57018 6.6583,-11.7689c2.10256,-0.31268 6.11104,13.30493 6.11104,13.30493l-5.80734,15.27592z" data-paper-data="{&quot;index&quot;:null}" fill="#a4b9bd" stroke-width="5" stroke-linecap="round"/><path d="M198.49398,100.94046l-5.80734,-15.27592c0,0 4.00847,-13.61761 6.11104,-13.30493c1.33623,0.19872 4.89809,9.6445 6.6583,11.7689c2.12956,2.57019 3.27992,3.92279 3.27992,3.92279z" fill="#a4b9bd" stroke-width="5" stroke-linecap="round"/><path d="M268.70624,127.11162c0,6.15379 33.34417,5.80428 31.90583,11.31633c-2.59707,9.95255 -0.99097,24.71858 -15.10401,32.55668c-16.03984,8.90821 -48.35198,10.25366 -57.95292,10.25366c-22.72713,0 -41.1511,-24.23334 -41.1511,-54.12667c0,-29.89333 18.42398,-54.12667 41.1511,-54.12667c22.72713,0 41.1511,24.23334 41.1511,54.12667z" fill="#a4b9bd" stroke-width="5" stroke-linecap="butt"/><path d="M268.12308,127.79754c0,6.00414 32.53331,5.66313 31.12995,11.04114c-2.53392,9.71052 -0.96687,24.11747 -14.73672,31.76497c-15.64978,8.69157 -47.17615,10.00431 -56.5436,10.00431c-16.72293,0 -31.05797,-13.44746 -37.09566,-32.5696c-1.96824,-6.23365 -3.05471,-13.07034 -3.05471,-20.24081c0,-7.08869 16.12975,-2.78088 18.05564,-8.95699c5.99815,-19.23549 1.77331,-39.39455 18.5584,-39.39455c1.96669,0 2.80711,8.03022 3.73994,12.66049c0.71532,3.55066 4.25255,8.04991 5.62607,8.5181c0.86704,0.29555 7.51536,-2.39512 8.73009,-3.73021c3.17173,-3.48602 3.49954,-16.76687 5.48259,-15.32656c12.17541,8.84309 20.10804,26.1556 20.10804,46.22973z" fill="#fdfad2" stroke-width="0" stroke-linecap="butt"/></g><path d="M300.33973,136.06905c-0.11639,0.80454 0.2912,2.1641 0.71797,2.99594c1.1293,2.2012 1.10269,5.7775 0.9812,8.11555c-0.13033,2.50803 0.15291,5.89931 -1.34442,8.5198c-0.68546,1.19964 -3.80001,1.58674 -3.85299,2.80786c-2.5894,0.27382 -4.90501,0.50991 -7.15347,0.43009c0.0097,-0.18785 0.01944,-0.37125 0.02996,-0.54915c0.46749,-7.90951 -0.26793,-15.52719 -0.1196,-23.45616c0.01565,-0.83655 0.07287,-1.67287 0.13123,-2.50774c5.43465,1.08553 11.00504,0.91426 10.61013,3.64381z" fill="#3b3324" stroke="#0e0c09" stroke-width="5" stroke-linecap="butt"/><path d="M216.81661,123.31546c0,2.60302 -1.82359,1.15484 -4.35328,1.15484c-2.52968,0 -4.80753,1.44817 -4.80753,-1.15484c0,-2.60302 2.05072,-4.71317 4.5804,-4.71317c2.52968,0 4.58041,2.11016 4.58041,4.71317z" fill="#ffa694" stroke="#e29384" stroke-width="2.5" stroke-linecap="butt"/><path d="M266.44346,122.67144c0,2.60302 -1.82358,1.15484 -4.35328,1.15484c-2.52968,0 -4.80754,1.44817 -4.80754,-1.15484c0,-2.60302 2.05072,-4.71317 4.58041,-4.71317c2.52968,0 4.5804,2.11016 4.5804,4.71317z" fill="#ffa694" stroke="#e29384" stroke-width="2.5" stroke-linecap="butt"/><g stroke-linecap="butt"><g fill="#ffffff" stroke="#799794" stroke-width="5"><path d="M260.97811,103.47588c0,4.64885 -3.81956,8.41749 -8.53124,8.41749c-4.71167,0 -8.53124,-3.76863 -8.53124,-8.41749c0,-4.64885 3.81956,-8.41749 8.53124,-8.41749c4.71167,0 8.53124,3.76863 8.53124,8.41749z"/></g><path d="M260.97811,105.91359c0,2.02781 -1.74056,3.67167 -3.88765,3.67167c-2.14709,0 -3.88766,-1.64386 -3.88766,-3.67167c0,-2.02781 1.74057,-3.67167 3.88766,-3.67167c2.14709,0 3.88765,1.64386 3.88765,3.67167z" fill="#000000" stroke="none" stroke-width="0"/></g><g stroke-linecap="butt"><g fill="#ffffff" stroke="#799794" stroke-width="5"><path d="M229.93481,105.1701c0,4.64885 -3.81956,8.41749 -8.53124,8.41749c-4.71167,0 -8.53124,-3.76863 -8.53124,-8.41749c0,-4.64885 3.81956,-8.41749 8.53125,-8.41749c4.71167,0 8.53124,3.76863 8.53124,8.41749z"/></g><path d="M229.93481,107.6078c0,2.02781 -1.74056,3.67167 -3.88765,3.67167c-2.14709,0 -3.88765,-1.64386 -3.88765,-3.67167c0,-2.02781 1.74056,-3.67167 3.88765,-3.67167c2.14709,0 3.88765,1.64387 3.88765,3.67167z" fill="#000000" stroke="none" stroke-width="0"/></g><path d="M255.51285,140.05073c1.30331,0.65166 0.65166,1.95497 0.65166,1.95497l-0.73884,1.45251c-2.08976,3.1311 -3.9251,6.91453 -7.50109,8.71637c-2.00288,1.00919 -4.89925,0.64394 -7.00261,0.27236c-4.51257,-0.79722 -9.83862,-2.23172 -13.24705,-5.54969c-0.11856,-0.11542 -2.17019,-3.41476 -2.34285,-3.69101c0,0 -0.77229,-1.23567 0.46338,-2.00795c1.23567,-0.77229 2.00795,0.46338 2.00795,0.46338c0.66757,1.06811 1.07119,2.34492 1.97677,3.22037c2.95011,2.85198 7.7683,4.00063 11.63496,4.69263c1.42508,0.25504 3.88202,0.70207 5.26403,-0.03485c2.99149,-1.59514 4.55446,-5.04447 6.32167,-7.69816l0.55705,-1.13926c0,0 0.65166,-1.30331 1.95497,-0.65166z" fill="#b54865" stroke="none" stroke-width="0.5" stroke-linecap="butt"/></g></g></svg>