<svg version="1.1" xmlns="http://www.w3.org/2000/svg" xmlns:xlink="http://www.w3.org/1999/xlink" width="170.8197" height="231.73474" viewBox="0,0,170.8197,231.73474"><g transform="translate(-153.91144,-63.27075)"><g data-paper-data="{&quot;isPaintingLayer&quot;:true}" fill-rule="nonzero" stroke-linejoin="miter" stroke-miterlimit="10" stroke-dasharray="" stroke-dashoffset="0" style="mix-blend-mode: normal"><g stroke-width="5"><path d="M271.52569,276.46761l-14.26091,-23.42913l8.83393,-5.37706l14.26091,23.42913z" fill="#a4b9bd" stroke="#799794" stroke-linecap="butt"/><path d="M298.8309,266.38307c2.96967,4.87885 -4.29862,7.35396 -11.72296,11.87303c-7.42433,4.51907 -12.19326,9.3708 -15.16293,4.49195c-2.96967,-4.87885 0.64155,-12.49736 8.06588,-17.01642c7.42433,-4.51907 15.85033,-4.22741 18.82,0.65144z" fill="#484848" stroke="#0e0e0e" stroke-linecap="butt"/><path d="M280.11079,265.49712l5.60624,7.22459" fill="none" stroke="#ff0000" stroke-linecap="round"/><path d="M287.1743,262.40643l4.39449,6.02816" fill="none" stroke="#ff0000" stroke-linecap="round"/></g><g stroke-width="5"><path d="M199.85965,268.30358l18.19914,-20.52046l7.73722,6.86197l-18.19914,20.52046z" fill="#a4b9bd" stroke="#799794" stroke-linecap="butt"/><path d="M215.71173,291.0889c-3.78976,4.27314 -8.29293,-1.94585 -14.79555,-7.71287c-6.50262,-5.76703 -12.54228,-8.89823 -8.75252,-13.17139c3.78976,-4.27314 12.13339,-3.06212 18.63601,2.70491c6.50262,5.76703 8.70183,13.90621 4.91207,18.17935z" fill="#484848" stroke="#0e0e0e" stroke-linecap="butt"/><path d="M209.08229,272.15235l-4.33221,5.81845" fill="none" stroke="#ff0000" stroke-linecap="round"/><path d="M209.57443,282.80145l4.58877,-6.41896" fill="none" stroke="#ff0000" stroke-linecap="round"/></g><g stroke-linecap="butt"><path d="M208.37824,216.76343c2.85772,8.29367 -4.0504,18.19555 -15.42972,22.11647c-11.37931,3.92092 -22.92071,0.37611 -25.77842,-7.91756c-2.85772,-8.29367 9.27279,-5.38638 20.65211,-9.30731c11.37931,-3.92092 17.69831,-13.18528 20.55603,-4.89162z" fill="#a4b9bd" stroke="#799794" stroke-width="5"/><path d="M181.0431,238.31479c-0.99866,0.15767 -2.80891,-0.14335 -3.76895,-0.23627c-3.43974,-0.3329 -6.88666,-3.46819 -7.69838,-6.04207c-0.42076,-1.33417 -1.98803,-2.33706 -1.27193,-3.49289c1.05097,-1.69633 4.95684,-3.34688 7.67889,-3.77665c3.42623,-0.54095 0.18497,1.60525 -0.06168,3.942c-0.08283,0.78467 4.23099,0.94415 4.492,1.77177c0.36473,1.15651 -3.06318,2.75378 -2.32787,3.56405c1.35789,1.49633 5.92693,3.80129 2.95792,4.27005z" fill="#fdfad2" stroke="none" stroke-width="0"/></g><path d="M282.06906,204.05681c0,22.77533 -20.08007,46.37567 -44.15183,46.37567c-24.07176,0 -45.56694,-28.73761 -45.56694,-51.51295c0,-22.77533 23.36582,-1.16766 47.43758,-1.16766c24.07176,0 42.28119,-16.4704 42.28119,6.30494z" fill="#404463" stroke="#595e89" stroke-width="5" stroke-linecap="butt"/><path d="M257.26365,255.46272l-8.49051,-11.67299l12.8174,-9.32292l8.49051,11.67299z" fill="#404463" stroke="#595e89" stroke-width="5" stroke-linecap="butt"/><path d="M265.65363,237.74765c0,4.6893 -5.322,8.49073 -11.88703,8.49073c-6.56502,0 -11.88703,-3.80143 -11.88703,-8.49073c0,-4.6893 5.322,-8.49073 11.88703,-8.49073c6.56502,0 11.88703,3.80143 11.88703,8.49073z" fill="#404463" stroke="none" stroke-width="0" stroke-linecap="butt"/><path d="M212.04041,251.00172l3.96123,-13.88007l15.24085,4.34958l-3.96123,13.88007z" fill="#404463" stroke="#595e89" stroke-width="5" stroke-linecap="butt"/><path d="M253.20055,236.75705c0,5.70532 -8.87001,10.3304 -19.81172,10.3304c-10.94171,0 -19.81172,-4.62508 -19.81172,-10.3304c0,-5.70532 8.87001,-10.3304 19.81172,-10.3304c10.94171,0 19.81172,4.62508 19.81172,10.3304z" fill="#404463" stroke="none" stroke-width="0" stroke-linecap="butt"/><path d="M281.7555,191.17924c0,27.50558 -17.07105,31.61784 -41.62055,31.61784c-24.5495,0 -47.28104,-4.11227 -47.28104,-31.61784c0,-27.50558 19.9013,-49.80324 44.45079,-49.80324c24.5495,0 44.45078,22.29767 44.45078,49.80324z" fill="#ff5e6e" stroke="#9e3b45" stroke-width="5" stroke-linecap="butt"/><g stroke-width="5" stroke-linecap="butt"><path d="M171.25092,163.67343l15.12858,17.59937l-7.29729,6.27282l-15.12858,-17.59936z" data-paper-data="{&quot;index&quot;:null}" fill="#a4b9bd" stroke="#799794"/><path d="M189.22565,179.29265c4.73582,5.1647 5.77314,11.92069 2.31691,15.08992c-3.45623,3.16923 -10.09721,1.55158 -14.83304,-3.61312c-4.73582,-5.1647 -1.04464,-6.34519 2.4116,-9.51443c3.45623,-3.16923 5.3687,-7.12707 10.10454,-1.96236z" data-paper-data="{&quot;index&quot;:null}" fill="#ff5e6e" stroke="#9e3b45"/><path d="M165.38363,172.37989c-5.15399,-0.20919 -9.16768,-4.4303 -8.96483,-9.42811c0.20285,-4.99781 4.54543,-8.87976 9.69942,-8.67057c5.15399,0.20919 9.16768,4.4303 8.96483,9.42811c-0.20285,4.99781 -4.54543,8.87976 -9.69942,8.67057z" fill="#fdfad2" stroke="#799794"/></g><g stroke-linecap="butt"><path d="M312.34307,176.12687l-15.46367,17.30568l-7.17553,-6.41176l15.46367,-17.30568z" fill="#a4b9bd" stroke="#799794" stroke-width="5"/><path d="M287.86517,182.1527c5.33685,-4.54095 6.7464,-0.37739 9.78522,3.19405c3.03881,3.57144 6.55616,5.19833 1.21931,9.73927c-5.33685,4.54095 -12.12667,5.32689 -15.16549,1.75545c-3.03881,-3.57144 -1.17589,-10.14783 4.16096,-14.68877z" fill="#ff5e6e" stroke="#9e3b45" stroke-width="5"/><path d="M289.30105,185.92127c-1.05093,-0.08756 -1.83189,-1.01049 -1.74433,-2.06142c0.08756,-1.05093 1.01049,-1.83189 2.06142,-1.74433c1.05093,0.08756 1.83189,1.01049 1.74433,2.06142c-0.08756,1.05093 -1.01049,1.83189 -2.06142,1.74433z" fill="#ff5e6e" stroke="none" stroke-width="0.5"/><path d="M313.64475,159.62098c5.14042,0.42829 8.97088,4.81635 8.55556,9.80101c-0.41532,4.98465 -4.91914,8.67832 -10.05955,8.25002c-5.14042,-0.42829 -8.97088,-4.81635 -8.55556,-9.80101c0.41532,-4.98465 4.91914,-8.67832 10.05955,-8.25002z" fill="#fdfad2" stroke="#799794" stroke-width="5"/></g><g stroke="#799794"><path d="M233.82952,81.46244c0,0 1.15035,-1.3526 3.2799,-3.92279c1.7602,-2.1244 5.32207,-11.57018 6.6583,-11.7689c2.10256,-0.31268 6.11104,13.30493 6.11104,13.30493l-5.80734,15.27592z" data-paper-data="{&quot;index&quot;:null}" fill="#a4b9bd" stroke-width="5" stroke-linecap="round"/><path d="M198.49398,100.94046l-5.80734,-15.27592c0,0 4.00847,-13.61761 6.11104,-13.30493c1.33623,0.19872 4.89809,9.6445 6.6583,11.7689c2.12956,2.57019 3.27992,3.92279 3.27992,3.92279z" fill="#a4b9bd" stroke-width="5" stroke-linecap="round"/><path d="M268.70624,127.11162c0,6.15379 33.34417,5.80428 31.90583,11.31633c-2.59707,9.95255 -0.99097,24.71858 -15.10401,32.55668c-16.03984,8.90821 -48.35198,10.25366 -57.95292,10.25366c-22.72713,0 -41.1511,-24.23334 -41.1511,-54.12667c0,-29.89333 18.42398,-54.12667 41.1511,-54.12667c22.72713,0 41.1511,24.23334 41.1511,54.12667z" fill="#a4b9bd" stroke-width="5" stroke-linecap="butt"/><path d="M268.12308,127.79754c0,6.00414 32.53331,5.66313 31.12995,11.04114c-2.53392,9.71052 -0.96687,24.11747 -14.73672,31.76497c-15.64978,8.69157 -47.17615,10.00431 -56.5436,10.00431c-16.72293,0 -31.05797,-13.44746 -37.09566,-32.5696c-1.96824,-6.23365 -3.05471,-13.07034 -3.05471,-20.24081c0,-7.08869 16.12975,-2.78088 18.05564,-8.95699c5.99815,-19.23549 1.77331,-39.39455 18.5584,-39.39455c1.96669,0 2.80711,8.03022 3.73994,12.66049c0.71532,3.55066 4.25255,8.04991 5.62607,8.5181c0.86704,0.29555 7.51536,-2.39512 8.73009,-3.73021c3.17173,-3.48602 3.49954,-16.76687 5.48259,-15.32656c12.17541,8.84309 20.10804,26.1556 20.10804,46.22973z" fill="#fdfad2" stroke-width="0" stroke-linecap="butt"/></g><path d="M300.33973,136.06904c-0.11639,0.80454 0.2912,2.1641 0.71797,2.99594c1.1293,2.2012 1.10269,5.7775 0.9812,8.11555c-0.13033,2.50803 0.15291,5.89931 -1.34442,8.5198c-0.68546,1.19964 -3.80001,1.58674 -3.85299,2.80786c-2.5894,0.27382 -4.90501,0.50991 -7.15347,0.43009c0.0097,-0.18785 0.01944,-0.37125 0.02996,-0.54915c0.46749,-7.90951 -0.26793,-15.52719 -0.1196,-23.45616c0.01565,-0.83655 0.07287,-1.67287 0.13123,-2.50774c5.43465,1.08553 11.00504,0.91426 10.61013,3.64381z" fill="#3b3324" stroke="#0e0c09" stroke-width="5" stroke-linecap="butt"/><path d="M216.81661,123.31546c0,2.60302 -1.82359,1.15484 -4.35328,1.15484c-2.52968,0 -4.80753,1.44817 -4.80753,-1.15484c0,-2.60302 2.05072,-4.71317 4.5804,-4.71317c2.52968,0 4.58041,2.11016 4.58041,4.71317z" fill="#ffa694" stroke="#e29384" stroke-width="2.5" stroke-linecap="butt"/><path d="M266.44346,122.67144c0,2.60302 -1.82358,1.15484 -4.35328,1.15484c-2.52968,0 -4.80754,1.44817 -4.80754,-1.15484c0,-2.60302 2.05072,-4.71317 4.58041,-4.71317c2.52968,0 4.5804,2.11016 4.5804,4.71317z" fill="#ffa694" stroke="#e29384" stroke-width="2.5" stroke-linecap="butt"/><g stroke-linecap="butt"><g fill="#ffffff" stroke="#799794" stroke-width="5"><path d="M260.97811,103.47588c0,4.64885 -3.81956,8.41749 -8.53124,8.41749c-4.71167,0 -8.53124,-3.76863 -8.53124,-8.41749c0,-4.64885 3.81956,-8.41749 8.53124,-8.41749c4.71167,0 8.53124,3.76863 8.53124,8.41749z"/></g><path d="M260.97811,105.91359c0,2.02781 -1.74056,3.67167 -3.88765,3.67167c-2.14709,0 -3.88766,-1.64386 -3.88766,-3.67167c0,-2.02781 1.74057,-3.67167 3.88766,-3.67167c2.14709,0 3.88765,1.64386 3.88765,3.67167z" fill="#000000" stroke="none" stroke-width="0"/></g><path d="M229.93481,105.1701c0,4.64885 -3.81956,8.41749 -8.53124,8.41749c-4.71167,0 -8.53124,-3.76863 -8.53124,-8.41749c0,-4.64885 3.81956,-8.41749 8.53125,-8.41749c4.71167,0 8.53124,3.76863 8.53124,8.41749z" fill="#ffffff" stroke="#799794" stroke-width="5" stroke-linecap="butt"/><path d="M222.93481,107.6078c0,2.02781 -1.74056,3.67167 -3.88765,3.67167c-2.14709,0 -3.88765,-1.64386 -3.88765,-3.67167c0,-2.02781 1.74056,-3.67167 3.88765,-3.67167c2.14709,0 3.88765,1.64387 3.88765,3.67167z" fill="#000000" stroke="none" stroke-width="0" stroke-linecap="butt"/><path d="M255.51285,140.05073c1.30331,0.65166 0.65166,1.95497 0.65166,1.95497l-0.73884,1.45251c-2.08976,3.1311 -3.9251,6.91453 -7.50109,8.71637c-2.00288,1.00919 -4.89925,0.64394 -7.00261,0.27236c-4.51257,-0.79722 -9.83862,-2.23172 -13.24705,-5.54969c-0.11856,-0.11542 -2.17019,-3.41476 -2.34285,-3.69101c0,0 -0.77229,-1.23567 0.46338,-2.00795c1.23567,-0.77229 2.00795,0.46338 2.00795,0.46338c0.66757,1.06811 1.07119,2.34492 1.97677,3.22037c2.95011,2.85198 7.7683,4.00063 11.63496,4.69263c1.42508,0.25504 3.88202,0.70207 5.26403,-0.03485c2.99149,-1.59514 4.55446,-5.04447 6.32167,-7.69816l0.55705,-1.13926c0,0 0.65166,-1.30331 1.95497,-0.65166z" fill="#b54865" stroke="none" stroke-width="0.5" stroke-linecap="butt"/></g></g></svg>